<?xml version="1.0" encoding="iso-8859-1"?>
<!-- Uploaded to: SVG Repo, www.svgrepo.com, Generator: SVG Repo Mixer Tools -->
<svg height="180px" width="180px" version="1.1" id="Layer_1" xmlns="http://www.w3.org/2000/svg" xmlns:xlink="http://www.w3.org/1999/xlink" 
	 viewBox="0 0 512 512" xml:space="preserve">
<circle style="fill:#FAD24D;" cx="256" cy="256" r="256"/>
<path style="fill:#666666;" d="M162.167,74.898h182.121c2.874,0,5.204,2.33,5.204,5.204v349.814c0,2.874-2.33,5.204-5.204,5.204
	H162.167c-2.874,0-5.204-2.33-5.204-5.204V80.102C156.963,77.227,159.293,74.898,162.167,74.898z"/>
<path style="fill:#21D0C3;" d="M170.15,123.51h166.156c2.233,0,4.042,1.809,4.042,4.042v254.912c0,2.233-1.809,4.042-4.042,4.042
	H170.15c-2.233,0-4.042-1.809-4.042-4.042V127.552C166.108,125.319,167.918,123.51,170.15,123.51z"/>
<g>
	<path style="fill:#C0C1C4;" d="M209.501,97.136h87.447c2.009,0,3.638,1.629,3.638,3.637l0,0c0,2.009-1.629,3.637-3.638,3.637
		h-87.447c-2.009,0-3.638-1.629-3.638-3.637l0,0C205.863,98.765,207.492,97.136,209.501,97.136z"/>
	<circle style="fill:#C0C1C4;" cx="252.507" cy="411.896" r="12.076"/>
	<circle style="fill:#C0C1C4;" cx="180.947" cy="101.083" r="4.127"/>
</g>
<path style="fill:#ECF0F1;" d="M280.52,264.702c0.249,0.682,0.476,1.378,0.68,2.085l17.256,59.894
	c7.53,0.419,7.329,13.477-0.32,13.477h-42.065c-7.652,0-7.851-13.057-0.32-13.477l-17.254-59.894
	c-0.215-0.747-0.298-1.483-0.271-2.2c0.575,0.076,1.161,0.115,1.757,0.115L280.52,264.702L280.52,264.702z"/>
<path style="fill:#DCE3DB;" d="M280.52,264.702c0.249,0.682,0.476,1.378,0.68,2.085l1.05,3.647h-42.706l-1.05-3.647
	c-0.215-0.747-0.298-1.483-0.271-2.2c0.575,0.076,1.161,0.115,1.757,0.115L280.52,264.702L280.52,264.702z"/>
<path style="fill:#FF5B62;" d="M403.003,228.282v90.27l-0.006,0.254l-0.017,0.25l-0.028,0.245l-0.037,0.239l-0.05,0.234L402.807,320
	l-0.07,0.223l-0.077,0.217l-0.087,0.211l-0.096,0.206l-0.105,0.2l-0.115,0.194l-0.122,0.187l-0.13,0.182l-0.137,0.177l-0.145,0.169
	l-0.153,0.164l-0.158,0.157h-0.001l-0.165,0.152l-0.174,0.144l-0.178,0.138l-0.184,0.132l-0.191,0.125h-0.001l-0.195,0.119h-0.001
	l-0.201,0.112l-0.206,0.105h-0.001l-0.21,0.099l-0.216,0.092l-0.22,0.086l-0.223,0.078h-0.001l-0.226,0.071l-0.23,0.066h-0.001
	l-0.234,0.057l-0.236,0.051h-0.001l-0.239,0.041l-0.242,0.037l-0.245,0.028l-0.245,0.021h-0.001l-0.247,0.013h-0.001l-0.249,0.007
	l-0.249-0.002l-0.252-0.008l-0.252-0.017h-0.001l-0.25-0.024l-0.253-0.033l-0.252-0.04l-0.252-0.047h-0.001l-0.25-0.055
	l-0.249-0.064h-0.001l-0.247-0.071h-0.001l-0.246-0.081h-0.001l-0.246-0.087l-0.243-0.096h-0.001l-0.24-0.105h-0.001l-0.239-0.113
	h-0.001l-0.236-0.12l-0.234-0.129l-0.23-0.139l-0.226-0.148h-0.001l-0.223-0.155l-0.219-0.164l-0.215-0.173h-0.001l-0.21-0.182
	l-0.206-0.19c-0.786-0.755-1.569-1.499-2.35-2.236c-0.779-0.737-1.557-1.465-2.331-2.184h-0.001
	c-0.776-0.719-1.548-1.431-2.316-2.134c-0.77-0.703-1.537-1.398-2.299-2.083c-0.764-0.688-1.525-1.363-2.285-2.033
	c-0.758-0.669-1.513-1.33-2.267-1.984c-0.754-0.653-1.504-1.297-2.251-1.934c-0.748-0.637-1.492-1.266-2.235-1.887
	c-0.743-0.621-1.48-1.233-2.218-1.838c-0.737-0.605-1.471-1.202-2.202-1.792c-0.731-0.59-1.459-1.168-2.184-1.744
	c-0.725-0.574-1.447-1.14-2.168-1.699c-0.722-0.558-1.438-1.108-2.153-1.652c-0.715-0.544-1.426-1.079-2.136-1.607
	c-0.709-0.528-1.414-1.049-2.118-1.562c-0.705-0.513-1.405-1.018-2.103-1.517c-0.699-0.5-1.392-0.99-2.085-1.473
	c-0.693-0.484-1.382-0.961-2.071-1.431c-0.686-0.469-1.369-0.931-2.052-1.385h-0.001c-0.682-0.456-1.36-0.904-2.037-1.346
	c-0.676-0.439-1.349-0.873-2.019-1.301c-0.671-0.426-1.337-0.848-2.004-1.262h-0.001c-0.666-0.413-1.327-0.82-1.987-1.22
	c-0.66-0.401-1.317-0.793-1.971-1.18s-1.306-0.768-1.955-1.14c-0.649-0.373-1.294-0.741-1.938-1.101
	c-0.644-0.359-1.284-0.715-1.922-1.062c-0.638-0.346-1.273-0.688-1.906-1.022c-0.633-0.334-1.263-0.664-1.889-0.984
	c-0.627-0.321-1.252-0.639-1.873-0.948h-0.001c-0.621-0.308-1.24-0.614-1.855-0.911h-0.001c-0.616-0.297-1.23-0.59-1.838-0.873
	h-0.001c-0.612-0.286-1.219-0.565-1.823-0.838h-0.001c-0.605-0.273-1.209-0.541-1.807-0.802h-0.001
	c-0.599-0.26-1.197-0.519-1.79-0.767h-0.001c-0.594-0.252-1.186-0.494-1.776-0.732c-0.588-0.24-1.176-0.473-1.759-0.701
	c-0.584-0.228-1.165-0.448-1.743-0.665c-0.579-0.216-1.153-0.428-1.727-0.633h-0.001c-0.572-0.206-1.144-0.405-1.711-0.6
	c-0.567-0.195-1.131-0.384-1.693-0.568c-0.562-0.184-1.122-0.363-1.678-0.536h-0.004c-0.558-0.174-1.11-0.341-1.661-0.505
	c-0.552-0.164-1.101-0.323-1.647-0.476c-0.546-0.152-1.088-0.301-1.628-0.444h-0.001c-0.541-0.143-1.078-0.282-1.613-0.416
	c-0.535-0.134-1.068-0.261-1.597-0.385s-1.057-0.245-1.581-0.357c-0.525-0.115-1.046-0.224-1.564-0.33
	c-0.519-0.105-1.034-0.206-1.548-0.301h-0.001c-0.514-0.096-1.023-0.189-1.531-0.275c-0.508-0.087-1.014-0.169-1.516-0.247h-0.001
	c-0.502-0.079-1.001-0.155-1.498-0.223c-0.498-0.071-0.992-0.135-1.484-0.196c-0.493-0.061-0.982-0.119-1.467-0.174l-1.451-0.147
	c-0.482-0.045-0.958-0.089-1.436-0.124c-0.475-0.038-0.948-0.071-1.418-0.099h-0.001c-0.471-0.03-0.937-0.055-1.403-0.077
	c-0.464-0.02-0.928-0.04-1.387-0.054l-1.369-0.032l-1.355-0.011l-1.337,0.012l-1.322,0.032v-33.335v-33.34
	c28.042,0.896,67.049-11.944,117.359-60.195c4.336-4.156,12.061-2.222,12.061,3.264v90.272L403.003,228.282z"/>
<path style="fill:#ECF0F1;" d="M196.324,212.084h10.268v32.393h-10.268c-1.321,0-2.401-1.079-2.401-2.401v-27.59
	C193.922,213.164,195.002,212.084,196.324,212.084z"/>
<g>
	<path style="fill:#FFFFFF;" d="M206.777,203.583h25.406v49.396h-25.406c-3.27,0-5.944-2.675-5.944-5.945v-37.506
		C200.833,206.258,203.508,203.583,206.777,203.583z"/>
	<path style="fill:#FFFFFF;" d="M297.589,228.282v36.42H239.98c-7.416,0-13.482-6.066-13.482-13.479v-22.941v-22.943
		c0-7.414,6.066-13.478,13.482-13.478h57.608V228.282z"/>
	<path style="fill:#FFFFFF;" d="M409.118,134.686v187.176c0,16.182-17.695,16.182-17.695,0V134.686
		C391.423,118.514,409.118,118.514,409.118,134.686z"/>
</g>
<path style="fill:#ECF0F1;" d="M208.011,206.467h15.658v5.613h-15.658c-1.544,0-2.806-1.261-2.806-2.805v-0.004
	C205.205,207.727,206.467,206.467,208.011,206.467z M208.011,225.474h15.658v5.613h-15.658c-1.544,0-2.806-1.261-2.806-2.805v-0.004
	C205.205,226.734,206.467,225.474,208.011,225.474z M208.011,234.977h15.658v5.614h-15.658c-1.544,0-2.806-1.262-2.806-2.806v-0.004
	C205.205,236.239,206.467,234.977,208.011,234.977z M208.011,244.481h15.658v5.613h-15.658c-1.544,0-2.806-1.261-2.806-2.805v-0.004
	C205.205,245.741,206.467,244.481,208.011,244.481z M208.011,215.97h15.658v5.614h-15.658c-1.544,0-2.806-1.262-2.806-2.806v-0.004
	C205.205,217.231,206.467,215.97,208.011,215.97z"/>
<path style="fill:#FFFFFF;" d="M462.751,252.012l-26.291-8.846l1.114-3.301l26.289,8.85L462.751,252.012L462.751,252.012z
	 M433.95,291.914l-14.767-23.478l-2.947,1.853l14.767,23.478L433.95,291.914z M433.981,278.124l-8.561-13.611l-2.947,1.853
	l8.56,13.611L433.981,278.124z M433.948,168.592l-14.767,23.481l-2.946-1.854l14.767-23.481L433.948,168.592z M433.981,182.381
	l-8.561,13.613l-2.946-1.854l8.561-13.609L433.981,182.381z M461.966,205.053l-26.406,8.495l-1.066-3.314l26.406-8.494
	L461.966,205.053z M453.126,215.639l-15.308,4.924l-1.067-3.315l15.307-4.922L453.126,215.639L453.126,215.639z M449.352,255.279
	l-15.24-5.129l1.11-3.301l15.24,5.132L449.352,255.279z"/>
</svg>