<?xml version="1.0" standalone="no"?>
<!DOCTYPE svg PUBLIC "-//W3C//DTD SVG 20010904//EN"
 "http://www.w3.org/TR/2001/REC-SVG-20010904/DTD/svg10.dtd">
<svg version="1.0" xmlns="http://www.w3.org/2000/svg"
 width="1280.000000pt" height="908.000000pt" viewBox="0 0 1280.000000 908.000000"
 preserveAspectRatio="xMidYMid meet">
<metadata>
Created by potrace 1.15, written by Peter Selinger 2001-2017
</metadata>
<g transform="translate(0.000000,908.000000) scale(0.100000,-0.100000)"
fill="#338c9e" stroke="none">
<path d="M1133 9057 c-11 -12 -23 -33 -26 -47 -4 -14 -1 -130 5 -257 6 -128
10 -235 7 -237 -2 -2 -137 -11 -299 -20 -162 -9 -324 -19 -360 -22 l-65 -6 -1
-366 c-1 -295 -6 -442 -29 -747 -19 -270 -29 -488 -32 -752 -6 -401 -2 -463
25 -463 16 0 17 29 18 357 0 256 7 447 22 668 12 171 27 387 33 480 6 94 12
308 12 478 l1 307 23 0 c30 0 720 38 795 44 34 2 63 -1 72 -7 19 -14 122 -523
160 -787 41 -283 47 -365 56 -765 11 -450 24 -575 61 -575 22 0 24 23 8 105
-5 28 -13 214 -19 415 -13 494 -27 648 -91 1020 -38 221 -106 556 -121 593
-15 40 -36 47 -131 47 l-84 0 -6 93 c-13 185 -20 382 -13 376 13 -12 36 -220
36 -336 l0 -123 27 0 26 0 -6 153 c-7 164 -19 255 -43 329 -20 63 -35 74 -61
45z"/>
<path d="M7555 9004 c-150 -22 -340 -75 -423 -118 -45 -23 -63 -69 -57 -143 3
-32 10 -121 15 -198 6 -77 28 -300 50 -495 48 -438 67 -636 76 -809 7 -125 6
-134 -10 -128 -10 4 -29 10 -42 13 -16 4 -24 13 -24 29 0 63 -35 104 -79 90
-26 -8 -38 12 -43 73 -7 68 -20 82 -193 196 -200 133 -323 200 -338 187 -10
-8 -20 52 -46 292 -42 396 -101 959 -101 974 0 32 -424 8 -444 -26 -2 -3 2
-82 10 -176 20 -256 19 -330 -7 -356 -22 -22 -53 -22 -56 1 -1 8 -5 63 -8 123
l-7 107 -141 0 c-161 0 -356 -15 -405 -31 -67 -22 -67 -8 -22 -601 22 -293 41
-555 42 -583 l3 -49 -175 -22 c-96 -12 -178 -20 -183 -17 -4 2 -5 67 -1 143
l7 139 -34 5 c-42 8 -753 104 -794 108 l-30 3 3 -92 c4 -100 -1 -109 -46 -77
-22 15 -22 19 -22 248 0 128 -3 254 -6 280 -7 46 -7 46 -46 46 -21 0 -55 -7
-75 -15 l-36 -15 4 167 4 167 -131 32 c-149 35 -402 79 -410 71 -4 -3 3 -86
15 -184 11 -98 23 -233 27 -300 l7 -123 -86 0 -87 0 0 -122 c0 -68 3 -214 7
-325 6 -188 8 -203 25 -203 17 0 18 15 18 303 l0 303 85 -4 85 -5 0 54 c0 65
-26 363 -41 473 -5 43 -9 80 -7 81 6 6 227 -34 341 -61 l107 -26 -1 -66 c-1
-37 -4 -98 -8 -137 l-6 -70 -18 76 c-10 42 -23 81 -29 87 -13 13 -87 16 -137
6 l-31 -6 0 -134 c0 -161 -3 -157 138 -158 l92 0 0 -60 c0 -34 12 -187 26
-341 33 -369 42 -735 20 -904 -8 -69 -14 -126 -13 -127 1 -1 11 -4 22 -6 18
-3 21 6 33 87 24 157 20 553 -11 900 -14 165 -29 344 -33 397 l-6 97 33 20
c19 12 43 21 55 21 20 0 21 -6 28 -151 4 -83 4 -192 0 -242 -8 -113 6 -155 59
-180 19 -9 39 -17 45 -17 12 0 27 -775 17 -889 -7 -78 -6 -81 14 -81 12 0 21
1 22 3 13 62 16 254 8 651 -5 269 -7 491 -4 494 2 3 64 -3 137 -12 235 -31
610 -85 613 -88 1 -2 5 -242 8 -534 l5 -532 -697 -5 c-383 -3 -763 -10 -846
-16 -471 -35 -893 -80 -1570 -169 -203 -27 -691 -91 -1082 -143 -631 -83 -713
-95 -713 -111 0 -9 4 -19 8 -22 4 -2 158 15 342 39 184 24 679 89 1100 144
1924 252 2041 258 4303 224 403 -6 437 -8 432 -23 -4 -13 12 -23 77 -49 142
-55 646 -272 664 -286 16 -11 12 -14 -37 -24 -143 -32 -341 -22 -581 30 -131
28 -164 31 -400 36 l-258 6 0 -25 0 -26 273 -5 c210 -3 287 -8 337 -21 256
-66 515 -78 678 -31 30 9 55 15 57 13 2 -2 27 -43 56 -93 29 -49 90 -143 136
-208 l84 -119 -26 -78 -26 -79 -212 -154 c-161 -118 -325 -222 -683 -435 -469
-280 -473 -282 -847 -452 -207 -93 -382 -170 -389 -170 -13 0 -147 52 -842
325 -289 113 -330 124 -313 83 2 -7 65 -36 138 -65 74 -28 388 -151 699 -273
2237 -878 2371 -928 3450 -1307 666 -233 710 -249 940 -333 626 -229 1070
-413 1665 -690 770 -359 1063 -482 1433 -600 88 -28 166 -57 172 -65 7 -9 10
-27 7 -43 -3 -15 -2 -34 3 -42 7 -12 12 -11 29 4 34 31 22 98 -22 126 -12 7
-120 46 -239 86 -373 126 -599 221 -1333 562 -225 104 -480 220 -565 257 -85
37 -156 68 -158 70 -2 2 158 410 356 907 198 496 495 1243 661 1659 l301 756
0 131 c0 139 -9 186 -37 180 -14 -3 -16 -24 -19 -168 l-2 -165 -107 -225 c-59
-124 -216 -459 -350 -745 -433 -929 -1037 -2210 -1046 -2219 -5 -5 -30 -1 -61
12 -473 185 -801 305 -1473 540 -732 257 -978 345 -1390 500 -220 83 -793 304
-993 383 l-83 32 48 27 c26 15 136 76 243 135 376 208 689 404 860 539 98 78
288 269 374 376 85 107 217 303 257 383 61 120 27 216 -131 378 -47 47 -121
110 -165 139 -148 96 -559 287 -1035 481 -124 50 -143 63 -80 55 25 -3 50 -5
56 -5 7 -1 11 -8 10 -17 0 -10 14 -22 38 -31 32 -14 39 -14 47 -2 13 21 11 25
-13 37 -23 10 -23 11 4 11 15 1 83 -21 150 -48 68 -27 179 -67 248 -89 69 -21
242 -85 385 -142 143 -56 390 -151 549 -211 182 -68 310 -122 345 -145 111
-74 190 -176 297 -382 l59 -113 -1 -142 c0 -117 -5 -162 -27 -256 -21 -89 -24
-117 -14 -123 22 -14 31 -2 49 68 31 123 51 283 45 374 -5 79 -9 93 -66 205
-33 66 -80 149 -103 185 -57 88 -180 208 -253 247 -33 17 -190 79 -348 138
-158 59 -286 110 -283 112 3 3 58 -14 123 -37 65 -24 172 -61 238 -82 150 -49
261 -102 345 -165 36 -27 116 -85 178 -128 120 -83 160 -125 190 -196 39 -91
77 -297 106 -572 8 -76 17 -141 21 -145 3 -4 29 -9 58 -12 51 -5 51 -5 60 -46
7 -36 13 -43 47 -57 23 -9 42 -11 46 -6 3 5 10 7 15 3 13 -8 1719 998 1719
1014 0 6 5 12 10 12 20 0 11 65 -12 85 -21 17 -56 21 -323 37 -165 9 -462 22
-660 27 -314 9 -433 18 -935 67 -412 41 -575 54 -578 45 -6 -17 -33 -13 -80 9
-85 41 -605 213 -837 277 -132 36 -285 83 -340 105 -55 22 -116 42 -135 43
-19 2 -55 12 -80 23 l-45 21 68 0 c315 4 2242 -35 2702 -54 1266 -52 2295
-175 3117 -374 65 -15 120 -26 123 -23 3 3 5 13 5 23 0 14 -24 23 -127 48
-625 148 -1445 266 -2269 326 l-91 7 -6 261 c-3 144 -12 325 -21 402 -32 289
-109 669 -137 686 -28 15 -233 32 -302 25 -60 -7 -67 -10 -67 -29 0 -22 3 -22
153 -22 95 -1 160 -5 173 -12 22 -13 42 -88 83 -308 50 -270 91 -772 76 -927
l-7 -68 -52 0 c-28 0 -121 4 -206 10 -382 23 -1042 44 -1735 55 -667 10 -998
15 -1325 20 -179 3 -651 10 -1050 16 -399 6 -726 12 -728 14 -8 7 -22 758 -15
765 9 8 355 52 361 45 4 -3 61 -723 62 -773 0 -18 5 -23 23 -20 19 3 22 8 20
43 -1 22 -35 473 -74 1003 -63 833 -70 965 -58 977 18 19 163 34 354 37 l150
3 5 -107 c7 -122 15 -138 72 -138 46 0 92 38 104 86 4 16 0 128 -9 249 -9 120
-14 221 -12 223 2 2 45 10 97 18 119 18 247 19 253 2 2 -7 16 -130 30 -273 22
-216 188 -1725 226 -2057 11 -94 13 -98 36 -98 23 0 24 3 18 43 -14 109 -125
1090 -125 1113 0 18 182 -86 350 -200 117 -80 135 -96 138 -122 9 -102 29
-134 86 -134 34 0 35 0 41 -54 7 -52 9 -55 39 -61 17 -3 44 -11 60 -17 l29
-12 -7 -215 c-3 -119 -9 -239 -12 -267 -5 -43 -3 -52 11 -58 10 -3 20 -4 23
-2 10 11 22 163 28 361 9 296 -7 538 -81 1185 -29 255 -51 493 -61 646 l-6
111 26 20 c35 28 228 89 340 108 97 16 382 21 405 6 14 -9 23 -120 78 -951 l8
-115 28 -3 c15 -2 49 3 76 11 l49 14 6 -136 c4 -75 9 -168 12 -207 l6 -71 69
-6 c38 -3 73 -8 77 -11 5 -3 12 -128 15 -278 11 -425 24 -608 46 -638 17 -24
61 -40 61 -23 0 5 -7 19 -16 32 -18 25 -32 170 -33 333 l-1 86 38 6 c20 3 65
8 100 12 l63 6 -7 747 c-4 411 -4 759 0 774 5 23 17 30 91 52 114 35 260 62
378 71 l97 7 1 -49 c0 -27 8 -80 17 -119 l17 -70 83 -3 82 -3 0 -82 c0 -45 7
-121 16 -170 l16 -87 33 6 c59 11 62 0 106 -438 21 -216 37 -399 34 -405 -2
-7 -11 -13 -18 -13 -22 0 -49 -37 -49 -67 0 -31 42 -73 73 -73 10 0 19 -3 19
-8 0 -4 11 -149 25 -322 14 -173 25 -319 25 -323 0 -5 10 -7 22 -5 20 3 22 8
20 48 -10 155 -53 689 -57 710 -3 14 -23 207 -45 430 -22 223 -44 421 -50 441
-11 41 -32 62 -75 76 -38 12 -46 51 -48 216 l-2 117 -87 0 -86 0 -10 48 c-6
26 -14 80 -18 120 l-7 74 -96 -7 c-205 -14 -463 -70 -521 -113 l-25 -19 -3
-760 -2 -760 -62 -7 c-109 -11 -98 -29 -98 162 0 92 -3 197 -6 234 l-7 66 -41
11 c-22 5 -57 13 -77 16 l-36 5 -7 148 c-3 81 -9 179 -12 218 l-6 71 -57 -23
c-31 -13 -63 -24 -73 -24 -21 0 -21 1 -58 565 -17 248 -33 458 -36 468 -11 34
-45 41 -204 43 -85 1 -168 0 -185 -2z m-3794 -842 c22 -86 24 -105 12 -109
-17 -7 -121 1 -129 10 -4 3 -3 49 1 101 6 86 9 95 28 99 57 12 61 8 88 -101z
m5807 -984 c15 -15 -3 -38 -29 -38 -24 0 -33 18 -19 35 15 18 32 19 48 3z
m-2375 -1209 c165 -83 213 -115 309 -206 88 -84 152 -173 169 -235 13 -52 3
-80 -70 -201 -176 -289 -433 -565 -701 -753 -189 -133 -615 -387 -914 -544
l-136 -72 -76 28 c-41 15 -71 31 -67 35 5 5 194 134 422 288 l412 279 207 197
c286 271 519 517 546 574 18 39 20 63 19 168 l-1 123 -80 112 c-64 92 -119
176 -169 261 -8 14 10 6 130 -54z m1577 -110 c293 -29 487 -43 700 -49 399
-12 946 -40 995 -50 73 -15 -181 -11 -635 10 -646 29 -970 52 -1332 95 -37 4
-48 2 -48 -8 0 -8 -7 -14 -15 -14 -8 0 -15 4 -15 7 0 4 -27 18 -60 30 -33 12
-60 24 -60 26 0 1 15 1 33 -2 17 -2 214 -23 437 -45z m-440 -17 c79 -29 74
-24 313 -292 45 -49 49 -52 65 -37 15 16 14 19 -9 44 -129 141 -229 256 -226
259 2 2 118 -7 258 -21 316 -32 597 -50 1179 -75 250 -11 462 -20 470 -20 8 0
-333 -187 -759 -415 -425 -229 -775 -415 -776 -413 -10 12 -39 187 -60 363
-14 116 -28 220 -31 233 -5 27 -44 31 -44 5 1 -52 61 -498 76 -558 31 -128
-47 -157 803 300 1044 561 981 528 981 512 0 -9 -348 -220 -851 -517 -821
-484 -852 -501 -880 -490 -23 10 -29 19 -29 42 0 40 -17 54 -73 62 -45 7 -47
9 -47 39 -1 18 -7 115 -14 217 -11 154 -20 210 -52 335 l-38 150 -120 122
c-65 67 -136 129 -156 138 -21 9 -50 26 -66 37 -34 23 -22 20 86 -20z m-1071
-440 c-10 -39 -35 -71 -138 -181 -69 -73 -234 -238 -367 -365 l-240 -231 -422
-285 c-327 -220 -421 -288 -417 -301 4 -13 -39 1 -177 55 -101 40 -218 85
-260 101 -43 16 -78 32 -78 35 0 4 162 80 360 169 356 161 364 166 838 449
363 217 529 323 685 437 113 83 204 152 202 154 -2 2 2 9 8 16 18 20 21 -1 6
-53z m3577 -1193 c-139 -349 -360 -903 -491 -1231 -130 -329 -242 -598 -249
-598 -8 0 -127 46 -144 55 -1 1 204 440 456 976 252 536 507 1079 567 1207 59
128 110 231 111 229 2 -2 -110 -289 -250 -638z"/>
<path d="M2594 8925 c-15 -24 -16 -35 -3 -133 19 -146 18 -259 -4 -299 -22
-42 -42 -47 -339 -98 -54 -9 -101 -22 -105 -28 -4 -7 -8 -296 -8 -644 0 -347
-4 -635 -8 -640 -5 -4 -123 -10 -263 -12 l-254 -3 0 -26 0 -25 256 6 c141 4
264 12 274 17 11 6 25 20 32 33 15 28 22 691 11 1025 -4 129 -5 236 -2 238 4
2 64 13 135 24 200 33 260 48 287 76 49 49 55 127 31 407 -6 66 4 89 22 50 4
-10 11 -223 15 -473 7 -473 10 -532 60 -1020 45 -445 67 -682 75 -813 5 -88
11 -120 21 -124 8 -3 19 -1 24 4 13 13 -3 231 -61 808 -66 663 -72 749 -75
1205 -1 217 -6 404 -10 415 -23 59 -82 75 -111 30z"/>
<path d="M10285 8543 c-104 -12 -242 -37 -252 -45 -13 -10 -29 -97 -39 -208
l-6 -75 -172 7 c-94 4 -212 12 -263 18 -135 15 -153 14 -153 -9 0 -16 9 -21
43 -26 108 -15 247 -25 413 -31 l181 -7 6 109 c8 137 16 181 33 188 8 3 67 13
131 22 111 16 457 24 470 11 13 -13 53 -248 53 -312 0 -19 2 -35 5 -35 2 0 30
13 62 29 78 39 162 62 253 70 l75 6 25 108 c18 79 31 112 44 119 11 6 61 13
112 16 91 5 93 4 99 -19 3 -13 16 -80 29 -147 14 -68 26 -126 29 -128 2 -2 34
-8 70 -12 37 -5 70 -12 74 -16 5 -4 8 -179 8 -389 -1 -334 -9 -547 -31 -774
l-6 -63 -148 0 c-115 0 -152 -3 -163 -14 -9 -9 -17 -48 -21 -103 -7 -89 -41
-402 -52 -480 -6 -41 -5 -43 18 -43 23 0 26 5 31 53 17 161 48 449 53 495 l5
52 199 0 199 0 10 -52 c28 -134 42 -267 48 -430 l6 -178 24 0 c22 0 23 3 23
79 0 162 -26 403 -62 569 l-11 52 -55 0 -55 0 6 93 c4 50 12 169 19 262 18
247 17 903 -1 914 -7 5 -44 12 -82 15 -60 6 -70 10 -74 29 -3 12 -16 77 -30
145 -14 68 -28 128 -31 134 -9 13 -179 5 -246 -12 -53 -14 -50 -7 -83 -156
l-16 -71 -79 -11 c-44 -6 -114 -23 -156 -37 -42 -14 -78 -24 -79 -23 -1 2 -7
39 -13 84 -6 45 -18 113 -27 151 l-16 70 -61 7 c-62 6 -319 6 -373 -1z"/>
<path d="M5487 8383 c-11 -3 -16 -10 -13 -20 3 -8 6 -17 6 -19 0 -2 27 -4 60
-4 67 0 80 -12 80 -72 0 -43 -15 -58 -56 -58 -47 0 -94 42 -94 85 0 30 -13 45
-41 45 -14 0 -11 -56 5 -94 50 -119 236 -106 236 17 0 50 -21 97 -50 112 -28
14 -94 18 -133 8z"/>
<path d="M970 8325 c0 -24 2 -25 70 -25 l69 0 21 -72 c12 -40 25 -86 31 -102
6 -21 6 -32 -2 -37 -13 -8 -170 -29 -217 -29 l-32 0 0 116 c0 114 0 115 -22
112 -22 -3 -23 -7 -26 -124 -2 -111 -1 -122 18 -139 21 -19 25 -19 161 -2 157
20 165 22 173 44 7 18 -49 228 -70 261 -13 20 -22 22 -94 22 -79 0 -80 0 -80
-25z"/>
<path d="M8928 8297 c-24 -9 -27 -16 -33 -81 -10 -100 -5 -126 28 -150 20 -15
46 -21 95 -24 124 -6 141 25 100 180 l-23 88 -70 -1 c-38 -1 -82 -6 -97 -12z
m146 -89 c8 -29 16 -66 18 -82 3 -26 -1 -31 -29 -37 -32 -6 -108 3 -120 15 -7
7 -4 136 3 148 3 4 29 8 59 8 l54 0 15 -52z"/>
<path d="M607 8293 c-4 -3 -7 -15 -7 -25 0 -16 7 -18 56 -17 39 2 59 -2 65
-12 10 -16 12 -149 3 -173 -5 -12 -20 -16 -64 -16 -91 0 -90 -1 -90 101 l0 89
-26 0 -26 0 4 -94 c5 -129 12 -136 128 -136 117 0 120 4 120 142 0 96 -2 106
-23 126 -18 17 -36 22 -78 22 -31 0 -59 -3 -62 -7z"/>
<path d="M7410 8280 c0 -13 -8 -24 -20 -27 -17 -4 -19 -11 -13 -52 16 -127 15
-125 56 -135 79 -20 125 28 97 102 -8 20 -16 57 -19 82 l-6 45 -47 3 c-43 3
-48 1 -48 -18z m83 -162 c-2 -5 -17 -8 -34 -8 -27 0 -29 2 -29 39 0 22 -3 47
-7 57 -5 13 -3 16 10 11 13 -5 17 -1 18 16 0 12 11 -7 23 -43 13 -36 21 -68
19 -72z"/>
<path d="M12062 8280 c-104 -11 -136 -46 -153 -164 -57 -407 -64 -1195 -14
-1711 20 -207 22 -215 45 -215 24 0 24 3 5 191 -52 518 -52 1148 0 1634 16
148 28 190 59 208 29 16 363 22 469 8 115 -16 221 -49 249 -78 23 -24 23 -27
26 -325 5 -481 -35 -909 -153 -1623 -13 -82 -23 -150 -22 -151 1 -1 11 -4 22
-6 18 -3 22 10 47 157 112 668 152 1084 153 1575 0 383 -1 390 -67 430 -103
63 -418 96 -666 70z"/>
<path d="M10359 8203 c-12 -3 -19 -21 -23 -66 -11 -97 -1 -107 101 -107 l52 0
3 85 c3 77 1 84 -17 89 -23 6 -92 6 -116 -1z m69 -39 c18 -5 22 -13 22 -45 0
-38 -1 -39 -35 -39 -34 0 -35 1 -35 38 0 52 5 57 48 46z"/>
<path d="M2525 8155 c-5 -2 -22 -6 -37 -9 -20 -5 -25 -10 -21 -26 5 -19 11
-20 51 -14 l45 7 -7 -59 c-6 -56 -27 -104 -44 -104 -5 0 -17 6 -28 14 -15 11
-20 30 -24 88 -5 66 -7 73 -27 76 -22 3 -23 0 -23 -57 0 -104 36 -161 101
-161 28 0 42 6 57 25 21 27 46 144 40 192 -3 24 -8 28 -38 30 -19 1 -39 0 -45
-2z"/>
<path d="M12047 7889 c-7 -90 0 -115 39 -129 36 -14 168 -12 182 2 8 8 12 47
12 110 l0 98 -75 0 c-73 0 -75 -1 -75 -25 0 -23 3 -25 50 -25 l50 0 0 -66 0
-67 -61 7 c-33 3 -65 9 -71 12 -7 5 -9 35 -5 85 6 78 6 79 -17 79 -22 0 -23
-5 -29 -81z"/>
<path d="M1130 7951 c0 -29 14 -41 50 -41 l37 0 17 -107 c25 -168 31 -156 -68
-152 -46 2 -87 7 -90 10 -3 3 -6 60 -7 127 l-1 122 -24 0 c-24 0 -24 -1 -24
-102 0 -140 7 -173 37 -187 35 -16 125 -25 178 -17 67 10 72 28 51 168 -22
145 -31 174 -59 182 -34 9 -97 7 -97 -3z"/>
<path d="M690 7885 c0 -28 5 -30 92 -30 58 0 91 -4 100 -13 9 -8 14 -49 16
-117 l4 -105 -52 0 c-64 0 -191 19 -206 31 -6 5 -16 48 -23 96 -7 49 -15 96
-17 106 -7 22 -44 23 -44 1 0 -50 34 -221 47 -236 18 -20 110 -37 244 -45 l99
-6 -1 94 c0 136 -11 188 -43 216 -24 21 -37 23 -122 23 -77 0 -94 -3 -94 -15z"/>
<path d="M2493 7783 c-30 -4 -32 -7 -39 -60 -9 -75 0 -150 37 -307 17 -72 34
-162 38 -201 5 -64 8 -70 30 -73 24 -4 24 -3 18 65 -3 37 -20 127 -37 198 -21
83 -34 167 -37 233 l-6 102 36 0 c23 0 37 -5 41 -17 13 -32 35 -270 42 -441
l7 -174 -44 4 c-38 3 -44 0 -47 -18 -3 -19 3 -22 50 -27 43 -5 56 -3 71 11 17
17 17 31 7 233 -11 218 -23 345 -41 431 l-11 48 -41 -2 c-23 0 -56 -3 -74 -5z"/>
<path d="M3400 7607 c0 -130 1 -131 190 -135 l152 -3 -25 43 c-14 24 -31 66
-38 93 -20 86 -20 85 -109 85 -73 0 -80 -2 -80 -20 0 -18 7 -20 64 -20 l65 0
15 -55 c9 -30 19 -61 22 -70 5 -12 -3 -15 -47 -14 -30 0 -76 4 -104 7 l-50 7
-5 80 c-5 74 -7 80 -27 83 -22 3 -23 1 -23 -81z"/>
<path d="M11310 7620 c0 -17 7 -20 49 -20 l48 0 6 -77 c3 -43 10 -90 17 -105
23 -49 9 -59 -77 -56 l-78 3 4 113 c3 105 2 112 -17 112 -17 0 -20 -10 -25
-87 -4 -49 -9 -109 -13 -134 l-6 -46 95 -8 c100 -7 130 -3 160 23 21 19 22 48
2 95 -9 23 -15 68 -15 122 l0 85 -75 0 c-68 0 -75 -2 -75 -20z"/>
<path d="M5985 7616 c-100 -43 -123 -174 -42 -242 25 -21 38 -25 69 -21 20 3
38 1 40 -4 2 -5 13 -6 24 -3 25 6 26 -5 -18 167 -17 64 -33 117 -37 117 -3 -1
-20 -7 -36 -14z m34 -131 c11 -46 21 -86 21 -89 0 -2 -17 0 -37 5 -44 9 -63
32 -63 73 0 32 33 96 49 96 5 0 18 -38 30 -85z"/>
<path d="M6083 7603 c-9 -7 -7 -32 10 -108 l22 -98 46 -4 c68 -6 85 18 81 110
-1 43 -8 77 -16 85 -16 16 -125 27 -143 15z m113 -99 c6 -49 4 -58 -15 -75
-24 -23 -24 -23 -40 59 -15 72 -15 72 18 72 28 0 30 -2 37 -56z"/>
<path d="M9677 7569 c-13 -8 -17 -18 -13 -37 3 -15 10 -53 16 -84 l11 -58 53
0 c28 0 57 5 64 12 7 7 12 39 12 75 0 61 -1 63 -25 63 -23 0 -25 -3 -25 -50 0
-43 -3 -50 -20 -50 -26 0 -43 67 -29 119 5 19 -20 24 -44 10z"/>
<path d="M4245 7548 l40 -23 -6 -85 c-4 -47 -5 -88 -3 -92 6 -9 98 -28 138
-28 49 0 59 18 52 97 -4 37 -7 82 -8 100 -2 36 1 35 -178 48 l-75 5 40 -22z
m164 -72 c8 -8 15 -34 15 -58 l1 -43 -40 -3 c-61 -4 -67 5 -59 75 l6 61 31 -9
c17 -5 38 -15 46 -23z"/>
<path d="M12230 7542 c0 -13 12 -22 39 -31 40 -12 59 -37 42 -54 -6 -6 -30
-11 -53 -11 l-43 -1 -3 43 c-3 33 -7 42 -22 42 -14 0 -21 -9 -25 -37 -3 -21
-8 -48 -10 -59 -6 -27 15 -34 101 -34 76 0 107 20 107 70 0 45 -49 90 -98 90
-27 0 -35 -4 -35 -18z"/>
<path d="M5638 7533 c-25 -30 -28 -50 -12 -104 12 -39 13 -58 5 -76 l-11 -23
105 0 105 0 0 63 c0 35 -7 84 -16 110 l-16 47 -72 0 c-57 0 -76 -4 -88 -17z
m109 -29 c23 -6 43 -54 43 -101 0 -21 -5 -23 -49 -23 l-50 0 -18 56 c-15 48
-15 57 -3 65 17 10 45 11 77 3z"/>
<path d="M1187 7526 c-57 -16 -61 -19 -52 -45 6 -19 8 -19 47 -5 82 29 139 12
175 -53 22 -39 43 -138 43 -204 0 -33 -3 -37 -31 -43 -70 -14 -199 0 -213 22
-3 5 -10 65 -17 135 -12 124 -13 127 -36 127 -27 0 -26 7 -3 -199 11 -97 31
-118 121 -131 84 -12 182 0 210 26 19 17 20 25 14 93 -13 142 -48 226 -108
266 -33 21 -96 26 -150 11z"/>
<path d="M675 7521 c-48 -20 -59 -47 -57 -139 1 -48 5 -120 8 -161 6 -72 7
-73 43 -89 26 -11 72 -16 171 -16 l135 -1 12 26 c8 16 14 80 15 167 l3 140
-28 30 c-17 17 -48 35 -72 41 -50 13 -200 14 -230 2z m245 -56 c17 -9 33 -27
36 -42 7 -28 -3 -249 -12 -264 -3 -5 -24 -9 -47 -9 -58 0 -211 20 -218 28 -4
4 -9 71 -13 149 -7 165 -19 150 127 152 70 1 106 -3 127 -14z"/>
<path d="M7810 7495 c0 -24 3 -25 60 -25 l60 0 0 -65 0 -65 -70 0 -70 0 0 60
c0 57 -1 60 -25 60 -24 0 -25 -2 -25 -65 0 -96 12 -105 140 -105 l100 0 0 78
c0 42 -3 94 -6 115 l-7 37 -78 0 c-78 0 -79 0 -79 -25z"/>
<path d="M4640 7496 c0 -8 9 -21 20 -29 22 -15 36 -84 22 -106 -5 -7 -30 -15
-55 -18 l-45 -5 -7 76 c-6 65 -10 76 -26 76 -17 0 -19 -8 -19 -83 0 -51 5 -88
12 -95 7 -7 39 -12 74 -12 89 0 114 22 114 99 0 44 -5 65 -21 85 -22 28 -69
36 -69 12z"/>
<path d="M8890 7390 c0 -17 8 -19 73 -22 l72 -3 3 -86 3 -87 -53 -6 c-29 -3
-81 -9 -115 -12 l-63 -7 0 97 c0 89 -1 96 -20 96 -19 0 -20 -7 -20 -110 0 -94
2 -111 18 -118 16 -8 181 0 250 13 43 8 52 33 52 138 0 132 4 127 -106 127
-87 0 -94 -2 -94 -20z"/>
<path d="M6015 7228 c-33 -17 -45 -40 -45 -80 0 -51 21 -100 55 -126 28 -22
79 -30 89 -13 12 19 -7 41 -35 41 -35 0 -59 32 -61 82 -1 44 7 58 37 58 26 0
31 -12 38 -80 2 -27 8 -36 25 -38 19 -3 22 1 22 34 0 60 -21 115 -48 125 -30
12 -52 11 -77 -3z"/>
<path d="M4368 7224 c-3 -3 -4 -13 -1 -23 3 -13 15 -17 53 -17 33 0 56 -6 69
-18 28 -25 44 -81 36 -123 -6 -34 -7 -35 -43 -29 -20 3 -61 6 -89 6 l-53 0 0
80 c0 73 -2 80 -20 80 -19 0 -20 -7 -20 -99 l0 -100 43 -5 c97 -13 217 -11
222 2 3 8 5 43 5 79 0 117 -47 173 -146 173 -28 0 -53 -3 -56 -6z"/>
<path d="M10341 7128 c-27 -154 -32 -204 -38 -373 -3 -99 -3 -211 1 -248 7
-57 10 -67 27 -67 18 0 19 10 19 213 0 204 8 322 31 435 l10 52 270 0 269 0
-1 -82 c0 -46 -8 -222 -17 -393 -16 -300 -16 -310 1 -313 10 -2 21 -2 23 1 5
5 44 698 44 785 l0 52 -314 0 -314 0 -11 -62z"/>
<path d="M2820 7151 c0 -24 -1 -24 424 -51 176 -11 322 -23 325 -26 3 -3 5
-122 4 -265 -3 -247 -2 -259 16 -259 11 0 21 9 25 23 3 12 6 140 6 284 l0 262
-42 5 c-53 7 -669 46 -720 46 -31 0 -38 -4 -38 -19z"/>
<path d="M12370 7115 c0 -23 3 -25 50 -25 34 0 50 -4 50 -12 -1 -32 -29 -208
-35 -218 -6 -10 -105 -14 -140 -4 -19 5 -20 12 -17 125 l3 121 -23 -4 c-21 -3
-23 -8 -23 -58 -1 -30 -2 -93 -4 -140 l-4 -85 126 -3 c70 -1 127 -1 127 0 0 2
9 66 20 143 29 203 34 185 -55 185 -73 0 -75 -1 -75 -25z"/>
<path d="M10532 7077 c-39 -7 -52 -14 -47 -24 3 -8 5 -18 5 -23 0 -4 18 -6 41
-3 l40 6 -7 -64 c-10 -97 -16 -107 -68 -114 -24 -4 -49 -4 -55 0 -7 4 -11 44
-11 101 0 87 -1 94 -20 94 -19 0 -20 -7 -20 -108 0 -71 4 -112 12 -120 15 -15
114 -16 156 -1 21 7 32 19 36 37 7 34 26 191 26 214 0 20 -9 20 -88 5z"/>
<path d="M2340 6967 l0 -27 129 0 c143 0 161 -7 161 -61 0 -32 0 -32 -110 -49
-74 -11 -153 -13 -199 -4 -31 6 -31 7 -31 66 0 56 -1 59 -22 56 -22 -3 -23 -8
-23 -77 0 -74 0 -75 30 -83 43 -13 209 -12 285 1 121 21 110 12 110 94 0 39
-4 78 -8 84 -5 9 -58 15 -165 19 l-157 7 0 -26z"/>
<path d="M1973 6955 c-102 -8 -196 -19 -213 -27 l-31 -13 7 -65 c3 -36 7 -66
9 -68 5 -6 396 -44 402 -39 3 4 12 41 19 84 7 43 16 93 19 111 5 27 3 32 -12
31 -10 -1 -100 -7 -200 -14z m152 -92 c-4 -32 -10 -62 -15 -67 -4 -4 -75 -1
-157 8 -81 9 -154 16 -160 16 -8 0 -13 14 -13 35 0 20 6 38 13 40 6 2 80 8
162 13 83 5 156 10 164 10 10 2 12 -10 6 -55z"/>
<path d="M4650 6936 c-3 -3 -73 -15 -155 -26 -89 -13 -156 -28 -165 -36 -17
-16 -16 -120 1 -141 8 -9 37 -13 89 -13 87 0 90 2 90 88 0 35 -3 42 -19 42
-15 0 -20 -10 -25 -45 l-7 -45 -50 0 -49 0 0 40 c0 44 -6 41 111 59 36 6 80
11 97 11 l32 0 0 -59 c0 -40 5 -65 15 -75 17 -17 84 -29 135 -24 l35 3 0 87
c0 76 -3 90 -21 109 -21 20 -102 38 -114 25z m88 -119 l3 -69 -33 7 c-69 14
-68 13 -68 69 0 29 3 56 7 60 4 4 25 6 48 4 l40 -3 3 -68z"/>
<path d="M6000 6875 c-9 -11 -7 -31 9 -96 12 -46 21 -102 21 -125 0 -34 4 -43
21 -47 12 -3 22 0 25 8 7 16 -12 153 -26 189 -16 43 -13 46 44 46 37 0 56 -4
59 -14 3 -8 13 -65 22 -128 25 -174 24 -172 44 -109 16 51 16 58 -1 150 -28
147 -22 141 -122 141 -61 0 -87 -4 -96 -15z"/>
<path d="M1197 6850 c-71 -62 -100 -181 -95 -390 3 -131 4 -135 26 -138 l22
-3 0 163 c0 180 12 244 55 310 19 29 32 38 48 36 39 -5 63 -112 83 -370 5 -70
8 -78 26 -78 21 0 21 3 15 128 -7 132 -29 268 -53 314 -16 31 -51 58 -76 58
-9 0 -33 -13 -51 -30z"/>
<path d="M11460 6775 c0 -22 4 -25 38 -25 l38 0 12 -62 c7 -35 8 -66 3 -71 -5
-5 -36 -11 -70 -14 l-61 -6 0 87 c0 79 -2 86 -20 86 -19 0 -20 -7 -20 -99 0
-120 5 -127 88 -118 61 7 152 34 152 46 0 4 -7 27 -15 52 -8 24 -16 67 -18 94
l-4 50 -61 3 c-61 3 -62 2 -62 -23z"/>
<path d="M11568 6519 c-10 -5 -15 -16 -12 -24 4 -9 0 -15 -9 -15 -21 0 -35
-118 -16 -132 15 -10 130 -5 148 6 6 4 11 32 11 62 0 54 -12 92 -34 106 -16
11 -68 9 -88 -3z m70 -82 l3 -47 -35 0 c-35 0 -36 1 -36 40 0 33 4 42 23 50
35 14 42 7 45 -43z"/>
<path d="M6626 6323 c-4 -9 -3 -20 1 -24 16 -15 166 -70 180 -65 33 13 8 36
-77 70 -50 20 -92 36 -94 36 -2 0 -7 -8 -10 -17z"/>
<path d="M4223 6317 c-2 -4 -8 -5 -12 -2 -5 2 -19 -7 -31 -20 -13 -14 -19 -25
-14 -25 5 0 3 -4 -5 -9 -11 -7 -11 -30 -1 -135 7 -70 9 -130 6 -133 -3 -3
-768 -9 -1700 -13 -932 -4 -1699 -11 -1705 -15 -7 -4 -22 0 -35 8 -28 18 -46
6 -46 -30 0 -13 -5 -23 -11 -23 -30 0 17 -145 100 -305 23 -44 40 -87 39 -95
-2 -11 -85 -33 -318 -85 -293 -66 -315 -72 -318 -93 -2 -12 2 -22 8 -22 12 0
582 127 613 136 13 4 17 0 17 -18 0 -13 6 -33 14 -44 10 -12 11 -23 5 -31 -7
-7 -6 -14 1 -18 7 -4 8 -11 1 -18 -7 -9 307 -290 1091 -977 604 -531 1108
-972 1118 -980 18 -14 15 -20 -45 -119 -68 -110 -143 -271 -171 -367 -20 -69
-10 -124 32 -179 19 -26 22 -34 10 -38 -10 -4 -12 -15 -5 -49 4 -24 8 -95 9
-158 0 -124 12 -185 54 -276 46 -100 204 -368 283 -481 104 -148 143 -206 139
-210 -2 -2 -29 12 -61 32 -33 19 -84 44 -114 55 -149 54 -141 50 -141 80 0 45
-42 85 -119 115 -37 14 -78 37 -91 50 -33 36 -91 53 -215 64 -60 6 -132 17
-160 25 -55 17 -52 18 -57 -8 -5 -28 89 -55 231 -65 105 -8 117 -11 155 -40
22 -17 61 -40 86 -51 155 -70 159 -87 49 -212 -66 -74 -78 -78 -149 -53 -23 8
-57 15 -75 15 -31 0 -33 2 -39 51 -8 56 -50 198 -72 242 -14 26 -38 36 -48 18
-3 -4 8 -45 24 -89 49 -135 61 -206 70 -402 8 -198 6 -191 84 -375 19 -44 25
-77 25 -125 -1 -76 -12 -112 -56 -174 -43 -61 -93 -92 -185 -115 -103 -25
-136 -48 -220 -148 -79 -95 -140 -133 -216 -133 -54 0 -107 22 -122 50 -23 43
-91 284 -105 374 -8 50 -15 135 -15 188 0 70 -5 111 -18 145 -21 56 -111 183
-129 183 -21 0 -25 -20 -9 -46 16 -23 16 -25 -11 -35 -15 -5 -43 -26 -61 -46
l-33 -36 -72 7 c-39 4 -75 10 -79 14 -9 9 38 273 57 318 13 31 36 50 135 107
73 43 112 80 104 100 -9 24 -15 22 -70 -22 -27 -21 -71 -50 -99 -64 -101 -51
-118 -82 -151 -266 -13 -75 -27 -146 -29 -159 -4 -15 2 -30 19 -47 17 -17 21
-25 11 -25 -10 0 -15 -11 -15 -33 0 -19 -11 -71 -25 -116 -39 -132 -58 -328
-35 -371 5 -10 25 -24 44 -30 63 -20 149 17 181 80 21 41 19 71 -10 110 -14
19 -25 38 -25 42 0 5 30 78 66 164 48 114 63 158 55 168 -13 15 19 49 62 65
25 10 29 8 54 -30 25 -38 28 -52 35 -188 9 -166 25 -257 74 -420 45 -146 65
-184 108 -205 18 -9 39 -16 45 -16 6 0 16 -10 22 -22 24 -48 51 -68 90 -68 36
0 38 -2 54 -49 20 -60 37 -78 55 -56 11 13 10 22 -3 51 -10 19 -17 40 -17 47
0 7 42 26 93 43 51 17 100 34 111 39 17 7 18 3 15 -56 -4 -60 -3 -64 19 -67
21 -3 22 0 24 60 1 35 1 74 0 87 -1 13 6 37 14 52 37 72 40 199 4 199 -14 0
-18 -12 -22 -72 -7 -106 -28 -141 -100 -172 -120 -52 -269 -74 -281 -42 -4 10
2 17 16 21 99 26 102 28 212 142 131 134 153 145 285 136 l82 -6 -7 -56 c-3
-31 -19 -119 -34 -196 -28 -138 -27 -154 5 -155 10 0 62 242 80 371 5 41 9 47
40 58 71 26 89 83 59 191 -9 30 -20 92 -25 137 -7 63 -20 108 -56 190 -49 113
-49 112 -58 330 l-4 103 33 0 c18 0 50 -7 71 -16 25 -10 51 -14 76 -10 32 5
45 2 72 -19 57 -44 180 -94 272 -111 49 -9 109 -21 134 -28 l45 -12 6 -54 c7
-64 26 -104 66 -142 33 -32 101 -58 149 -58 36 0 31 -6 140 167 11 17 13 16
34 -9 41 -53 120 -20 120 50 0 46 -11 64 -150 242 -171 219 -224 307 -327 548
-37 88 -45 117 -44 165 1 67 15 125 43 180 19 37 19 39 1 52 -15 12 -20 12
-30 -2 -18 -23 -53 -119 -53 -143 0 -35 -17 -22 -36 28 -35 93 -12 233 41 246
32 8 72 85 91 175 18 87 18 91 -9 91 -20 0 -24 -7 -34 -63 -14 -84 -47 -157
-69 -157 -27 0 -284 80 -329 102 -74 37 -115 89 -115 147 0 47 25 114 100 266
83 169 151 273 279 425 53 63 116 141 140 173 23 32 44 57 46 55 2 -2 -1 -23
-5 -48 -24 -122 -6 -181 72 -237 120 -86 222 -117 383 -118 102 0 130 4 186
24 84 30 147 76 187 137 85 127 64 256 -64 393 -39 42 -62 60 -73 56 -14 -4
-16 1 -13 30 4 33 6 35 41 35 20 0 72 9 116 20 44 11 101 20 126 20 59 0 113
-34 117 -73 2 -18 13 -32 31 -41 27 -15 51 -70 67 -159 7 -40 -3 -127 -14
-127 -4 0 -23 26 -41 58 -19 31 -59 94 -89 140 -44 68 -56 81 -68 71 -8 -6
-14 -15 -14 -20 0 -4 30 -54 67 -111 64 -99 173 -300 173 -320 0 -6 -7 -8 -15
-4 -9 3 -49 -29 -112 -93 -175 -176 -299 -243 -820 -445 -95 -37 -175 -71
-178 -75 -2 -5 1 -15 8 -24 11 -13 27 -9 142 37 72 29 191 77 265 106 331 130
569 284 692 449 l26 34 15 -54 c36 -126 40 -176 41 -473 l1 -300 -80 -57
c-112 -81 -239 -146 -331 -169 -165 -42 -472 -46 -694 -8 -103 17 -150 49
-150 104 0 32 -21 51 -42 38 -14 -9 -3 -79 17 -110 48 -73 267 -111 585 -101
187 6 262 17 375 57 60 21 172 82 233 128 18 14 35 23 37 20 3 -2 6 -139 7
-304 3 -272 1 -302 -15 -327 -21 -32 -142 -120 -215 -154 -29 -14 -59 -34 -66
-45 -13 -18 -15 -16 -30 29 -9 26 -19 73 -23 103 -7 46 -12 55 -31 58 -18 3
-22 -1 -22 -25 0 -44 27 -140 66 -229 39 -91 37 -113 -14 -168 -76 -81 -316
-236 -366 -236 -17 0 -21 -17 -7 -38 27 -43 371 176 432 274 11 19 22 34 24
34 6 0 153 -238 182 -295 63 -125 74 -179 84 -431 9 -251 25 -356 64 -441 14
-30 22 -59 20 -64 -5 -8 93 -64 100 -57 2 2 -16 34 -40 71 -69 108 -86 188
-96 467 -11 335 -31 397 -213 682 -76 120 -85 138 -88 187 l-3 55 65 36 c36
20 78 44 93 54 l28 19 -6 -29 c-4 -16 -22 -86 -41 -157 -19 -70 -32 -132 -29
-137 17 -28 36 -5 60 73 31 104 65 258 59 269 -3 4 9 23 27 41 l32 34 67 -77
c87 -98 148 -153 295 -263 78 -58 182 -153 295 -267 96 -97 229 -222 295 -277
95 -79 904 -738 952 -775 8 -6 15 -3 22 11 10 18 -26 50 -391 347 -595 484
-625 510 -843 724 -118 117 -241 227 -300 270 -56 41 -162 135 -240 214 -129
130 -140 144 -137 174 l3 32 57 -43 c31 -24 102 -76 157 -114 134 -96 178
-134 500 -446 421 -408 693 -647 995 -875 137 -104 370 -262 386 -262 10 0 29
30 22 35 -2 1 -52 35 -113 75 -401 267 -732 549 -1326 1125 -261 255 -319 304
-491 424 -64 45 -120 86 -123 91 -3 5 33 -13 80 -41 47 -28 98 -51 114 -51 33
-1 231 135 231 159 0 8 -28 45 -62 83 -51 56 -65 67 -80 59 -10 -5 -18 -6 -18
-2 0 4 -9 75 -20 157 -11 82 -19 150 -17 152 1 1 75 -53 165 -120 97 -73 247
-173 370 -246 432 -255 483 -293 677 -485 l151 -150 307 -189 c170 -105 311
-194 314 -200 8 -12 4 -421 -4 -454 -7 -31 -24 -28 -64 14 -18 20 -85 72 -146
116 -62 43 -178 139 -258 213 -246 227 -442 376 -917 699 -164 111 -235 166
-286 221 -59 64 -70 71 -85 60 -16 -12 -14 -17 21 -62 55 -69 108 -111 347
-273 483 -329 669 -472 909 -698 60 -57 161 -140 223 -184 63 -44 126 -95 141
-114 15 -19 33 -34 40 -34 6 0 12 -2 12 -5 0 -15 -43 -87 -84 -139 -72 -93
-71 -94 97 -262 179 -180 202 -187 298 -97 l49 46 0 -31 c0 -43 20 -83 39 -80
13 3 16 17 13 77 -2 73 -2 74 38 117 67 73 73 121 22 177 -31 32 -38 34 -45 6
-3 -13 2 -28 14 -40 26 -26 24 -61 -5 -88 l-23 -22 -6 53 c-9 69 -9 561 0 716
l6 121 76 -70 c108 -100 240 -185 436 -281 248 -120 312 -159 454 -273 121
-97 208 -154 364 -240 45 -25 66 -42 63 -51 -3 -8 -4 -14 -1 -14 2 0 67 -24
144 -54 78 -30 141 -52 141 -50 0 9 -225 153 -354 226 -171 98 -204 120 -326
219 -135 109 -199 148 -427 260 -242 119 -358 194 -477 309 l-89 86 17 215 c9
118 19 269 23 337 3 67 9 122 13 122 3 0 17 -12 31 -26 47 -50 167 -121 419
-246 212 -106 281 -146 410 -238 213 -153 471 -326 685 -460 99 -62 181 -114
183 -115 2 -2 -214 -437 -275 -555 -2 -3 6 -11 17 -18 19 -11 28 3 160 268
l140 280 53 -30 c28 -17 78 -45 109 -63 32 -18 58 -34 58 -37 0 -3 -51 -102
-114 -220 -99 -188 -111 -217 -98 -227 9 -7 18 -13 21 -13 3 0 31 48 61 106
30 59 82 157 115 219 l60 113 80 -45 c153 -87 571 -302 768 -394 148 -70 197
-98 197 -111 0 -16 10 -18 98 -18 l97 0 -205 94 c-759 346 -1454 746 -2141
1233 -207 146 -255 175 -514 302 -216 107 -302 159 -384 233 l-41 38 0 85 0
85 68 -44 c169 -109 644 -365 1247 -671 1023 -519 1440 -739 1870 -985 230
-132 356 -208 382 -232 25 -23 53 -18 53 10 0 37 -373 250 -1307 749 l-83 44
14 32 c7 18 95 229 196 470 175 418 185 438 207 432 21 -5 805 -342 2092 -899
347 -150 456 -194 462 -184 19 29 104 -11 -1226 565 -1357 586 -2359 1011
-3830 1623 -1633 679 -1765 731 -2315 905 -581 183 -823 279 -1038 413 -67 42
-84 49 -89 36 -4 -10 -16 10 -33 55 -72 185 -183 282 -378 332 -107 27 -1055
392 -1040 399 7 4 45 12 83 19 39 6 228 38 421 71 l351 60 129 -71 c71 -40
138 -71 149 -71 19 1 19 0 3 -12 -17 -12 -17 -20 -4 -115 9 -60 21 -107 30
-116 31 -32 176 -7 176 29 0 9 3 16 8 16 4 0 6 47 4 104 l-3 104 104 81 c92
71 104 83 99 106 -2 15 0 25 7 25 6 0 11 9 11 20 0 24 1 24 200 49 618 78 736
95 746 108 20 23 24 14 24 -55 0 -104 -4 -104 263 -9 125 45 227 87 227 93 0
7 4 14 9 16 6 2 7 34 2 83 -5 44 -6 83 -2 86 3 3 170 -27 371 -67 201 -40 372
-73 381 -73 20 -1 34 30 18 39 -14 9 33 18 149 26 88 7 92 8 92 30 0 28 6 27
-136 14 -153 -15 -174 -19 -174 -35 0 -8 -4 -15 -10 -15 -5 0 -110 20 -232 44
-123 24 -278 54 -345 67 l-122 23 -7 40 c-3 22 -12 46 -19 53 -11 10 -83 13
-331 13 -257 0 -319 3 -328 14 -13 17 -282 90 -302 82 -31 -12 -13 -35 39 -49
169 -48 180 -45 -155 -46 l-306 -1 -6 38 c-10 67 -18 182 -13 182 2 0 24 -11
48 -24 24 -13 97 -41 162 -62 101 -33 119 -37 127 -24 5 8 10 18 10 22 0 3
-51 23 -112 43 -118 38 -218 83 -218 96 0 18 31 19 292 8 258 -10 295 -14 687
-75 418 -65 439 -67 428 -29 -2 5 -181 38 -398 72 -343 55 -422 64 -614 73
-330 15 -387 16 -392 7z m1217 -377 c-20 -13 -163 -13 -155 0 3 6 43 10 88 10
57 0 77 -3 67 -10z m118 3 c-10 -2 -28 -2 -40 0 -13 2 -5 4 17 4 22 1 32 -1
23 -4z m-2864 -54 l6 -36 -107 -7 c-60 -3 -221 -9 -360 -12 l-251 -7 -14 49
-14 49 361 5 c198 3 363 3 366 0 4 -3 9 -21 13 -41z m586 39 c0 -7 3 -23 6
-35 6 -20 2 -21 -78 -27 -45 -3 -167 -8 -269 -11 l-187 -5 -10 39 c-5 22 -7
43 -4 46 3 3 126 5 274 5 208 0 268 -3 268 -12z m487 5 c-14 -4 -17 -11 -13
-27 l6 -23 -205 -7 c-113 -4 -209 -4 -215 -1 -5 3 -10 19 -10 36 l0 29 228 -1
c125 -1 219 -3 209 -6z m225 -18 c5 -25 5 -25 -73 -27 -44 -1 -87 -2 -96 -2
-10 -1 -19 10 -24 27 l-7 27 98 0 c96 0 98 0 102 -25z m398 5 c0 -18 -7 -20
-83 -20 -46 0 -125 -3 -175 -6 l-92 -7 0 27 0 26 175 0 c168 0 175 -1 175 -20z
m300 5 c0 -12 -18 -15 -102 -15 -57 0 -113 -3 -124 -6 -16 -4 -23 0 -27 15 -5
20 -2 21 124 21 108 0 129 -2 129 -15z m340 5 c0 -6 -50 -11 -125 -12 -69 -1
-135 -2 -147 -2 -12 -1 -23 5 -25 12 -4 9 30 12 146 12 94 0 151 -4 151 -10z
m199 6 c-7 -7 -149 -10 -156 -3 -3 4 31 7 77 7 46 0 81 -2 79 -4z m-3310 -57
c7 -27 12 -51 10 -53 -4 -3 -762 -27 -842 -26 -36 0 -53 5 -71 23 -13 13 -28
21 -34 19 -11 -3 -114 47 -147 72 -18 14 31 15 526 16 l545 0 13 -51z m-1189
1 c0 -5 -4 -10 -10 -10 -5 0 -10 5 -10 10 0 6 5 10 10 10 6 0 10 -4 10 -10z
m4719 6 c-7 -7 -139 -10 -146 -3 -3 4 29 7 72 7 43 0 76 -2 74 -4z m-415 -15
c4 -5 -29 -12 -71 -15 -234 -19 -223 -19 -223 -2 0 13 21 16 133 19 72 1 137
4 144 5 6 1 14 -2 17 -7z m215 5 c-2 -2 -41 -7 -86 -10 -57 -5 -83 -4 -83 3 0
7 32 11 87 11 47 0 84 -2 82 -4z m-559 -20 c0 -15 -58 -24 -175 -28 -58 -1
-71 1 -73 15 -3 14 12 17 120 20 68 1 124 4 126 5 1 1 2 -4 2 -12z m-3891 -5
c17 -11 28 -101 13 -101 -9 0 -42 81 -42 102 0 10 11 10 29 -1z m3599 -13 c3
-14 -13 -17 -115 -23 -225 -13 -228 -12 -228 10 0 19 8 20 155 25 193 7 184 8
188 -12z m-629 -20 c5 -13 6 -26 2 -29 -8 -8 -402 -29 -413 -23 -10 6 -11 54
0 55 4 1 88 5 187 8 99 4 188 8 198 9 10 1 21 -7 26 -20z m238 7 c3 -9 3 -18
1 -20 -3 -3 -46 -8 -96 -11 l-92 -7 0 27 0 26 90 0 c72 0 92 -3 97 -15z m1441
-8 c3 -14 -6 -17 -47 -18 -28 -1 -57 -2 -63 -3 -7 -1 -14 7 -16 16 -3 14 6 18
50 21 69 4 72 3 76 -16z m140 11 c-3 -7 -25 -14 -51 -16 -37 -2 -47 0 -47 12
0 12 12 16 51 16 36 0 49 -4 47 -12z m-308 -28 c0 -8 -60 -18 -140 -22 -40 -2
-45 0 -48 19 -3 21 1 22 80 25 78 3 108 -3 108 -22z m-1976 -6 c4 -15 5 -29 2
-31 -6 -7 -463 -35 -501 -31 -24 3 -30 9 -36 36 -8 41 -7 41 181 45 80 1 191
4 246 5 l102 2 6 -26z m1744 -5 c3 -18 -25 -23 -200 -35 l-98 -7 0 26 c0 26 1
26 83 30 161 7 212 3 215 -14z m-2325 -26 c4 -20 5 -38 4 -38 -1 -1 -139 -10
-307 -19 -168 -9 -326 -19 -351 -22 l-46 -5 -12 46 c-7 26 -10 49 -8 51 5 5
412 20 588 22 l126 2 6 -37z m1977 3 c0 -23 -3 -24 -97 -31 -160 -12 -148 -13
-151 17 -3 27 -2 27 60 31 181 10 188 9 188 -17z m-2740 -31 c7 -25 11 -48 8
-50 -2 -3 -85 -10 -184 -15 -236 -14 -264 -18 -264 -36 0 -8 -6 -14 -12 -14
-16 1 -335 128 -328 131 5 2 569 24 706 27 l61 2 13 -45z m2450 3 c0 -10 -1
-18 -2 -18 -2 0 -77 -7 -167 -15 -91 -8 -166 -13 -167 -12 -1 1 -4 16 -6 32
l-3 30 165 10 c169 10 180 9 180 -27z m1186 -13 c3 -25 5 -48 2 -50 -6 -6
-397 -145 -408 -145 -6 0 -10 39 -10 89 0 62 -4 91 -12 94 -35 12 20 22 200
38 108 9 202 17 209 18 7 0 15 -19 19 -44z m-1576 -5 c0 -34 -8 -37 -107 -43
-65 -3 -73 1 -73 43 0 21 21 26 118 29 l62 1 0 -30z m-225 -11 c4 -17 5 -33 2
-35 -3 -3 -96 -13 -207 -21 -220 -18 -220 -18 -220 38 l0 26 173 10 c94 5 189
10 209 11 33 2 37 -1 43 -29z m-2826 -29 c1 -13 0 -13 -9 0 -5 8 -9 24 -9 35
l0 20 9 -20 c5 -11 9 -27 9 -35z m88 -7 c-3 -10 -5 -2 -5 17 0 19 2 27 5 18 2
-10 2 -26 0 -35z m2269 2 c3 -20 5 -38 3 -40 -3 -3 -478 -45 -510 -45 -9 0
-33 79 -26 87 5 4 369 29 469 32 l57 1 7 -35z m1552 28 c-10 -2 -28 -2 -40 0
-13 2 -5 4 17 4 22 1 32 -1 23 -4z m-108 -10 c-19 -3 -631 -64 -1359 -137
-803 -81 -1326 -138 -1330 -144 -4 -8 -33 -1 -89 20 -45 17 -80 33 -79 35 2 2
195 19 428 38 373 30 425 33 435 20 15 -20 26 -19 45 3 13 15 50 20 240 35
295 23 883 71 1294 106 275 24 541 39 415 24z m-2021 -50 c6 -21 11 -43 11
-48 0 -11 -675 -69 -690 -60 -8 5 -33 95 -28 100 2 2 149 12 328 23 179 10
335 20 347 21 17 1 24 -7 32 -36z m2346 26 c4 -6 5 -12 3 -15 -3 -2 -193 -28
-424 -59 -230 -30 -438 -57 -461 -60 -42 -6 -43 -6 -43 22 l0 29 448 46 c246
25 452 46 459 47 6 0 15 -4 18 -10z m-3910 -36 c4 -21 9 -47 12 -57 4 -15 1
-18 -12 -13 -9 4 -19 7 -21 7 -2 0 -4 23 -4 50 0 59 16 67 25 13z m-320 -40
c3 -13 2 -23 -3 -23 -11 0 -22 24 -22 48 0 21 15 5 25 -25z m1138 -10 c8 -27
13 -51 10 -55 -2 -5 -31 -8 -63 -8 -54 0 -59 -2 -62 -24 -3 -23 -4 -23 -167
40 -90 35 -166 65 -168 68 -2 2 49 7 114 10 65 4 129 8 143 10 14 2 60 4 102
5 l77 1 14 -47z m-641 -5 c14 -11 53 -128 43 -128 -2 0 -16 5 -29 12 -26 11
-46 58 -46 106 0 25 9 28 32 10z m2766 -60 l-3 -63 -39 -13 c-21 -7 -40 -11
-42 -9 -2 1 -6 33 -10 69 -7 73 -7 73 69 77 l28 1 -3 -62z m-2470 -7 c70 -27
435 -167 812 -311 377 -144 738 -282 803 -308 l118 -45 -46 -18 c-25 -10 -52
-22 -59 -28 -10 -9 -43 2 -132 45 -203 95 -388 177 -689 304 -159 67 -347 146
-417 176 -159 66 -522 225 -527 230 -12 10 20 0 137 -45z m2331 -28 c12 -79
30 -107 64 -99 9 2 17 3 17 1 0 -2 -35 -31 -78 -64 l-79 -60 -84 -2 -84 -3
-102 55 c-57 30 -103 56 -103 59 0 3 69 16 153 30 171 27 187 35 187 99 0 37
2 40 38 49 20 5 42 10 48 11 7 1 16 -31 23 -76z m-2975 17 c4 -21 3 -31 -3
-25 -5 6 -12 26 -16 45 -5 23 -4 32 3 25 5 -5 12 -26 16 -45z m2816 11 c0 -35
-3 -40 -27 -45 -27 -6 -251 -44 -922 -158 -269 -45 -315 -55 -319 -71 -2 -10
-10 -17 -17 -15 -28 7 -403 153 -400 156 3 4 1609 169 1658 171 25 1 27 -2 27
-38z m-2275 -29 c-2 -2 7 -33 20 -68 13 -35 22 -64 20 -64 -2 0 -15 5 -29 11
-18 8 -32 31 -50 81 -14 38 -26 71 -26 73 0 3 16 -3 35 -12 19 -9 33 -19 30
-21z m-344 8 l24 -21 -32 16 c-32 15 -42 25 -24 25 5 0 19 -9 32 -20z m-48
-119 c-9 -11 -21 17 -27 59 l-6 45 19 -50 c10 -27 17 -52 14 -54z m304 52
c-11 -10 -26 8 -20 23 5 15 7 14 15 -1 6 -9 7 -19 5 -22z m201 17 c46 -20 48
-23 74 -100 15 -44 24 -80 21 -80 -20 0 -121 64 -117 74 3 7 -4 36 -16 65 -28
73 -30 70 38 41z m-743 -66 c3 -20 9 -43 12 -52 3 -9 -11 -1 -31 19 -34 33
-36 38 -25 62 15 34 34 21 44 -29z m340 -12 c8 -25 15 -52 15 -59 0 -27 -44
15 -62 59 -24 61 -23 70 7 56 15 -7 29 -27 40 -56z m375 -92 c350 -187 631
-345 1175 -660 88 -51 197 -110 243 -132 75 -35 83 -41 76 -61 -3 -12 -8 -23
-9 -25 -7 -8 -1745 993 -1745 1004 0 10 15 6 53 -15 28 -15 122 -66 207 -111z
m204 93 c21 -11 25 -17 16 -23 -12 -8 -8 -42 16 -122 3 -10 1 -18 -3 -18 -23
0 -44 32 -72 108 -33 92 -32 93 43 55z m-480 -72 c20 -67 20 -80 2 -61 -12 14
-36 93 -36 121 0 26 18 -7 34 -60z m-359 17 c4 -18 9 -42 12 -53 4 -18 2 -17
-20 5 -19 19 -24 32 -20 53 7 36 20 34 28 -5z m982 -7 c55 -23 80 -38 76 -47
-4 -12 22 -113 44 -170 4 -12 -21 -2 -83 31 l-90 48 -18 76 c-10 42 -20 82
-23 90 -3 7 -1 12 4 10 5 -2 46 -19 90 -38z m-791 -19 c-4 -3 -14 2 -24 12
-16 18 -16 18 6 6 13 -6 21 -14 18 -18z m305 -77 c10 -38 16 -71 14 -73 -11
-11 -25 15 -36 65 -6 32 -14 64 -17 72 -3 8 0 12 8 9 7 -2 21 -35 31 -73z
m671 15 c4 -3 20 -48 36 -100 16 -52 33 -104 37 -114 8 -18 5 -17 -32 4 -23
12 -43 32 -46 44 -3 11 -17 54 -31 94 -34 97 -34 105 2 90 15 -7 30 -14 34
-18z m-1059 -28 c16 -47 15 -47 -40 2 l-23 19 23 12 c12 6 23 11 24 11 1 -1 8
-20 16 -44z m177 33 c7 -8 8 -15 2 -15 -5 0 -15 7 -22 15 -7 8 -8 15 -2 15 5
0 15 -7 22 -15z m-35 -110 c16 -48 33 -89 37 -91 4 -3 17 11 30 30 l24 34 24
-61 c43 -112 52 -131 58 -121 4 5 17 9 29 10 17 0 24 -8 32 -40 5 -22 8 -42 6
-44 -2 -2 -80 63 -173 144 -157 137 -168 149 -148 159 16 9 21 19 19 48 -4 65
29 29 62 -68z m2649 68 c3 -21 6 -64 6 -95 0 -50 -3 -60 -24 -73 -14 -9 -39
-15 -57 -13 -37 3 -42 14 -54 140 l-7 67 54 4 c29 2 58 4 64 5 6 1 14 -15 18
-35z m-2270 2 c16 -12 90 -184 82 -192 -6 -6 -76 49 -71 57 3 4 -3 28 -13 52
-24 55 -35 98 -25 98 5 0 17 -7 27 -15z m761 -56 l145 -61 0 -57 c0 -31 7 -87
15 -125 8 -38 13 -71 12 -73 -2 -2 -60 30 -129 69 l-126 73 -36 106 c-35 105
-41 129 -31 129 3 0 71 -28 150 -61z m-1000 21 c3 -5 1 -10 -4 -10 -6 0 -11 5
-11 10 0 6 2 10 4 10 3 0 8 -4 11 -10z m388 -50 c47 -26 53 -34 55 -65 2 -19
11 -62 21 -95 12 -37 14 -57 7 -53 -6 3 -37 24 -69 46 -50 33 -56 40 -42 50
14 11 13 18 -10 74 -35 88 -37 86 38 43z m3 -216 c462 -319 486 -336 480 -342
-3 -3 -14 2 -23 10 -10 9 -187 131 -393 273 -356 244 -413 285 -398 285 4 0
154 -102 334 -226z m-203 212 c4 -10 1 -13 -8 -9 -8 3 -12 9 -9 14 7 12 11 11
17 -5z m1040 -62 c32 -16 36 -23 84 -175 28 -88 49 -159 47 -159 -1 0 -30 16
-62 35 -56 32 -60 38 -75 92 -25 91 -44 223 -32 223 2 0 20 -7 38 -16z m-701
-13 c20 -10 32 -30 51 -90 14 -42 28 -91 32 -110 l7 -34 -32 20 c-25 16 -38
36 -57 89 -28 80 -44 147 -35 142 4 -2 19 -10 34 -17z m-359 -53 c15 -11 25
-23 22 -28 -2 -4 4 -34 15 -66 23 -66 20 -87 -12 -82 -18 2 -27 16 -45 68 -12
36 -25 83 -29 104 -7 42 -7 42 49 4z m1288 -34 c68 -30 181 -83 251 -116 l127
-61 -31 -35 c-43 -50 -58 -92 -58 -167 l0 -65 -117 59 c-209 105 -198 95 -249
251 -45 139 -59 190 -52 190 3 0 60 -25 129 -56z m-710 -37 c10 -7 19 -30 23
-62 5 -45 27 -123 51 -179 6 -13 -21 1 -76 40 -79 55 -85 61 -86 95 -2 36 -22
124 -39 163 -7 19 26 3 127 -57z m-471 -17 c-10 -6 -10 -16 3 -49 9 -23 13
-41 9 -41 -5 0 -14 19 -21 43 -7 23 -15 50 -18 60 -4 17 -2 17 17 7 17 -9 19
-14 10 -20z m92 -50 c21 -14 36 -29 34 -35 -1 -5 5 -30 16 -54 21 -49 28 -132
13 -138 -6 -2 -34 56 -62 127 -28 72 -48 130 -44 128 3 -2 23 -14 43 -28z
m502 -4 c37 -22 44 -32 65 -98 36 -111 60 -198 55 -198 -2 0 -23 12 -46 27
-31 21 -48 43 -69 90 -45 101 -72 203 -52 203 3 0 25 -11 47 -24z m1304 -48
c55 -10 63 -14 58 -32 -3 -12 4 -30 19 -47 13 -16 37 -75 54 -131 70 -228 70
-228 212 -228 54 0 100 -4 103 -8 13 -21 38 -207 39 -287 1 -110 -20 -181 -72
-238 -88 -98 -210 -101 -381 -11 -109 58 -108 56 -61 99 56 51 70 99 48 169
-22 70 -22 143 1 186 11 19 42 52 70 74 44 33 49 40 39 56 -9 15 -15 16 -30 8
-40 -21 -111 -94 -128 -133 -22 -48 -24 -125 -4 -180 24 -67 20 -102 -19 -141
-24 -24 -33 -41 -29 -52 11 -31 -34 16 -52 54 -17 36 -22 39 -44 25 -20 -13
-5 -48 47 -103 24 -26 39 -48 32 -48 -7 0 -18 -7 -24 -15 -9 -13 -32 0 -146
83 -74 54 -182 132 -239 173 -100 71 -105 77 -118 124 -7 28 -13 65 -13 84 0
18 -14 74 -31 123 -17 49 -29 91 -27 92 2 2 62 -31 133 -72 l130 -76 83 -165
c45 -91 85 -178 88 -193 5 -21 12 -28 30 -28 13 0 24 1 24 3 0 29 -46 137 -96
228 -36 64 -69 131 -74 149 -13 46 -1 298 16 331 21 42 127 128 170 138 42 10
92 7 192 -11z m-1860 -54 c7 4 56 -113 50 -120 -2 -1 -38 28 -81 64 -75 64
-77 66 -55 78 19 10 27 9 50 -8 15 -10 32 -17 36 -14z m208 -1 c23 -17 33 -34
38 -66 3 -23 9 -53 12 -66 7 -24 7 -24 -38 7 -39 27 -46 37 -51 74 -3 24 -9
54 -13 67 -8 27 -3 25 52 -16z m604 -42 l135 -78 31 -97 c34 -102 54 -221 36
-215 -33 12 -281 197 -282 209 0 13 -42 169 -65 239 -3 12 -3 21 2 20 4 0 69
-35 143 -78z m1224 45 c111 -54 185 -137 231 -261 14 -36 25 -70 25 -75 0 -6
-36 -10 -85 -10 -70 0 -87 3 -102 19 -10 11 -38 82 -61 158 -24 76 -55 153
-68 171 -14 17 -22 32 -18 32 4 0 39 -15 78 -34z m-1685 -189 c44 -132 45
-137 32 -137 -5 0 -12 12 -15 28 -4 15 -23 69 -42 120 -36 99 -39 112 -25 112
5 0 28 -55 50 -123z m155 -18 c62 -44 69 -52 71 -86 1 -21 6 -47 10 -57 7 -15
5 -17 -6 -11 -29 18 -159 106 -159 108 0 1 -9 27 -20 57 -32 86 -37 87 104
-11z m-228 -5 c9 4 19 -14 34 -61 11 -37 28 -75 37 -85 23 -26 58 -22 80 8
l19 25 85 -60 85 -61 28 -86 c40 -122 85 -160 143 -119 18 13 22 12 38 -5 21
-24 309 -210 324 -210 6 0 13 -12 17 -27 42 -187 66 -233 122 -233 27 0 52 31
52 67 0 18 3 33 6 33 24 0 154 -116 154 -137 0 -19 -91 -128 -106 -127 -6 1
-300 253 -653 559 l-642 559 33 11 c30 10 37 9 81 -23 27 -18 55 -31 63 -28z
m789 21 c32 -20 42 -33 51 -72 7 -27 21 -73 32 -103 11 -30 23 -86 27 -123 l7
-68 -54 38 c-34 24 -56 46 -56 58 -4 67 -23 178 -41 229 -12 33 -21 61 -21 63
0 8 18 1 55 -22z m19 -353 c404 -285 550 -392 554 -403 8 -20 -19 -7 -71 37
-76 64 -420 312 -735 529 -143 99 -261 184 -261 188 -1 10 108 -65 513 -351z
m-417 221 c24 -21 41 -54 68 -133 45 -127 48 -154 19 -158 -11 -2 -26 3 -32
10 -10 12 -102 282 -102 300 0 15 15 8 47 -19z m1933 -157 c69 -34 145 -70
169 -80 29 -11 40 -20 33 -25 -7 -4 -14 -22 -15 -39 -1 -18 -3 -32 -3 -32 -1
0 -21 7 -44 15 -56 20 -91 19 -181 -4 -42 -11 -96 -22 -121 -26 l-45 -7 -7 78
c-6 68 -21 155 -41 242 -5 20 0 19 62 -19 38 -23 124 -70 193 -103z m-1614
-64 c93 -65 102 -74 107 -110 4 -21 16 -62 28 -91 12 -28 19 -54 16 -57 -6 -6
-256 156 -275 179 -8 9 -20 13 -28 10 -10 -4 -14 3 -14 24 0 16 -13 66 -30
111 -16 46 -30 85 -30 88 0 3 28 -14 63 -38 34 -25 108 -77 163 -116z m2134
-141 c140 -48 326 -108 413 -135 91 -29 153 -53 145 -57 -7 -4 -119 -45 -248
-92 -129 -47 -242 -88 -251 -92 -17 -6 -15 -45 1 -45 5 0 138 47 296 105 l288
105 68 -22 c37 -12 68 -25 68 -29 0 -10 -268 -119 -547 -224 -75 -28 -79 -30
-64 -54 8 -12 35 -5 153 39 78 29 232 90 340 135 l197 82 248 -97 c328 -127
853 -343 853 -351 0 -3 -32 -27 -70 -53 -63 -41 -69 -49 -60 -67 6 -11 16 -17
23 -13 46 28 134 89 144 102 11 13 43 2 245 -82 l233 -97 -8 -127 c-5 -74 -5
-308 1 -557 10 -443 6 -632 -23 -985 -23 -277 -33 -612 -27 -925 l5 -270 -66
-58 c-39 -34 -74 -57 -88 -57 -17 0 -62 38 -156 132 -73 73 -133 140 -133 149
0 8 20 41 45 73 24 31 54 79 67 106 13 27 25 49 28 50 3 0 5 -47 5 -105 0 -77
-3 -105 -12 -105 -20 0 -17 -134 2 -153 43 -43 186 -55 233 -20 37 27 41 53 9
53 -14 0 -27 -5 -29 -12 -7 -19 -109 -22 -151 -5 -35 15 -37 18 -37 61 0 27 5
48 14 53 10 6 14 79 20 351 4 211 10 351 17 363 7 13 7 24 1 32 -10 12 -7 143
18 747 16 388 40 926 49 1110 5 91 7 168 4 173 -2 4 -12 7 -22 7 -20 0 -22
-13 -42 -480 -7 -146 -13 -267 -15 -268 -1 -2 -58 30 -126 71 -191 115 -1159
649 -1383 762 -110 56 -258 123 -330 149 -131 49 -297 126 -326 152 -17 16
-35 144 -45 342 -7 113 -8 122 -27 122 -19 0 -20 -5 -14 -157 3 -94 22 -285
47 -472 22 -172 39 -315 37 -318 -3 -2 -29 36 -60 84 -30 48 -60 87 -66 86 -6
-2 -11 5 -11 15 0 37 -41 177 -74 254 -19 43 -30 81 -25 84 5 3 16 29 24 59
13 44 14 65 5 117 -15 89 -36 148 -70 202 -24 37 -30 58 -30 102 0 50 2 55 18
49 9 -5 132 -47 272 -94z m-1927 -5 c22 -17 49 -98 83 -246 28 -124 29 -140 8
-140 -20 0 -38 46 -68 172 -14 57 -36 135 -50 172 -14 38 -26 70 -26 73 0 5
29 -12 53 -31z m252 -183 c84 -65 129 -105 129 -116 -2 -15 4 -16 32 -11 19 3
34 3 34 -1 0 -10 -92 -125 -100 -125 -4 0 -15 10 -23 23 -8 13 -55 53 -103 90
l-87 66 -24 93 c-12 51 -23 94 -23 96 0 7 44 -24 165 -115z m1070 -97 c75
-151 -18 -311 -210 -362 -67 -18 -217 -18 -290 1 -79 20 -170 65 -222 110 -42
36 -43 38 -43 97 0 60 28 201 39 196 3 -2 43 -22 89 -46 228 -118 394 -81 480
106 l24 54 55 -54 c29 -29 65 -75 78 -102z m687 -280 c35 -19 135 -62 223 -96
222 -85 335 -141 850 -425 683 -376 709 -391 873 -488 l152 -91 0 -88 c0 -48
-1 -88 -3 -88 -2 0 -52 25 -113 56 -151 78 -323 178 -642 376 -463 287 -633
377 -950 507 -204 84 -256 109 -342 167 -101 68 -98 64 -108 137 -5 37 -7 67
-6 67 2 0 32 -15 66 -34z m146 -280 c40 -20 149 -68 241 -106 305 -125 453
-204 971 -523 335 -207 577 -346 674 -388 66 -29 61 22 44 -426 -8 -226 -15
-323 -23 -323 -19 0 -229 124 -321 190 -49 35 -156 118 -239 185 -209 170
-629 485 -760 570 -60 40 -189 118 -285 175 -147 86 -233 138 -383 234 -14 8
-20 8 -27 -3 -7 -12 -10 -10 -14 10 -5 22 -66 496 -66 512 0 4 26 -10 58 -32
31 -21 90 -55 130 -75z m-246 -156 c23 -39 38 -78 38 -97 0 -53 -69 -285 -93
-310 -11 -13 -23 -23 -26 -23 -3 0 -7 129 -9 288 l-3 287 28 -40 c15 -22 44
-69 65 -105z m2871 -98 l259 -107 -110 -106 c-101 -97 -109 -108 -95 -122 15
-14 26 -6 131 94 63 60 118 109 123 109 9 0 146 -57 784 -325 534 -225 940
-396 943 -400 2 -1 -99 -204 -223 -449 l-227 -446 -366 186 c-900 459 -1399
727 -1512 814 l-25 19 78 79 c69 69 76 80 62 92 -13 11 -25 4 -84 -48 l-68
-61 -6 112 c-9 144 -9 590 -1 650 l7 46 36 -15 c20 -8 152 -63 294 -122z
m-2773 -322 l11 -80 -41 -79 c-22 -43 -52 -89 -65 -101 -23 -22 -27 -22 -72
-10 -73 20 -75 23 -68 107 5 51 4 73 -4 73 -6 0 -11 8 -11 18 1 16 1 16 14 0
20 -27 29 -22 23 12 -4 17 -2 30 3 30 6 0 9 -5 8 -12 -5 -20 25 -19 60 2 35
22 53 54 78 144 l16 58 19 -41 c10 -23 23 -77 29 -121z m135 65 c44 -28 163
-100 265 -160 102 -60 237 -142 300 -183 137 -89 581 -421 771 -577 196 -161
334 -257 512 -354 l77 -42 0 -96 0 -95 -22 14 c-13 8 -138 86 -278 173 -328
202 -336 208 -459 337 -161 169 -248 233 -606 443 -237 140 -307 187 -479 317
-102 78 -131 96 -142 87 -12 -10 -14 -1 -14 50 0 34 -7 78 -15 98 -8 19 -15
40 -15 45 0 10 -2 12 105 -57z m-2091 -55 c25 -12 99 -37 163 -56 65 -20 122
-40 127 -44 5 -5 2 -26 -8 -50 -31 -78 -22 -147 40 -303 31 -78 61 -148 65
-157 5 -8 33 -70 63 -137 82 -184 137 -269 341 -528 85 -107 98 -129 90 -155
-9 -28 -22 -25 -55 10 -48 51 -52 48 -141 -93 -55 -87 -60 -88 -143 -43 -66
36 -80 75 -86 256 -7 182 -2 169 -144 370 -120 170 -293 472 -324 564 -19 57
-25 101 -30 228 -4 87 -6 158 -6 158 1 0 22 -9 48 -20z m2006 -389 c12 -90 20
-164 18 -166 -2 -1 -31 0 -65 3 -73 5 -73 5 -82 127 -5 73 -8 80 -26 77 -11
-2 -22 -6 -24 -8 -2 -2 0 -47 6 -100 13 -125 26 -140 119 -137 44 1 71 6 83
17 10 9 23 16 29 16 10 0 9 34 -3 93 -2 9 0 17 3 16 7 0 92 -104 92 -112 0 -2
-38 -29 -84 -61 l-84 -58 -43 23 c-97 49 -149 88 -149 112 0 13 5 28 10 33 13
13 2 44 -15 44 -7 0 -21 -17 -30 -37 -14 -29 -16 -43 -8 -64 8 -22 8 -29 -3
-33 -11 -4 -14 6 -14 43 0 26 -3 96 -7 156 l-6 107 33 -17 c41 -21 93 -22 125
-1 13 8 39 41 57 71 26 45 34 52 40 38 4 -10 16 -92 28 -182z m4893 -211 c39
-17 73 -33 75 -35 4 -3 -355 -870 -382 -922 -11 -22 -12 -22 -124 38 l-113 60
80 152 c43 84 145 284 225 445 80 160 151 292 157 292 5 0 42 -14 82 -30z
m-6729 -481 c43 -16 115 -50 160 -77 l81 -49 3 -63 c3 -57 1 -62 -15 -55 -10
4 -52 13 -93 21 -41 8 -95 19 -120 25 -50 11 -172 68 -209 98 l-24 19 54 61
c36 41 59 59 69 54 8 -3 50 -19 94 -34z m-1558 -574 c-2 -5 -29 -68 -60 -139
-61 -139 -68 -183 -36 -223 11 -14 20 -36 20 -48 0 -47 -88 -99 -136 -81 -28
11 -13 214 25 346 17 58 31 117 31 132 l0 27 80 -2 c49 -1 79 -6 76 -12z
m1202 -332 c16 -75 -12 -106 -108 -118 l-54 -7 55 50 c30 28 64 66 74 86 11
20 20 36 21 36 2 0 7 -21 12 -47z m4130 9 c6 -18 -15 -14 -22 4 -4 10 -1 14 6
12 6 -2 14 -10 16 -16z m4062 -418 c0 -8 -4 -12 -10 -9 -5 3 -10 10 -10 16 0
5 5 9 10 9 6 0 10 -7 10 -16z"/>
<path d="M6408 3046 c-78 -51 -87 -63 -67 -83 8 -8 33 5 90 44 70 48 78 57 67
71 -7 10 -12 18 -13 18 0 1 -35 -22 -77 -50z"/>
<path d="M7005 6170 c-4 -12 -5 -23 -3 -24 1 -2 44 -19 93 -38 88 -35 104 -35
105 -2 0 6 -37 26 -82 43 -46 18 -88 35 -95 38 -6 2 -14 -5 -18 -17z"/>
<path d="M11222 6017 c-98 -99 -111 -115 -98 -126 14 -11 32 2 131 94 63 59
115 111 115 114 0 8 -22 31 -30 31 -3 0 -56 -51 -118 -113z"/>
<path d="M7386 6014 c-4 -9 -5 -18 -4 -19 2 -2 43 -20 91 -40 73 -32 90 -36
98 -24 5 8 9 17 9 20 0 8 -155 79 -174 79 -7 0 -17 -7 -20 -16z"/>
<path d="M6968 5873 c-34 -10 -48 -19 -48 -32 0 -28 9 -30 51 -16 l39 14 0
-69 0 -69 -53 -6 c-30 -4 -142 2 -268 14 -119 12 -221 21 -227 21 -7 0 -12
-10 -12 -23 0 -23 3 -23 198 -41 108 -9 217 -19 242 -21 25 -2 93 6 152 17 90
18 107 24 112 42 4 15 -4 31 -29 56 -34 33 -35 34 -50 15 -13 -18 -14 -16 -15
38 0 44 -3 57 -15 57 -8 0 -15 5 -15 10 0 12 -2 12 -62 -7z m112 -138 c10 -12
10 -15 -4 -15 -9 0 -16 7 -16 15 0 8 2 15 4 15 2 0 9 -7 16 -15z"/>
<path d="M7759 5850 c-1 -5 -2 -14 -3 -19 -1 -5 34 -34 78 -65 63 -46 81 -54
92 -45 13 10 11 16 -8 37 -27 29 -132 102 -147 102 -6 0 -12 -4 -12 -10z"/>
<path d="M6770 5826 c-57 -7 -85 -15 -84 -23 3 -38 -7 -37 152 -16 36 5 43 9
40 26 -4 26 -6 26 -108 13z"/>
<path d="M10757 5566 c-114 -107 -118 -112 -100 -128 18 -17 24 -13 133 97
100 100 113 117 100 129 -13 12 -30 0 -133 -98z"/>
<path d="M11515 5670 c-4 -6 15 -37 42 -69 404 -486 626 -785 743 -1003 30
-56 47 -78 61 -78 26 0 24 10 -12 83 -100 197 -379 580 -696 955 -99 116 -123
136 -138 112z"/>
<path d="M8010 5548 c-1 -2 -2 -47 -3 -101 -2 -86 0 -98 16 -103 25 -8 25 -7
33 58 10 82 -2 148 -27 148 -10 0 -19 -1 -19 -2z"/>
<path d="M7820 5438 c0 -30 -18 -48 -47 -48 -30 0 -29 -6 10 -50 17 -20 37
-45 43 -56 11 -18 14 -17 50 17 22 20 49 43 62 51 l23 15 -30 13 c-23 9 -31
19 -33 43 -3 29 -7 32 -40 35 -34 3 -38 1 -38 -20z m40 -82 c0 -3 -4 -8 -10
-11 -5 -3 -10 -1 -10 4 0 6 5 11 10 11 6 0 10 -2 10 -4z"/>
<path d="M8199 5458 c0 -2 -3 -16 -5 -33 -7 -48 -12 -55 -39 -55 -37 0 -31
-14 16 -35 30 -14 47 -31 63 -63 l23 -44 21 51 c33 74 38 111 18 111 -10 0
-16 9 -16 25 0 26 -25 45 -59 45 -12 0 -21 -1 -22 -2z"/>
<path d="M10285 5110 c-100 -100 -108 -111 -94 -126 15 -14 26 -6 133 97 93
89 114 114 105 125 -6 8 -17 14 -23 14 -6 0 -61 -49 -121 -110z"/>
<path d="M7898 5072 c-37 -65 -45 -88 -37 -99 6 -7 15 -13 20 -13 7 0 99 160
99 173 0 4 -8 10 -17 16 -15 7 -25 -4 -65 -77z"/>
<path d="M7710 4770 c-23 -32 -21 -60 4 -60 18 0 60 66 51 80 -11 18 -33 10
-55 -20z"/>
<path d="M9824 4660 c-101 -98 -110 -111 -95 -124 14 -12 28 -2 130 95 76 73
111 114 107 124 -3 8 -11 15 -18 15 -7 0 -63 -50 -124 -110z"/>
<path d="M9360 4211 c-110 -105 -114 -110 -97 -127 17 -18 22 -14 132 96 88
88 112 117 103 127 -6 7 -13 13 -17 13 -3 0 -58 -49 -121 -109z"/>
<path d="M7991 4085 c-88 -60 -97 -70 -82 -89 11 -13 23 -8 92 37 43 29 79 55
79 58 0 3 -6 12 -12 21 -12 14 -20 11 -77 -27z"/>
<path d="M8345 3994 c-27 -25 -96 -84 -152 -130 l-102 -85 -58 3 -58 3 -82
-160 c-45 -88 -82 -164 -82 -168 -1 -4 29 15 66 43 82 62 156 99 297 149 l109
38 -36 25 -37 25 28 25 c76 71 217 148 362 200 l95 33 -95 6 c-52 4 -112 14
-132 23 -54 23 -68 20 -123 -30z m112 -15 c28 -10 27 -11 -52 -52 -98 -51
-156 -91 -221 -151 -47 -44 -48 -46 -30 -61 24 -18 24 -18 -44 -40 -30 -10
-81 -31 -112 -46 -32 -16 -60 -29 -63 -29 -3 0 11 32 30 70 37 74 41 76 110
61 24 -5 35 -2 55 19 14 14 70 62 125 107 55 44 111 93 124 107 27 29 37 31
78 15z"/>
<path d="M7652 3850 c-75 -52 -77 -56 -63 -79 7 -10 26 -2 87 39 44 29 81 54
83 56 5 5 -20 34 -29 34 -4 0 -39 -23 -78 -50z"/>
<path d="M8892 3757 c-99 -99 -111 -115 -98 -126 14 -11 30 0 113 77 135 124
139 128 123 147 -7 8 -15 15 -19 15 -3 0 -57 -51 -119 -113z"/>
<path d="M9586 3673 c-23 -69 -51 -111 -139 -203 l-78 -83 -77 7 -77 7 -2 -58
c-1 -32 -15 -123 -32 -202 -18 -79 -29 -146 -27 -149 3 -2 32 21 65 53 78 74
170 141 259 188 75 40 95 66 68 95 -13 16 -10 24 41 92 31 41 100 119 153 172
l97 96 -86 16 c-47 9 -100 16 -118 16 -29 0 -33 -4 -47 -47z m97 -3 c51 -1 53
-16 8 -62 -85 -84 -231 -274 -231 -300 0 -4 10 -8 23 -8 15 0 2 -11 -43 -35
-36 -19 -98 -60 -138 -90 -40 -30 -75 -55 -76 -55 -2 0 5 39 15 88 10 48 19
100 19 115 l0 29 65 -7 c43 -5 65 -4 65 3 0 6 6 12 13 14 7 2 48 41 91 87 72
77 136 181 136 220 0 8 6 11 16 7 9 -3 25 -6 37 -6z"/>
<path d="M7340 3634 c-36 -25 -72 -49 -80 -54 -13 -8 -13 -11 2 -26 17 -17 21
-15 88 31 39 27 73 52 76 56 5 9 -6 39 -15 39 -3 0 -35 -21 -71 -46z"/>
<path d="M8431 3310 c-98 -94 -112 -112 -101 -125 7 -9 17 -14 21 -13 4 2 58
52 119 112 87 86 108 112 99 122 -6 8 -14 14 -18 14 -3 -1 -57 -50 -120 -110z"/>
<path d="M3149 3273 c-28 -7 -11 -43 20 -43 48 0 92 -33 133 -101 37 -62 78
-171 78 -210 0 -14 7 -19 25 -19 24 0 26 2 19 38 -26 142 -102 280 -174 317
-30 15 -79 23 -101 18z"/>
<path d="M1814 2380 c-97 -30 -180 -123 -236 -264 -29 -73 -32 -92 -33 -186 0
-98 2 -108 28 -153 74 -126 337 -214 572 -192 71 6 82 10 111 39 46 46 67 126
67 256 1 173 -40 287 -141 392 -78 82 -142 111 -251 115 -47 1 -100 -2 -117
-7z m231 -64 c136 -62 219 -202 232 -387 6 -91 -8 -203 -32 -249 -14 -27 -70
-59 -82 -46 -3 3 -12 1 -20 -6 -17 -14 -163 -4 -253 18 -97 24 -220 84 -257
127 -61 69 -64 184 -10 328 55 146 121 212 242 243 38 9 130 -5 180 -28z"/>
<path d="M2321 1700 c-38 -84 -75 -115 -227 -191 -86 -44 -109 -51 -160 -52
-73 0 -136 29 -160 74 -8 17 -13 33 -10 37 8 8 -14 32 -30 32 -10 0 -14 -13
-14 -41 0 -36 6 -48 43 -84 93 -94 232 -86 418 25 39 23 90 59 112 79 42 38
102 153 93 177 -12 30 -34 11 -65 -56z"/>
<path d="M3888 1132 c-42 -8 -7 -63 131 -206 149 -153 167 -184 192 -328 22
-122 64 -224 119 -288 l29 -35 1 36 c0 20 3 57 6 83 6 44 6 46 -19 46 -16 0
-27 -6 -29 -17 -6 -31 -48 95 -63 189 -22 137 -49 184 -174 312 -60 61 -124
134 -143 161 -22 35 -39 50 -50 47z"/>
<path d="M7314 945 c-16 -11 -15 -15 11 -49 57 -75 170 -152 390 -265 195
-101 320 -187 436 -299 85 -83 102 -95 116 -85 14 11 12 17 -22 55 -122 138
-273 247 -526 379 -193 101 -272 153 -341 227 -41 43 -49 48 -64 37z"/>
</g>
</svg>
