<?xml version="1.0" standalone="no"?>
<!DOCTYPE svg PUBLIC "-//W3C//DTD SVG 20010904//EN"
 "http://www.w3.org/TR/2001/REC-SVG-20010904/DTD/svg10.dtd">
<svg version="1.0" xmlns="http://www.w3.org/2000/svg"
 width="1257.000000pt" height="1280.000000pt" viewBox="0 0 1257.000000 1280.000000"
 preserveAspectRatio="xMidYMid meet">
<metadata>
Created by potrace 1.15, written by Peter Selinger 2001-2017
</metadata>
<g transform="translate(0.000000,1280.000000) scale(0.100000,-0.100000)"
fill="#338c9e" stroke="none">
<path d="M7488 12632 c-221 -163 -227 -168 -232 -207 -9 -65 -26 -531 -36
-955 -5 -223 -14 -415 -20 -440 -15 -59 -44 -90 -86 -90 -56 0 -56 4 -45 272
6 134 13 426 17 649 l7 405 -104 86 c-122 100 -161 122 -198 113 -23 -6 -153
-88 -192 -122 -14 -11 -17 -59 -23 -336 -9 -454 -36 -1061 -47 -1071 -2 -3
-59 3 -127 11 -68 8 -126 12 -129 9 -3 -3 -9 -153 -14 -333 -23 -928 -56
-1921 -65 -1961 -4 -19 -8 -21 -18 -13 -20 17 -37 94 -43 198 -5 75 -3 97 11
117 24 38 20 96 -12 157 -24 45 -34 55 -67 65 l-40 11 42 21 c49 25 83 66 83
98 0 13 -25 71 -55 129 l-55 105 27 12 c16 7 31 17 35 23 13 17 -2 63 -54 171
-58 119 -66 165 -44 250 36 139 10 243 -65 266 -29 8 -45 8 -69 -2 -38 -16
-46 -31 -77 -144 -13 -50 -33 -100 -44 -112 -23 -24 -39 -75 -39 -122 0 -44
-32 -131 -67 -184 -47 -68 -63 -123 -74 -239 -5 -62 -17 -129 -28 -157 -11
-27 -24 -98 -30 -158 -10 -105 -15 -125 -87 -324 -25 -69 -31 -139 -14 -171
12 -21 44 -25 84 -9 14 5 27 6 30 2 2 -4 -11 -43 -30 -87 -42 -96 -42 -121 -4
-173 36 -51 60 -64 99 -56 27 6 31 3 36 -22 10 -48 20 -59 56 -59 27 0 38 7
56 34 l23 34 0 -57 c0 -134 -40 -167 -695 -586 -685 -438 -903 -597 -1061
-778 -237 -271 -221 -334 118 -447 l126 -43 189 193 c103 106 231 228 284 271
95 78 405 271 416 260 4 -3 -12 -44 -35 -90 -29 -59 -55 -94 -85 -119 -29 -24
-55 -58 -76 -103 -45 -95 -77 -138 -193 -261 -116 -122 -144 -166 -134 -207
17 -69 130 -147 291 -200 197 -66 440 -97 900 -115 322 -14 549 -43 686 -90
83 -28 75 -46 -47 -106 -56 -27 -140 -78 -187 -113 -123 -89 -168 -110 -288
-131 -57 -10 -180 -44 -273 -75 -210 -71 -316 -86 -474 -68 -199 23 -331 65
-620 200 l-184 86 7 151 c9 184 6 195 -43 195 -70 0 -104 -43 -117 -145 -10
-81 -26 -111 -66 -119 -67 -13 -204 -121 -449 -354 l-115 -109 -57 108 c-32
60 -58 112 -58 117 0 4 65 77 146 162 193 206 258 291 250 325 -10 40 -88 107
-189 163 -170 95 -159 99 -472 -172 -185 -160 -235 -197 -272 -199 -23 -2 -31
7 -60 58 -19 33 -46 70 -61 82 -29 23 -30 21 23 38 38 12 47 123 14 186 -18
36 -20 55 -17 174 3 125 2 135 -19 157 -35 37 -44 75 -53 209 -9 123 -27 199
-49 199 -22 0 -50 -40 -66 -92 -13 -43 -23 -143 -35 -370 0 -4 -7 -5 -15 -1
-43 16 -98 -99 -119 -248 -8 -57 -22 -118 -30 -135 -12 -23 -17 -73 -19 -205
-3 -152 -6 -180 -24 -219 -24 -48 -22 -65 6 -51 22 12 116 147 136 194 16 38
13 43 -47 80 -37 23 -42 48 -23 114 21 70 47 109 80 117 30 8 31 15 4 91 -25
71 -21 126 12 161 12 13 32 24 45 24 42 0 47 21 53 214 5 134 10 188 20 200
25 30 33 1 42 -137 6 -94 15 -153 29 -194 18 -49 20 -71 14 -145 -6 -75 -4
-92 13 -125 39 -76 37 -133 -6 -133 -25 0 -31 -19 -31 -96 0 -69 20 -104 59
-104 25 0 29 -14 23 -77 -4 -40 0 -61 17 -93 29 -56 27 -74 -16 -120 -47 -53
-392 -285 -404 -273 -5 5 -4 42 2 91 10 65 9 84 -1 97 -31 37 -59 11 -66 -61
-14 -154 -90 -230 -634 -635 -441 -329 -879 -672 -982 -770 -78 -74 -31 -129
50 -58 18 16 37 27 43 24 5 -4 9 -66 9 -138 -1 -201 -9 -215 -365 -667 -353
-448 -430 -556 -492 -685 -40 -84 -53 -173 -34 -240 35 -130 352 -320 761
-455 89 -30 370 -103 375 -98 2 2 50 89 107 193 211 382 240 429 285 446 49
18 213 -44 213 -81 0 -23 -65 -172 -147 -334 -71 -142 -123 -262 -123 -287 0
-40 270 -142 380 -143 75 -1 128 22 310 137 147 92 240 171 240 202 0 42 6 45
-240 -111 -199 -126 -238 -144 -304 -144 -48 0 -162 33 -309 89 l-29 11 35 63
c18 34 74 136 123 227 50 92 107 183 130 207 l40 43 70 -3 c63 -2 73 1 114 29
76 54 238 228 706 764 248 283 490 552 537 598 106 101 123 104 183 36 34 -39
44 -46 65 -41 26 7 146 146 189 219 20 34 20 39 6 66 -8 15 -22 35 -32 43 -9
8 -23 29 -31 47 -12 30 -12 37 2 58 17 27 35 29 100 12 41 -11 46 -10 69 11
68 64 55 331 -19 419 -28 33 -31 63 -25 216 l4 89 -37 32 c-71 61 -83 142 -31
205 l26 30 -31 92 -31 91 24 31 c51 66 344 354 397 389 30 21 68 39 85 40 29
2 29 2 28 -53 -2 -69 -48 -214 -125 -391 -70 -162 -75 -208 -32 -260 l27 -32
-28 -166 c-19 -113 -31 -231 -37 -371 -9 -196 -11 -207 -38 -260 -53 -103
-115 -333 -127 -469 -4 -49 -14 -88 -27 -109 -19 -32 -20 -45 -14 -250 8 -299
28 -425 68 -437 11 -4 35 -1 54 5 19 6 39 9 45 5 14 -9 12 -82 -5 -200 -18
-129 -20 -228 -2 -223 26 9 39 104 44 331 4 157 2 232 -5 239 -8 8 -14 3 -23
-16 -14 -30 -66 -66 -97 -66 -50 0 -46 51 14 189 31 69 30 74 -7 88 l-32 12 7
71 c3 38 3 70 -1 70 -3 0 -15 -7 -25 -17 -17 -15 -18 -14 -18 23 0 25 13 67
35 113 25 52 35 86 35 121 0 64 34 259 59 341 12 36 30 76 41 89 11 13 27 49
36 79 8 31 22 79 29 107 8 28 23 58 33 67 14 13 98 37 130 37 3 0 -4 10 -15
22 -31 35 -40 58 -48 121 -5 35 -12 57 -19 55 -6 -2 -27 -36 -46 -76 -19 -39
-38 -72 -42 -72 -22 0 7 201 63 433 22 93 39 178 37 190 -2 15 -11 23 -28 25
-83 12 -60 96 41 147 27 14 56 37 66 51 16 25 15 29 -7 95 -24 69 -24 70 -6
117 10 26 24 65 32 86 8 21 19 96 24 165 12 170 45 271 87 271 14 0 15 -14 9
-137 -7 -158 2 -245 43 -418 16 -66 26 -123 22 -127 -4 -4 -21 -3 -37 4 -75
28 -83 -23 -23 -146 47 -98 50 -143 9 -138 -78 9 -75 11 -73 -35 1 -23 26
-104 57 -183 61 -154 68 -190 36 -190 -47 0 -48 -49 -9 -323 11 -77 18 -146
15 -154 -5 -11 -15 -14 -35 -10 -52 11 -56 -5 -55 -222 0 -153 4 -210 18 -260
9 -35 14 -66 11 -69 -3 -3 -35 2 -71 11 -36 10 -69 15 -74 12 -26 -16 8 -167
65 -281 59 -121 69 -167 50 -231 -28 -95 -137 -171 -204 -143 -67 28 -73 3
-61 -242 10 -188 20 -246 46 -273 30 -29 33 -14 9 54 -13 38 -26 98 -30 133
-11 107 23 206 66 193 23 -8 58 10 85 44 17 20 31 26 62 26 45 0 82 -27 109
-79 21 -40 13 -138 -16 -193 -21 -42 -29 -123 -12 -123 22 0 71 152 71 223 0
67 16 51 24 -25 9 -86 35 -174 57 -194 30 -27 34 -9 9 48 -16 37 -24 79 -27
138 -5 111 6 134 67 138 61 5 117 -13 137 -44 15 -23 15 -48 4 -287 -12 -273
-32 -969 -28 -974 2 -1 31 -12 67 -25 35 -13 65 -28 67 -35 6 -18 -143 -89
-211 -102 -66 -12 -103 -6 -244 40 -51 17 -114 32 -140 32 -44 2 -47 0 -50
-25 -4 -36 23 -52 122 -73 113 -23 382 -22 512 2 133 24 214 23 289 -6 33 -12
155 -74 270 -136 116 -62 223 -119 239 -125 28 -10 32 -8 125 88 53 54 154
160 226 236 194 208 240 222 420 129 273 -141 302 -152 450 -174 88 -13 159
-3 192 25 15 13 30 43 39 76 18 72 63 143 155 248 132 152 328 349 358 362 26
10 35 9 73 -13 61 -35 149 -47 344 -47 177 1 194 9 59 29 -275 42 -478 124
-526 213 -25 46 54 132 144 157 36 11 53 10 95 -2 27 -9 53 -13 56 -10 16 16
1 44 -45 86 -46 42 -49 48 -38 68 32 60 178 187 200 173 5 -3 16 -20 25 -39
42 -88 181 -66 249 39 45 71 58 80 103 72 51 -8 70 7 121 93 23 39 50 75 61
81 24 13 61 14 195 6 114 -8 143 -1 132 28 -9 23 -48 35 -142 47 -88 11 -178
33 -242 60 -42 18 -57 39 -29 39 23 0 38 27 51 99 19 100 57 169 103 188 35
14 45 14 167 -11 213 -43 443 -34 536 20 46 27 69 64 119 191 24 59 89 202
146 317 110 222 130 281 69 213 -40 -46 -159 -277 -266 -515 -42 -95 -79 -176
-82 -178 -5 -6 -433 31 -542 47 -132 18 -209 49 -238 93 -9 14 -26 60 -38 103
-39 143 -61 163 -178 163 -83 0 -79 -7 -73 140 l4 105 -32 40 -32 40 6 270 c8
304 6 316 -65 458 l-40 78 83 38 c183 84 221 87 355 28 241 -106 325 -103 510
16 81 52 198 112 288 147 86 34 123 59 186 129 37 40 63 61 78 61 37 0 628
-196 709 -234 40 -20 75 -42 78 -50 12 -31 -58 -138 -205 -310 -153 -179 -221
-272 -221 -301 0 -30 48 14 171 157 66 75 135 149 155 164 37 29 132 165 158
228 24 59 21 94 -14 126 -69 64 -305 157 -547 215 -161 39 -223 65 -223 95 0
44 108 42 421 -10 211 -35 284 -37 284 -5 0 39 -60 56 -242 66 -241 14 -250
16 -257 42 -17 63 4 485 27 540 30 71 158 123 239 96 56 -18 118 -81 150 -151
27 -59 54 -82 85 -72 10 3 69 26 131 51 153 61 246 77 336 58 151 -32 346
-130 346 -173 0 -12 -95 -147 -153 -217 -181 -221 -267 -305 -312 -305 -12 0
-56 15 -96 34 -96 44 -129 53 -139 35 -39 -61 179 -167 275 -133 56 19 167
135 374 389 135 166 140 199 41 296 -68 66 -231 153 -315 168 -53 10 -95 46
-95 81 0 32 16 32 102 -4 46 -19 114 -43 152 -55 68 -21 166 -28 166 -13 0 27
-82 70 -204 106 -52 16 -85 31 -80 36 5 5 74 40 154 77 191 89 216 90 345 16
50 -29 113 -57 140 -63 114 -26 163 -43 212 -76 71 -46 80 -65 48 -102 -74
-88 -330 -120 -453 -58 -60 31 -68 31 -76 9 -5 -11 9 -32 46 -68 97 -94 185
-103 364 -37 132 48 284 123 284 140 0 9 -45 59 -100 111 -55 53 -100 101
-100 108 0 19 65 53 101 53 41 0 110 -31 204 -92 140 -90 213 -118 317 -118
60 0 69 3 87 26 43 55 26 65 -93 57 -82 -6 -86 -5 -158 31 -80 39 -180 121
-202 165 -19 36 -4 61 35 61 45 0 85 25 98 61 17 48 13 206 -8 369 -31 232
-45 276 -92 292 -12 4 -12 9 0 31 12 22 12 34 1 69 -30 103 -149 297 -255 418
-90 103 -92 106 -70 143 13 23 19 52 19 107 1 69 -2 79 -26 109 -26 30 -38 63
-68 178 -5 22 -18 51 -28 63 -42 52 -88 -23 -147 -240 -48 -178 -57 -189 -99
-117 -39 66 -42 98 -15 162 21 51 22 61 11 112 -9 43 -21 66 -56 103 -36 38
-46 57 -51 96 -9 65 -12 73 -30 80 -21 8 -61 -29 -87 -80 -11 -22 -35 -92 -54
-157 -40 -138 -64 -198 -91 -221 -52 -47 -426 -172 -536 -180 -25 -1 -42 3
-48 12 -6 10 -8 106 -4 260 3 135 10 427 15 650 16 645 16 866 1 884 -21 25
-79 36 -193 36 l-108 0 0 325 c0 179 -2 325 -4 325 -3 0 -56 11 -120 25 -64
14 -144 25 -180 25 l-63 0 -7 -37 c-3 -21 -10 -177 -16 -348 -20 -599 -25
-634 -87 -650 -39 -9 -72 -43 -78 -79 -3 -17 -10 -79 -15 -139 -5 -59 -14
-116 -20 -127 -10 -18 -13 -19 -38 -6 -15 7 -83 30 -151 50 -134 40 -199 68
-208 92 -3 8 4 365 16 792 12 427 21 828 21 889 0 130 6 121 -120 173 -199 83
-631 220 -692 220 -10 0 -48 -18 -84 -40 -36 -22 -70 -40 -75 -40 -19 0 -20
61 -5 406 9 197 19 474 22 614 l7 255 -226 93 c-124 50 -227 92 -229 91 -1 0
-105 -76 -230 -167z m435 -2 c70 -30 127 -56 127 -59 0 -8 -222 -127 -296
-159 -78 -35 -184 -36 -264 -4 -75 30 -83 36 -76 58 6 19 203 171 267 206 49
27 94 19 242 -42z m187 -655 c-11 -485 -21 -618 -46 -666 -8 -17 -43 -48 -77
-69 -34 -22 -70 -45 -80 -52 -42 -31 -56 -243 -86 -1288 -8 -271 -15 -330 -40
-330 -9 0 -27 36 -48 100 -21 62 -57 107 -92 115 -21 4 -31 14 -36 33 -22 86
16 1397 60 2102 21 325 22 329 60 365 36 34 248 147 327 175 l53 19 8 -22 c5
-12 3 -229 -3 -482z m-1209 369 c42 -21 56 -56 36 -87 -8 -13 -29 -30 -46 -37
-27 -11 -38 -10 -87 10 -30 13 -62 34 -71 46 -14 22 -14 26 1 50 10 14 27 29
39 34 28 12 90 4 128 -16z m575 -19 c100 -29 135 -50 145 -87 3 -13 -2 -261
-12 -549 -10 -288 -27 -837 -39 -1219 -12 -382 -23 -700 -25 -706 -2 -8 -333
-40 -370 -35 -6 0 -12 107 -15 284 -5 297 -8 317 -50 317 -10 0 -23 -7 -30
-15 -18 -22 -39 -189 -53 -430 l-12 -210 -174 -5 -174 -5 -98 -206 c-122 -258
-189 -414 -197 -459 -5 -31 -4 -34 11 -22 9 8 21 11 27 7 13 -8 13 -238 0
-475 -5 -96 -12 -231 -16 -299 l-7 -124 -76 7 c-115 9 -260 36 -320 59 -72 26
-101 56 -101 103 0 34 2 36 28 31 15 -3 86 -26 157 -50 72 -25 145 -48 163
-52 l32 -7 0 634 c0 1149 30 2005 71 2054 8 9 45 14 127 16 l117 3 7 245 c17
580 39 1105 47 1113 4 4 51 -22 105 -58 119 -79 135 -81 223 -24 35 23 67 39
70 35 7 -7 -14 -1151 -24 -1283 l-6 -83 122 0 121 0 0 209 c0 343 35 1142 56
1273 6 36 8 38 44 38 21 0 78 -11 126 -25z m1062 -1039 c174 -53 406 -149 430
-179 16 -19 4 -46 -34 -76 -48 -38 -92 -30 -363 64 -194 68 -215 68 -294 5
-124 -99 -181 -119 -245 -86 -33 17 -72 65 -72 88 0 27 114 114 220 168 105
55 213 59 358 16z m-188 -806 c-17 -867 -31 -1335 -39 -1343 -5 -5 -27 1 -50
12 -54 28 -59 52 -36 176 39 215 28 369 -34 445 -59 73 -90 44 -116 -107 -9
-49 -20 -104 -26 -123 -19 -62 -91 -209 -106 -214 -10 -4 -23 12 -41 52 l-27
57 1 410 c1 510 25 1135 44 1135 4 0 35 -19 69 -41 80 -54 99 -51 244 39 l112
69 8 -26 c4 -14 3 -258 -3 -541z m716 -58 c-20 -687 -39 -1049 -58 -1068 -3
-2 -27 3 -54 11 -117 34 -122 65 -105 678 14 532 26 743 46 812 15 54 45 87
130 148 l50 36 3 -25 c2 -14 -4 -280 -12 -592z m-393 546 l158 -62 -6 -166
c-3 -91 -12 -367 -20 -615 -8 -247 -18 -494 -21 -548 l-7 -98 -198 -175 c-158
-139 -201 -172 -206 -158 -9 24 4 1132 17 1404 13 282 26 434 40 460 19 35 73
25 243 -42z m1334 -1020 c-9 -708 -27 -1115 -53 -1183 -4 -9 -21 -22 -40 -30
-18 -7 -46 -32 -61 -54 -15 -22 -31 -40 -35 -41 -5 0 -8 172 -8 383 -1 210 -5
402 -9 427 -6 27 -18 51 -33 63 -12 10 -31 24 -40 32 -29 24 -32 81 -19 370
16 365 29 537 44 552 21 20 79 31 171 32 l89 1 -6 -552z m-2883 241 c11 -55 7
-200 -9 -329 -9 -68 -17 -126 -20 -128 -18 -18 -18 425 0 471 11 26 22 21 29
-14z m-1168 -15 c39 -41 42 -64 14 -104 -44 -62 -34 -192 26 -337 19 -46 34
-89 34 -96 0 -7 -13 -18 -30 -24 -33 -12 -50 -46 -50 -99 0 -45 46 -96 79 -87
18 5 25 -4 52 -61 17 -37 29 -69 26 -72 -3 -3 -23 4 -44 14 -47 24 -68 16 -79
-31 -22 -99 24 -216 70 -178 11 10 18 7 30 -11 24 -33 20 -57 -11 -70 -16 -7
-30 -14 -33 -16 -3 -2 -5 -61 -5 -132 0 -108 -3 -131 -17 -147 -23 -26 -23
-60 2 -100 15 -25 32 -36 73 -48 80 -23 113 -69 77 -105 -24 -24 -21 -39 21
-138 15 -36 25 -70 23 -74 -12 -20 -54 -6 -83 27 -17 20 -31 39 -31 44 0 4
-11 20 -24 34 -20 22 -30 25 -59 20 -27 -4 -47 1 -86 23 -38 22 -53 26 -62 17
-14 -14 -17 -327 -5 -436 9 -80 33 -90 28 -12 -3 67 7 75 91 75 82 0 317 -36
365 -55 40 -17 40 -29 1 -88 -71 -108 -217 -210 -451 -318 -95 -44 -222 -107
-283 -142 -178 -101 -274 -145 -354 -164 -41 -10 -97 -32 -125 -49 -212 -130
-278 -172 -326 -207 -101 -74 -224 -180 -366 -317 -163 -158 -209 -186 -288
-175 -109 14 -236 72 -236 106 0 78 186 282 411 450 498 372 1287 857 1396
859 13 0 24 -8 28 -20 4 -11 10 -18 15 -15 12 8 19 58 35 251 19 228 19 315 1
339 -13 18 -15 18 -38 3 -15 -10 -36 -43 -51 -80 l-25 -63 -7 37 c-10 54 -23
61 -84 42 -102 -30 -108 9 -21 125 74 98 94 140 80 176 -14 37 -35 41 -112 21
-37 -10 -72 -15 -78 -11 -13 8 13 71 43 104 28 31 77 51 122 51 l36 0 -40 53
c-62 82 -94 160 -87 210 14 92 80 195 145 225 22 10 37 25 39 38 4 28 -50 74
-88 74 -16 0 -32 5 -35 10 -16 25 95 150 133 150 10 0 26 6 35 13 17 11 16 16
-3 71 -11 33 -20 74 -20 93 0 46 25 91 55 99 31 8 45 53 45 142 0 74 20 122
52 122 11 0 36 -16 54 -36z m4390 -691 c-11 -492 -35 -1149 -46 -1259 -20
-197 -38 -224 -166 -244 -67 -11 -164 -5 -164 9 0 4 13 20 30 36 46 44 63 100
59 194 -4 71 -7 83 -32 109 -37 39 -42 80 -28 228 11 121 34 610 47 990 l6
211 132 15 c72 9 140 16 150 17 18 1 19 -8 12 -306z m-2162 214 c18 -25 21
-41 20 -120 -1 -51 -13 -158 -28 -238 -32 -179 -34 -229 -7 -229 69 0 114 -55
88 -108 -13 -28 -28 -38 -69 -47 -15 -3 -35 -16 -44 -30 -25 -38 -3 -110 60
-202 78 -113 106 -165 106 -199 0 -42 -6 -45 -47 -26 -33 16 -36 16 -50 -3
-11 -15 -14 -40 -11 -96 3 -67 8 -86 48 -162 l44 -86 -22 -30 c-22 -30 -22
-30 -1 -36 12 -4 30 0 46 10 23 15 25 22 21 67 -4 39 -16 65 -56 123 l-51 73
30 12 c16 7 43 25 59 40 30 28 30 29 30 143 l0 115 63 61 c35 34 93 97 128
141 35 44 66 80 70 80 3 0 22 -138 43 -307 43 -355 56 -424 87 -484 18 -36 22
-60 22 -125 -1 -108 -20 -150 -82 -177 -76 -33 -240 -67 -357 -74 -103 -5
-114 -4 -141 15 -61 43 -103 158 -122 334 -14 122 -14 608 0 708 23 177 25
159 -21 266 -55 129 -53 156 25 310 l58 115 -7 85 c-5 61 -4 90 5 100 17 21
38 14 63 -19z m-471 -107 c109 -189 259 -461 282 -514 l25 -56 -23 -14 c-34
-23 -230 -79 -487 -140 -129 -31 -280 -68 -334 -83 l-99 -27 -29 34 c-66 78
-128 211 -254 543 -54 144 -79 220 -71 222 10 3 345 48 882 118 53 7 58 3 108
-83z m-931 -354 c183 -465 198 -527 197 -785 0 -91 -4 -218 -9 -281 -13 -170
-29 -713 -40 -1335 -9 -512 -19 -687 -39 -723 -18 -32 -23 123 -16 490 l7 378
-116 0 -116 0 0 -262 c-1 -245 -10 -445 -26 -569 -9 -71 -37 -102 -91 -101
-23 0 -52 6 -64 12 l-21 12 3 473 4 473 -138 22 c-144 23 -280 31 -293 17 -14
-14 -23 -146 -24 -377 0 -124 -5 -288 -9 -364 -8 -117 -12 -142 -27 -153 -15
-11 -21 -11 -33 2 -18 18 -18 76 -2 435 6 129 11 352 11 496 l0 261 131 144
c200 219 279 318 311 385 53 114 58 167 67 684 6 334 12 491 22 530 7 30 49
125 93 210 44 85 84 165 90 177 6 13 13 23 16 23 3 0 53 -123 112 -274z m2994
157 c-3 -32 -10 -146 -17 -253 -16 -286 -11 -280 -96 -114 -84 164 -113 245
-113 314 0 44 5 56 29 81 28 28 34 29 116 29 l87 0 -6 -57z m-906 -84 c170
-47 280 -90 280 -110 0 -28 -118 -53 -320 -69 -171 -13 -212 -31 -253 -107
-33 -62 -54 -67 -91 -22 -41 48 -24 79 121 220 119 117 137 123 263 88z m786
-374 c124 -320 138 -397 83 -460 -39 -44 -119 -70 -394 -124 -311 -62 -447
-82 -522 -79 l-68 3 -11 35 c-30 91 -77 681 -56 694 24 14 162 35 312 46 190
14 476 28 549 26 l54 -1 53 -140z m-1288 -1 c4 -47 -27 -222 -41 -231 -12 -8
-60 47 -82 94 -14 30 -14 36 0 66 21 44 92 120 107 115 7 -3 14 -22 16 -44z
m-354 -78 c5 -21 -4 -204 -30 -629 -6 -84 -11 -110 -23 -116 -20 -11 -490
-143 -735 -206 -173 -45 -180 -46 -194 -29 -12 16 -13 78 -8 393 4 206 8 377
11 379 8 9 780 200 865 215 113 20 107 20 114 -7z m1921 -385 c-7 -147 -2
-177 40 -221 14 -14 28 -40 31 -58 6 -28 3 -33 -29 -52 -42 -25 -48 -40 -48
-115 0 -69 15 -118 53 -170 l29 -40 -29 -6 c-16 -3 -34 -9 -40 -13 -15 -9 -15
-82 0 -260 l11 -140 48 -52 c51 -57 69 -101 61 -152 -8 -56 -34 -53 -72 8 -14
22 -27 40 -31 40 -3 0 -4 -45 -1 -100 4 -88 3 -100 -12 -100 -24 0 -73 72
-136 205 -145 300 -222 649 -147 663 17 3 37 -49 37 -97 0 -27 26 -61 46 -61
19 0 55 51 52 74 -2 11 -14 26 -26 32 -37 18 -45 31 -44 65 0 22 9 39 27 53
20 16 26 29 23 51 -2 24 -7 29 -24 27 -28 -4 -39 24 -20 53 11 17 21 20 50 17
31 -4 36 -1 42 22 10 40 -8 79 -45 96 -30 13 -32 17 -27 50 6 37 116 265 148
306 34 43 40 20 33 -125z m1260 9 c44 -88 48 -113 29 -174 -17 -53 -17 -58 0
-113 29 -98 30 -103 13 -103 -25 0 -169 69 -194 92 -32 30 -29 68 12 146 45
88 65 146 65 192 0 20 3 40 7 44 10 10 39 -27 68 -84z m355 -163 c15 -78 33
-112 67 -129 56 -28 57 -84 1 -109 -25 -10 -35 -24 -43 -52 -14 -49 -31 -59
-72 -42 -46 20 -66 56 -67 126 -1 47 3 63 17 74 22 16 37 66 37 127 0 26 5 59
11 75 10 26 11 27 23 10 8 -9 19 -45 26 -80z m-1860 6 c0 -5 -7 -62 -16 -128
-18 -132 -34 -171 -34 -84 0 65 -16 128 -35 135 -20 8 -7 32 34 59 37 26 51
30 51 18z m-280 -172 c0 -55 -4 -111 -10 -125 -13 -36 -54 -53 -193 -82 -67
-14 -170 -36 -229 -50 -145 -34 -151 -33 -160 36 -8 61 5 207 19 221 18 18
444 94 546 98 l27 1 0 -99z m100 -47 c12 -31 13 -234 2 -234 -16 0 -63 110
-68 158 -3 26 -1 59 5 75 14 35 48 36 61 1z m1443 -42 c35 -38 165 -347 186
-442 7 -31 5 -42 -8 -54 -37 -33 -243 -127 -624 -285 -158 -66 -180 -68 -225
-27 -49 44 -151 261 -211 449 -26 81 -40 157 -28 157 1 0 189 47 417 104 228
57 426 106 440 109 14 2 28 5 31 6 3 0 13 -7 22 -17z m400 -108 c267 -106 269
-107 262 -133 -15 -59 -119 -328 -137 -353 -26 -37 -56 -36 -129 3 -71 38
-118 88 -157 166 -49 98 -148 404 -134 417 10 11 26 6 295 -100z m-1749 11
c-3 -22 -13 -51 -21 -65 -13 -23 -14 -20 -9 45 2 39 8 79 12 89 7 18 8 18 16
-5 5 -13 6 -42 2 -64z m-1542 -75 c31 -74 64 -167 74 -205 l17 -71 -27 -53
c-68 -133 -243 -388 -311 -450 -60 -55 -115 -80 -305 -136 -85 -25 -183 -55
-218 -67 -62 -22 -63 -22 -81 -2 -25 26 -44 80 -90 247 -62 227 -113 456 -114
521 l-2 60 75 28 c151 56 881 269 910 265 9 -1 38 -56 72 -137z m1469 -177
c123 -255 266 -574 273 -609 6 -27 3 -35 -26 -59 -18 -15 -61 -40 -95 -56 -76
-34 -639 -325 -746 -386 -44 -24 -84 -42 -91 -40 -20 8 -78 128 -155 319 -82
205 -130 319 -247 584 -46 106 -84 194 -84 198 0 10 156 54 285 80 137 28 757
134 788 135 13 1 38 -42 98 -166z m2216 55 c25 -27 102 -150 162 -261 l43 -79
-21 -301 c-33 -445 -39 -477 -34 -177 2 146 0 303 -4 350 l-8 85 -40 -2 c-22
-1 -85 -19 -140 -41 l-100 -40 -5 -358 c-4 -275 -8 -365 -18 -383 -22 -38 -34
-11 -44 96 -16 173 11 694 46 892 35 192 103 284 163 219z m-1722 -102 c58
-88 197 -469 220 -604 30 -171 9 -686 -30 -739 -13 -17 -16 -17 -62 7 -70 37
-139 109 -154 161 -9 37 -8 60 7 139 12 62 18 144 18 236 l1 140 36 60 c79
130 79 188 1 303 -33 48 -37 59 -35 112 2 36 -5 83 -17 121 -11 35 -20 69 -20
76 0 20 18 14 35 -12z m-1697 -108 c99 -166 343 -720 422 -963 37 -115 62
-161 90 -168 24 -6 25 -33 6 -207 -15 -148 -24 -134 -71 112 -51 262 -63 305
-93 328 -31 25 -53 25 -82 2 -19 -16 -23 -32 -31 -141 -8 -100 -15 -138 -40
-199 -25 -62 -31 -99 -40 -211 -11 -140 -23 -206 -39 -216 -19 -11 -28 33 -34
170 -8 151 -19 210 -44 239 -13 14 -18 46 -22 141 -4 105 -8 128 -26 152 -29
39 -51 40 -89 3 -35 -34 -39 -33 -50 20 -20 95 -120 200 -190 200 -24 0 -22
22 -61 -701 l-6 -115 48 -19 c69 -26 101 -51 126 -98 30 -57 31 -145 2 -184
-43 -58 -178 -106 -236 -84 l-28 11 0 187 c0 104 9 406 20 673 21 515 23 538
78 645 71 141 316 475 349 475 5 0 23 -24 41 -52z m-2328 -32 c0 -3 -43 -58
-95 -123 -99 -123 -134 -178 -122 -189 3 -4 26 -1 51 6 49 13 66 8 66 -20 0
-63 -188 -185 -452 -294 -93 -38 -113 -42 -124 -25 -13 22 -5 91 16 123 13 22
23 60 27 103 7 82 20 111 72 155 45 39 265 150 431 219 115 48 130 53 130 45z
m5147 -453 c-4 -208 -10 -394 -15 -413 -7 -32 -14 -38 -75 -62 -80 -32 -217
-72 -224 -64 -3 2 0 141 5 308 6 166 9 304 7 306 -5 5 -127 -34 -188 -60 -32
-14 -52 -30 -59 -47 -5 -14 -14 -143 -18 -286 -10 -307 -14 -341 -46 -361 -26
-18 -208 -84 -229 -84 -13 0 -14 38 -10 278 3 152 8 332 11 399 l6 121 356
147 c197 81 382 158 412 171 30 13 59 23 64 24 5 0 6 -154 3 -377z m197 316
c127 -64 142 -80 151 -161 9 -83 -11 -582 -25 -630 -16 -55 -37 -62 -96 -33
-73 37 -141 91 -159 124 -24 47 -35 152 -35 338 0 176 15 364 31 396 6 9 15
17 21 17 6 0 57 -23 112 -51z m-4291 -149 c49 -188 72 -298 82 -398 4 -34 14
-69 22 -77 8 -9 19 -48 25 -88 11 -78 6 -391 -7 -420 -11 -25 -141 -89 -173
-85 -25 3 -28 8 -33 58 -7 59 5 605 21 940 6 113 10 216 10 229 0 13 2 22 4
20 2 -2 24 -83 49 -179z m4967 -74 c0 -56 6 -97 17 -122 21 -49 24 -228 5
-261 -17 -31 -40 -29 -53 3 -24 65 -20 412 6 454 17 27 25 2 25 -74z m-337
-291 c-7 -104 -16 -201 -22 -215 -13 -28 -7 388 6 510 l8 65 9 -85 c6 -56 6
-150 -1 -275z m-6395 309 c29 -20 28 -50 -2 -138 -28 -79 -53 -267 -42 -310 9
-36 28 -29 39 15 11 44 31 59 79 59 101 0 151 -83 92 -153 -23 -27 -26 -38
-22 -86 4 -45 10 -58 32 -75 75 -58 87 -73 96 -111 13 -55 -1 -68 -58 -53 -68
17 -94 -21 -52 -75 25 -31 25 -33 -1 -40 -38 -10 -80 5 -115 41 -44 45 -65 39
-128 -38 -28 -33 -53 -60 -57 -60 -4 0 -5 24 -2 54 3 30 3 66 -1 80 -9 37 -41
34 -62 -6 -39 -78 -79 -96 -128 -57 -50 39 -29 109 43 139 17 7 31 16 31 21 0
4 -20 22 -44 40 -51 36 -71 76 -61 116 3 16 34 53 67 84 63 58 63 69 3 69 -45
0 -51 25 -19 86 27 51 42 65 104 94 15 7 24 22 57 95 12 26 29 45 50 55 39 18
39 20 13 89 -16 41 -18 56 -9 67 15 19 69 18 97 -2z m6510 -94 c5 -98 -14
-338 -31 -387 -16 -50 -34 -53 -43 -7 -9 50 2 333 17 409 21 116 52 108 57
-15z m-3986 -128 c9 -33 -7 -541 -17 -551 -6 -5 -76 -40 -157 -76 l-147 -67
-27 32 c-38 44 -69 54 -122 39 -37 -10 -45 -10 -53 2 -12 19 -11 269 1 344 8
49 15 65 42 87 73 62 363 190 469 207 4 1 9 -7 11 -17z m2083 -29 c8 -45 21
-63 45 -63 29 0 32 -27 21 -170 -6 -74 -14 -179 -17 -233 -5 -88 -8 -99 -29
-113 -31 -21 -74 -9 -87 25 -16 41 17 559 39 594 9 14 21 -3 28 -40z m-4034
20 c11 -12 15 -63 17 -201 7 -355 -29 -622 -83 -622 -11 0 -13 24 -12 123 1
110 -1 127 -23 172 -19 40 -25 70 -28 152 -3 82 -8 105 -22 118 -16 15 -21 15
-48 1 -21 -11 -37 -33 -57 -81 -15 -36 -32 -65 -36 -65 -16 0 -28 39 -39 125
-14 110 -7 155 28 187 22 20 133 73 212 101 32 11 78 6 91 -10z m210 -563 c-6
-85 -13 -165 -17 -177 -15 -52 -24 -16 -24 90 0 124 27 552 38 607 11 57 14
-350 3 -520z m339 355 c0 -168 -17 -504 -30 -580 -5 -30 -8 102 -6 335 1 212
6 393 10 403 18 39 26 -10 26 -158z m3364 138 c3 -21 5 -99 5 -173 -1 -132
-14 -225 -34 -225 -5 0 -18 17 -29 38 -40 75 -226 135 -290 93 -38 -24 -104
-168 -116 -251 -5 -38 -10 -142 -10 -230 0 -201 -15 -417 -34 -477 -25 -84
-45 -102 -209 -183 -83 -42 -157 -73 -164 -71 -18 7 -17 298 2 686 21 420 15
393 84 434 153 92 749 396 776 396 7 0 15 -17 19 -37z m-3514 1 c69 -28 75
-50 73 -265 -2 -280 -21 -383 -71 -396 -37 -9 -114 27 -131 61 -27 57 -24 560
4 606 9 15 79 12 125 -6z m4484 -36 c13 -114 -1 -345 -24 -388 -9 -17 -14 -19
-26 -9 -10 8 -14 36 -14 108 0 130 31 341 49 341 5 0 11 -24 15 -52z m-3909
-2 c14 -21 14 -41 5 -157 -6 -74 -14 -241 -18 -371 -6 -204 -9 -240 -24 -254
-19 -19 -73 -23 -90 -6 -22 22 -27 107 -28 455 l0 357 70 0 c62 0 71 -2 85
-24z m3795 -196 c0 -38 -4 -72 -10 -75 -6 -4 -10 23 -10 75 0 52 4 79 10 75 6
-3 10 -37 10 -75z m-4936 -103 c-6 -86 -5 -96 20 -148 26 -57 33 -103 17 -114
-5 -3 -12 -1 -16 5 -13 21 -25 9 -31 -32 -12 -70 -70 -106 -119 -74 -30 20
-32 50 -4 74 29 24 45 67 85 226 19 77 37 144 40 148 12 20 14 2 8 -85z m2987
56 c5 -15 14 -104 19 -198 14 -254 17 -271 51 -306 24 -24 29 -38 29 -77 0
-58 -5 -65 -55 -88 l-40 -19 -3 -110 c-4 -121 9 -226 40 -318 23 -70 27 -160
8 -183 -10 -11 -21 -13 -39 -8 -42 11 -62 7 -106 -25 -44 -31 -55 -31 -55 1 0
28 -36 58 -70 58 -37 0 -39 20 -10 103 25 70 25 71 -4 187 -25 102 -23 125 16
167 11 12 33 27 48 33 59 25 85 167 41 227 -20 27 -22 38 -17 78 4 26 22 82
41 124 41 98 55 166 53 261 -2 103 28 157 53 93z m-1444 -135 c-2 -29 -3 -6
-3 52 0 58 1 81 3 53 2 -29 2 -77 0 -105z m863 48 c0 -69 -31 -300 -42 -311
-12 -13 -7 354 6 374 14 22 36 -15 36 -63z m1469 24 c40 -19 43 -22 37 -51 -6
-30 -65 -127 -90 -149 -20 -16 -61 -3 -96 30 -37 34 -40 88 -10 138 33 54 86
65 159 32z m-4699 -36 c6 -14 10 -63 10 -109 0 -66 -4 -87 -18 -106 -18 -21
-21 -22 -68 -9 -170 46 -172 101 -8 215 59 41 72 42 84 9z m3431 -120 c6 -123
14 -164 33 -176 7 -5 10 -48 8 -131 -3 -92 1 -133 12 -163 8 -22 16 -84 19
-144 3 -90 8 -117 36 -184 17 -43 30 -80 29 -81 -2 -1 -16 -7 -33 -12 -17 -5
-36 -22 -43 -37 -15 -30 -65 -56 -107 -56 -34 0 -65 17 -65 35 0 33 -38 55
-95 55 -30 0 -55 3 -55 6 0 3 40 76 89 162 49 86 92 171 95 187 5 24 0 41 -23
75 -35 52 -38 85 -16 171 9 33 22 117 30 187 7 70 18 141 23 158 13 42 35 75
47 71 5 -2 13 -57 16 -123z m1415 18 c23 -14 43 -70 53 -146 13 -92 15 -256 3
-256 -5 0 -12 48 -15 106 -6 109 -22 154 -53 154 -33 0 -85 -30 -94 -55 -10
-26 -22 -147 -39 -390 -7 -106 -8 -89 -10 155 0 175 3 290 10 315 7 24 29 57
54 82 41 41 67 51 91 35z m-225 -182 c16 -29 19 -57 19 -170 -1 -205 -25 -420
-50 -435 -5 -3 -27 2 -50 11 -73 29 -75 36 -78 393 l-3 313 72 -38 c51 -28 77
-49 90 -74z m1129 80 c0 -30 -243 -149 -304 -150 -29 0 -29 0 -10 21 26 29
133 87 212 115 73 26 102 30 102 14z m-2820 -102 c0 -115 -18 -463 -26 -501
-3 -15 -10 -25 -15 -21 -26 16 -206 415 -216 480 -5 31 -3 34 48 60 83 42 162
73 187 74 21 0 22 -3 22 -92z m-13 -732 c134 -285 260 -550 279 -588 19 -38
34 -76 32 -83 -7 -31 -1092 -1235 -1102 -1224 -2 2 -127 220 -278 484 -433
758 -548 967 -548 1000 0 8 31 48 69 87 143 152 127 205 -21 69 -37 -34 -105
-85 -151 -114 -220 -139 -687 -349 -687 -310 0 12 575 582 680 674 175 154
315 254 529 378 132 77 542 291 556 291 5 0 -147 -156 -336 -347 -344 -347
-402 -414 -380 -436 8 -8 34 11 98 74 49 46 266 257 483 468 l395 383 69 -143
c37 -79 178 -378 313 -663z m-4158 724 c44 -12 242 -122 239 -132 -2 -4 -66
-74 -143 -155 -173 -182 -229 -220 -290 -197 -17 7 -55 75 -74 136 -26 81 -38
78 -226 -57 -134 -95 -195 -132 -195 -117 0 26 257 272 445 425 74 61 156 107
190 107 11 0 35 -4 54 -10z m2608 -51 c22 -8 24 -12 13 -19 -28 -18 -110 -10
-110 10 0 18 58 24 97 9z m3448 -41 c17 -116 5 -378 -16 -378 -17 0 -24 58
-24 215 0 157 7 215 24 215 5 0 12 -24 16 -52z m-1598 1 c50 -24 51 -40 3 -50
-45 -10 -100 13 -100 40 0 35 37 39 97 10z m751 -414 c0 -267 -13 -338 -49
-268 -10 20 -14 68 -15 163 0 119 -3 140 -22 175 -35 63 -26 117 22 129 14 3
30 19 38 36 l13 31 7 -43 c3 -24 6 -124 6 -223z m-5386 -116 c176 -295 218
-379 218 -436 l0 -43 -442 -453 c-703 -719 -1056 -1070 -1068 -1062 -36 22
-393 644 -516 898 -46 96 -47 98 -28 118 50 56 347 282 684 521 430 305 996
696 1004 694 5 -1 72 -108 148 -237z m1065 40 c32 -12 137 -57 234 -100 205
-90 302 -124 414 -144 160 -29 242 -17 558 86 120 38 223 69 228 67 19 -6 -51
-88 -273 -318 -284 -294 -410 -432 -437 -480 l-22 -39 24 -16 c17 -11 43 -15
83 -13 58 3 58 3 65 -27 10 -44 10 -385 0 -495 -17 -182 -40 -221 -174 -291
-108 -55 -174 -101 -275 -188 -84 -73 -114 -85 -131 -53 -13 25 -62 262 -56
272 3 4 19 3 35 -3 25 -10 33 -9 41 3 18 27 3 169 -29 277 -46 157 -48 175
-19 209 55 65 59 180 12 296 -27 65 -46 170 -64 340 -11 109 -27 153 -56 153
-26 0 -57 -56 -101 -187 -19 -59 -44 -118 -54 -130 -16 -20 -20 -21 -36 -8
-32 27 -74 103 -74 135 0 26 6 34 33 46 44 19 57 77 32 146 -31 87 -30 100 5
156 18 29 33 64 33 78 0 14 -16 63 -35 110 -46 108 -53 139 -34 139 9 0 41
-10 73 -21z m3399 -105 c50 -28 95 -79 88 -98 -13 -35 -89 -20 -131 25 -23 25
-43 70 -43 95 0 19 28 12 86 -22z m1496 9 c10 -9 18 -28 18 -43 0 -42 -38 -68
-121 -86 -90 -19 -145 -46 -241 -118 -117 -88 -293 -156 -403 -156 -63 0 -86
38 -46 74 17 15 25 16 54 7 42 -14 58 -9 123 41 117 88 375 226 514 274 80 28
79 28 102 7z m-1264 -184 l44 -42 62 7 c99 10 165 -25 112 -59 -35 -23 -232
-65 -306 -65 -104 0 -134 36 -90 107 21 36 94 93 118 93 8 0 35 -19 60 -41z
m-3449 -261 c5 -18 15 -100 20 -183 12 -164 21 -224 51 -325 24 -79 25 -110 6
-110 -29 0 -47 13 -77 56 -35 52 -52 55 -69 14 -20 -49 -6 -103 68 -253 107
-217 127 -295 72 -289 -81 9 -75 14 -78 -65 -2 -57 3 -88 24 -149 25 -73 26
-86 22 -213 -4 -111 -8 -145 -26 -185 -28 -61 -27 -76 1 -123 19 -33 22 -52
22 -143 0 -120 -14 -163 -55 -168 -37 -4 -105 45 -133 96 l-25 45 -7 -31 c-7
-36 -22 -50 -65 -62 -59 -17 -61 -13 -58 144 3 158 2 162 -92 307 -22 34 -40
65 -40 68 1 3 23 17 51 29 76 36 84 59 83 227 -1 87 -7 164 -17 204 -17 73
-15 86 25 121 62 55 77 274 29 402 -23 61 -22 78 8 78 26 0 41 21 48 67 7 48
27 87 69 139 47 57 70 116 84 214 17 121 38 152 59 88z m-1042 -395 c-3 -170
-11 -344 -17 -388 -12 -94 -29 -165 -40 -165 -16 0 -17 100 -7 392 9 231 8
301 -1 310 -9 9 -24 -1 -68 -47 -84 -90 -121 -151 -133 -219 -6 -34 -11 -194
-11 -370 l0 -311 -318 -365 c-361 -416 -796 -909 -900 -1020 -38 -41 -74 -71
-78 -67 -11 10 -9 106 5 397 6 118 11 305 12 415 l0 200 131 120 c196 179 899
877 1178 1169 134 141 246 256 249 256 2 0 1 -138 -2 -307z m2588 99 c43 -75
117 -202 163 -282 116 -199 362 -635 457 -808 l78 -144 -7 -306 c-7 -325 -10
-362 -32 -362 -20 0 -33 31 -43 103 -14 96 -56 163 -98 155 -51 -9 -121 -224
-132 -406 -8 -121 -9 -123 -59 -222 -65 -127 -68 -147 -43 -240 12 -41 21 -95
21 -120 0 -50 -68 -261 -86 -267 -43 -14 -52 239 -34 957 l13 495 -146 267
c-212 388 -319 553 -365 565 -46 11 -135 -19 -301 -103 -91 -46 -171 -84 -177
-84 -7 0 -14 10 -18 23 -7 26 -6 258 3 485 l6 164 355 133 c195 74 357 134
360 134 3 0 41 -61 85 -137z m-2495 -108 c9 -129 25 -211 56 -282 18 -40 44
-129 44 -149 0 -38 -80 -69 -117 -45 -24 15 -35 70 -40 197 -5 124 10 395 23
417 15 25 26 -18 34 -138z m-210 -200 c14 -309 -3 -417 -74 -483 -45 -42 -51
-21 -49 159 2 170 15 315 39 419 16 69 50 129 66 113 5 -5 14 -99 18 -208z
m4552 -189 c-7 -60 -21 -128 -38 -170 -14 -38 -35 -113 -45 -165 -11 -52 -28
-112 -39 -132 -28 -54 -39 -131 -49 -343 -8 -173 -3 -336 15 -481 5 -40 2 -59
-14 -90 -19 -35 -161 -210 -166 -202 0 2 3 229 7 506 5 278 5 548 1 604 l-9
100 -62 -63 c-34 -35 -96 -104 -137 -154 l-76 -90 0 -65 c0 -36 -9 -325 -20
-643 l-19 -578 -98 -122 c-175 -217 -193 -228 -271 -161 -48 41 -52 54 -17 54
44 0 50 31 39 203 -6 83 -8 165 -4 181 5 27 10 30 47 31 32 1 51 9 85 37 64
52 116 133 128 197 6 30 10 205 10 395 l0 341 -55 -60 c-76 -83 -144 -172
-160 -211 -17 -42 -23 -96 -35 -334 -14 -269 -13 -267 -66 -293 -24 -11 -47
-17 -51 -13 -5 4 -6 206 -4 449 l3 441 177 200 c198 226 480 538 740 823 l176
193 9 -143 c6 -94 5 -176 -2 -242z m-6555 210 c40 -28 92 -111 313 -505 l223
-395 -12 -390 c-17 -552 -36 -863 -55 -883 -3 -2 -26 3 -52 13 -81 31 -80 22
-76 531 l3 442 -137 71 c-75 39 -140 71 -144 71 -23 0 -32 -86 -40 -370 -15
-481 -14 -475 -33 -504 -33 -49 -56 -42 -389 109 l-218 99 0 151 c0 258 20
955 29 1060 l10 100 72 68 c85 80 313 268 382 314 53 36 91 41 124 18z m6613
-397 c1 -2 7 -54 14 -116 8 -71 19 -119 28 -128 9 -10 40 -16 89 -18 91 -3
121 -17 117 -54 -2 -21 -11 -29 -41 -37 -42 -12 -57 -28 -57 -63 0 -44 29 -83
78 -104 60 -26 92 -55 92 -84 0 -28 -25 -54 -50 -54 -25 0 -40 -29 -40 -78 0
-29 -6 -44 -25 -60 -19 -17 -25 -32 -25 -63 0 -77 20 -130 68 -175 43 -41 44
-44 33 -77 -7 -19 -21 -43 -31 -52 -19 -17 -21 -16 -65 24 -52 48 -84 53 -114
15 -20 -25 -24 -40 -36 -136 -8 -61 -25 -78 -81 -78 -83 0 -127 79 -107 189
13 66 6 107 -25 166 -16 30 -22 57 -22 108 0 78 18 123 56 137 50 19 50 84 0
108 -71 35 -59 196 19 268 l35 32 -2 119 c-3 102 0 123 16 148 24 39 74 79 76
63z m-2179 -81 c19 -12 53 -51 77 -87 48 -73 291 -499 311 -544 12 -28 10 -30
-71 -109 -90 -86 -398 -347 -514 -433 -39 -30 -80 -54 -90 -54 -26 0 -82 59
-137 145 -54 85 -347 596 -347 606 0 4 120 97 268 206 423 316 429 319 503
270z m-2323 -54 c18 -25 15 -48 -13 -102 -29 -58 -79 -111 -105 -111 -27 0
-62 55 -68 106 -4 39 -1 49 24 76 54 57 131 72 162 31z m1882 -73 c0 -29 -562
-390 -607 -390 -16 0 88 96 179 166 183 137 428 266 428 224z m2191 -156 c17
-77 1 -843 -20 -957 -4 -23 -7 163 -7 413 1 427 0 458 -18 498 -18 41 -18 43
-1 62 24 26 38 21 46 -16z m-161 -185 c-13 -42 -30 -422 -30 -670 0 -209 -9
-341 -21 -333 -12 7 -11 496 1 674 13 185 28 313 40 346 15 38 22 25 10 -17z
m-6670 9 c-1 -47 -21 -248 -26 -263 -6 -15 -12 -12 -39 20 -20 24 -36 36 -44
31 -7 -4 -23 -33 -36 -63 -14 -30 -38 -70 -54 -88 -57 -65 -87 -219 -70 -356
17 -134 40 -175 117 -204 26 -10 98 -51 161 -91 126 -81 192 -110 285 -123 75
-11 114 -29 150 -71 45 -55 36 -93 -57 -228 -111 -161 -212 -166 -577 -30
-349 130 -598 287 -632 399 -10 34 -8 41 25 90 20 30 140 181 266 337 126 155
285 355 352 445 67 89 131 172 142 185 23 25 37 28 37 10z m6770 -193 c0 -379
-40 -745 -81 -745 -16 0 -20 157 -10 401 14 317 32 475 62 531 22 42 29 0 29
-187z m-2512 117 c29 -29 122 -184 270 -447 74 -132 159 -278 189 -324 l55
-84 5 -146 c6 -154 -11 -793 -27 -1023 -11 -147 -27 -215 -51 -210 -7 2 -54
20 -102 40 l-89 37 7 470 7 470 -108 53 c-60 28 -133 57 -162 64 -97 22 -98
17 -108 -481 -4 -198 -9 -361 -11 -361 -3 0 -51 18 -107 40 -66 26 -113 51
-132 71 l-29 30 1 202 c0 111 4 475 9 809 l8 606 108 76 c107 76 199 126 232
126 9 0 25 -8 35 -18z m-3415 -172 c105 -49 102 -38 102 -425 0 -181 -5 -357
-9 -390 l-9 -60 -8 40 c-4 22 -8 171 -9 330 -2 334 -7 390 -40 417 -26 21 -73
24 -88 5 -14 -17 -29 -117 -36 -247 -27 -461 -50 -567 -41 -185 6 282 19 479
34 518 13 34 27 34 104 -3z m-911 -82 c10 -48 9 -65 -6 -116 -20 -64 -16 -82
14 -82 33 0 43 -36 38 -139 -7 -148 -42 -200 -105 -156 -11 8 -45 55 -75 103
l-55 89 58 93 c62 99 99 192 99 249 0 50 18 27 32 -41z m6511 -39 c-5 -173
-47 -460 -78 -519 -18 -35 -66 -81 -79 -77 -29 9 -37 82 -34 297 3 186 5 220
22 250 21 41 146 162 161 157 6 -3 9 -44 8 -108z m-948 -329 c-10 -476 -35
-874 -56 -895 -13 -13 -13 6 -14 525 0 250 -4 461 -8 468 -6 8 -14 9 -26 2
-24 -12 -207 -176 -338 -300 l-102 -97 -15 -484 c-25 -772 -21 -728 -79 -801
-65 -81 -71 -51 -57 272 6 135 13 444 17 688 l6 443 91 78 c50 42 199 169 331
281 l240 204 8 -60 c5 -32 6 -178 2 -324z m-4641 287 c32 -32 39 -111 26 -298
-15 -224 -29 -309 -50 -309 -38 0 -58 207 -43 448 12 193 18 208 67 159z
m5066 -215 c15 -73 37 -109 72 -121 16 -6 33 -22 39 -38 19 -47 13 -142 -15
-219 -21 -59 -23 -77 -15 -108 13 -48 58 -59 132 -31 15 6 17 0 17 -49 0 -31
7 -73 15 -93 23 -54 19 -67 -30 -107 -50 -41 -70 -93 -59 -151 8 -44 39 -85
65 -85 28 0 57 -17 69 -41 14 -26 -11 -69 -40 -69 -33 0 -47 -44 -27 -86 9
-19 24 -37 32 -40 31 -12 13 -22 -37 -20 -49 1 -53 -1 -56 -23 -2 -13 4 -44
13 -68 25 -64 18 -68 -133 -68 -154 1 -198 13 -218 61 -18 42 -10 61 31 78 57
24 55 89 -3 102 -83 19 -103 27 -113 46 -16 30 -6 107 30 219 36 113 38 145
11 222 -11 31 -20 80 -20 108 0 50 1 51 25 45 21 -5 25 -3 25 14 0 43 18 61
54 54 28 -5 36 -2 50 17 23 33 20 64 -11 128 -23 48 -28 69 -28 143 0 77 3 89
23 111 17 18 25 41 29 83 3 33 11 65 16 73 17 21 44 -19 57 -87z m-540 -657
c-12 -312 -28 -425 -29 -210 -1 162 16 628 26 715 14 114 16 -192 3 -505z
m-71 208 c-1 -120 -4 -302 -8 -405 l-6 -186 -120 -141 c-65 -77 -121 -138
-123 -136 -2 2 0 190 4 418 l7 416 116 125 c64 68 119 125 124 125 4 1 6 -97
6 -216z m-5197 176 c21 -11 88 -40 150 -65 136 -56 233 -104 272 -137 23 -19
28 -29 22 -50 -12 -51 -72 -43 -101 13 -19 36 -62 60 -108 60 -83 0 -253 75
-305 135 -27 30 -30 39 -21 56 11 22 27 20 91 -12z m4945 -137 c-19 -48 -35
-216 -42 -452 -6 -212 -22 -459 -35 -552 -6 -41 -8 83 -5 347 4 479 21 640 72
697 24 26 29 6 10 -40z m1693 31 c0 -22 -42 -74 -57 -71 -26 5 -26 22 1 51 23
25 56 36 56 20z m-5901 -96 c6 -8 8 -17 4 -20 -10 -11 -51 -8 -58 3 -17 27 33
42 54 17z m-1605 -149 c36 -41 54 -83 43 -95 -12 -11 -54 26 -86 73 -60 91
-29 107 43 22z m5142 -48 l81 -32 6 -265 c6 -249 3 -400 -9 -502 -4 -33 -8
-41 -17 -32 -9 9 -11 109 -10 377 l2 366 -76 35 c-41 19 -87 35 -101 36 -23 2
-27 -3 -34 -43 -4 -25 -17 -159 -28 -299 -11 -140 -22 -257 -25 -259 -3 -3 -3
35 0 84 3 49 10 191 15 316 6 125 13 235 17 244 9 23 78 13 179 -26z m2222
-83 c8 -41 -14 -76 -107 -167 -53 -52 -126 -128 -162 -167 -66 -75 -89 -88
-89 -52 0 33 135 216 260 352 55 60 91 72 98 34z m-2250 -53 c41 -27 45 -54
39 -314 -5 -255 -12 -300 -47 -300 -33 0 -107 79 -115 124 -9 45 21 454 35
492 9 22 14 25 38 19 15 -3 37 -13 50 -21z m-4852 5 c7 -12 -13 -29 -36 -29
-23 0 -43 17 -36 29 4 6 20 11 36 11 16 0 32 -5 36 -11z m224 -80 c122 -47
217 -109 167 -109 -41 0 -253 88 -294 122 -44 36 15 30 127 -13z m5829 -258
c42 -42 95 -140 89 -167 -6 -31 -25 -26 -77 20 -53 47 -100 66 -166 66 -73 0
-76 14 -18 70 45 43 57 50 92 50 34 0 47 -6 80 -39z"/>
<path d="M8633 10783 c-12 -29 -17 -84 -21 -234 l-4 -196 32 -12 c28 -9 36 -8
52 6 28 25 49 108 55 219 7 128 -1 186 -33 224 -35 41 -61 39 -81 -7z m77
-137 c0 -67 -19 -171 -35 -193 -13 -17 -14 -17 -21 1 -8 21 13 209 28 245 14
36 28 9 28 -53z"/>
<path d="M6570 8533 c0 -194 4 -333 11 -356 12 -44 47 -64 128 -74 90 -10 98
24 108 450 l6 297 -126 0 -127 0 0 -317z m195 247 c12 -1 -2 -11 -33 -25 -76
-35 -74 -28 -112 -375 -6 -52 -13 -96 -15 -99 -3 -2 -5 68 -5 156 0 158 9 240
32 297 13 31 62 58 93 51 11 -3 29 -5 40 -5z m-32 -300 c1 -143 -8 -230 -23
-230 -18 0 -25 57 -24 205 0 97 5 161 13 180 l13 30 10 -25 c6 -14 11 -86 11
-160z"/>
<path d="M7802 8774 c-50 -35 -78 -145 -89 -354 -5 -111 -4 -132 11 -154 21
-32 46 -33 113 -2 86 40 88 48 88 287 0 160 -3 210 -14 222 -17 22 -79 22
-109 1z m56 -106 c21 -21 14 -66 -12 -83 -50 -33 -110 31 -71 75 20 22 65 26
83 8z m0 -190 c16 -16 15 -80 -1 -102 -27 -37 -97 -14 -97 32 0 15 63 82 77
82 5 0 14 -5 21 -12z"/>
<path d="M7312 8650 c-50 -24 -66 -37 -78 -65 -31 -76 -47 -453 -21 -490 12
-15 24 -17 86 -13 130 10 146 47 146 338 0 269 -11 288 -133 230z m89 -101
c47 -47 -6 -140 -87 -155 -30 -5 -40 -3 -51 12 -27 37 4 121 56 149 36 20 58
18 82 -6z m-11 -270 c15 -26 -5 -58 -54 -89 -63 -38 -99 -14 -82 55 10 39 34
55 81 55 35 0 47 -5 55 -21z"/>
<path d="M11050 7220 c-19 -11 -43 -19 -52 -20 -37 0 -43 -37 -43 -252 0 -128
4 -211 10 -217 17 -17 127 32 138 61 13 32 20 322 10 387 -4 30 -13 56 -18 57
-6 2 -26 -5 -45 -16z m27 -120 c14 -41 17 -179 4 -212 -5 -13 -27 -33 -50 -46
-38 -22 -42 -22 -48 -6 -10 27 15 230 34 270 21 43 44 41 60 -6z"/>
<path d="M9092 6275 c-103 -49 -104 -53 -104 -328 0 -120 3 -221 6 -224 8 -9
84 45 142 102 35 33 56 63 63 90 14 51 14 350 1 376 -14 26 -24 24 -108 -16z
m32 -271 c-2 -59 -10 -77 -24 -54 -17 27 -22 75 -10 104 17 45 35 17 34 -50z"/>
<path d="M1099 3596 c-39 -19 -47 -78 -48 -326 -1 -249 6 -293 47 -314 37 -19
139 -38 182 -34 31 3 35 7 44 43 6 25 5 129 -1 280 -13 305 -14 308 -149 348
-41 12 -56 13 -75 3z m148 -223 c30 -74 -9 -253 -57 -253 -26 0 -40 35 -40
104 0 86 39 186 72 186 5 0 16 -17 25 -37z"/>
<path d="M12485 6233 c-61 -13 -150 -48 -166 -64 -37 -37 -17 -139 32 -164 94
-49 219 41 219 159 0 68 -20 84 -85 69z"/>
<path d="M11840 6016 c-145 -41 -377 -172 -545 -307 -91 -74 -468 -456 -619
-629 -64 -74 -134 -161 -154 -193 -99 -158 -266 -376 -382 -501 -126 -135
-370 -563 -491 -861 -36 -88 -46 -192 -21 -217 20 -20 49 22 148 214 47 91
141 260 210 375 151 252 198 345 198 396 1 36 9 47 21 27 32 -51 155 99 155
189 0 35 3 41 13 32 27 -22 100 50 284 279 337 420 717 739 1228 1030 61 34
116 69 123 78 18 23 15 59 -8 82 -23 23 -88 26 -160 6z m-151 -163 c-56 -67
-632 -494 -646 -479 -18 18 237 237 430 371 151 104 256 157 216 108z m-1022
-926 c-38 -64 -116 -167 -127 -167 -12 0 15 60 57 126 65 101 126 137 70 41z
m-593 -779 c-34 -68 -228 -397 -273 -463 -35 -51 -23 -9 24 85 101 201 275
485 283 462 2 -6 -14 -43 -34 -84z m-354 -658 c0 -26 -29 -72 -41 -64 -10 6
-12 45 -3 68 9 24 44 20 44 -4z"/>
<path d="M9784 4475 c-9 -38 3 -75 25 -75 13 0 21 9 26 29 12 56 -37 100 -51
46z"/>
<path d="M8935 3039 c-14 -22 7 -60 46 -86 l41 -27 -5 -56 c-3 -30 -34 -149
-69 -265 l-64 -210 -85 0 c-46 1 -205 5 -354 9 -197 6 -281 5 -312 -3 -50 -14
-69 -39 -48 -67 15 -22 47 -23 380 -9 188 7 205 6 279 -14 76 -21 79 -21 109
-4 18 11 42 41 59 75 59 118 177 530 165 579 -4 15 -26 36 -61 57 -58 34 -71
38 -81 21z"/>
<path d="M9405 2947 c-39 -61 -101 -239 -301 -872 -141 -444 -306 -945 -474
-1430 -113 -328 -162 -564 -130 -624 28 -54 47 -11 170 393 51 165 228 710
395 1210 400 1198 405 1216 384 1302 -13 50 -22 54 -44 21z m-49 -308 c-59
-199 -142 -446 -201 -602 -100 -260 -8 59 145 503 99 288 101 292 106 287 3
-2 -20 -87 -50 -188z m-736 -2232 c-30 -133 -80 -275 -80 -228 0 19 38 168 62
241 24 74 36 66 18 -13z"/>
<path d="M7997 2464 c-13 -14 -7 -81 9 -95 13 -10 17 -10 25 2 13 21 -19 108
-34 93z"/>
<path d="M2750 2059 c-132 -39 -270 -125 -270 -170 0 -17 3 -17 42 -3 57 20
338 145 366 162 12 8 22 18 22 23 0 15 -92 8 -160 -12z"/>
<path d="M3046 2072 c-38 -7 -37 -8 54 -31 148 -38 318 -134 607 -342 151
-109 260 -168 321 -176 107 -12 104 20 -6 73 -110 51 -211 115 -417 259 -99
69 -221 147 -271 171 -80 41 -99 46 -170 49 -43 2 -97 0 -118 -3z"/>
<path d="M8304 2055 c-9 -38 3 -75 26 -75 23 0 34 30 25 70 -8 38 -42 41 -51
5z"/>
<path d="M8408 2059 c-10 -5 -18 -19 -18 -30 0 -28 47 -45 157 -57 92 -9 123
-22 123 -48 0 -7 -21 -80 -46 -161 -61 -193 -76 -251 -71 -271 12 -60 167 398
167 496 0 33 -30 53 -110 71 -58 13 -180 13 -202 0z"/>
<path d="M8488 1355 c-30 -58 -97 -245 -222 -618 -47 -141 -100 -288 -118
-325 -29 -60 -32 -64 -36 -39 -2 16 4 49 12 74 23 67 20 103 -12 154 -31 48
-95 109 -115 109 -37 0 -50 -65 -19 -93 10 -10 29 -17 41 -17 27 0 71 -42 71
-68 0 -24 -19 -42 -46 -42 -28 0 -54 -25 -54 -52 0 -11 12 -49 26 -84 14 -35
24 -69 22 -75 -2 -6 -34 12 -71 40 -36 28 -73 51 -81 51 -8 0 -25 -19 -38 -42
-36 -65 -62 -70 -393 -76 -406 -6 -734 20 -901 72 -132 41 -149 42 -194 11
-45 -31 -55 -30 -186 15 -105 36 -203 57 -332 70 -57 6 -114 15 -125 19 -39
15 -58 47 -69 115 -10 63 -10 69 11 94 12 15 39 54 60 87 22 33 51 74 64 90
l25 30 25 -23 c33 -31 98 -49 224 -62 58 -6 124 -17 147 -25 56 -20 58 -20
145 19 116 52 122 53 166 14 36 -31 43 -33 123 -35 58 -1 92 -7 109 -19 39
-25 194 -53 333 -60 140 -8 170 0 217 57 31 37 46 36 73 -1 32 -46 56 -55 102
-39 37 12 40 11 86 -22 41 -30 55 -34 107 -34 47 0 70 6 107 28 54 31 69 29
86 -16 l13 -32 35 68 c34 66 50 80 117 101 25 8 16 30 -14 34 -13 2 -62 -9
-109 -23 -198 -61 -237 -63 -410 -20 -168 42 -188 41 -236 -10 -34 -37 -65
-40 -164 -16 -50 12 -166 32 -258 45 -183 27 -268 53 -313 97 -38 37 -56 36
-138 -3 -59 -30 -73 -33 -146 -31 -44 1 -150 16 -235 33 -187 38 -227 41 -263
17 -33 -21 -102 -162 -126 -258 -10 -39 -25 -77 -33 -86 -11 -10 -41 -17 -86
-21 -77 -5 -319 14 -357 28 -32 12 -32 40 0 108 32 70 32 97 -5 139 -24 27
-30 43 -30 79 0 36 -7 53 -31 84 -25 31 -33 52 -38 104 -7 69 -21 89 -69 102
-28 8 -41 -3 -110 -89 -58 -73 -102 -107 -141 -107 -33 0 -96 -67 -110 -115
-6 -22 -11 -57 -11 -78 0 -45 -13 -72 -40 -87 -24 -13 -138 0 -270 31 -88 21
-130 19 -130 -6 0 -61 391 -154 995 -234 312 -42 448 -72 496 -110 43 -33 101
-52 247 -77 79 -13 176 -36 215 -50 64 -22 96 -26 287 -34 396 -17 761 -50
848 -77 51 -15 66 -15 315 11 327 35 470 59 539 89 68 30 66 26 209 457 59
179 133 398 164 488 31 91 55 174 53 190 -3 25 -5 24 -30 -23z m-3530 -277 c7
-7 12 -27 12 -45 0 -42 25 -103 42 -103 7 0 20 -5 28 -10 12 -8 11 -12 -7 -32
-46 -49 -38 -111 16 -123 97 -21 -12 -141 -139 -153 -86 -8 -209 32 -229 74
-12 26 -15 134 -5 171 5 17 18 24 56 33 69 14 99 39 138 112 49 93 61 103 88
76z"/>
</g>
</svg>
