<svg viewBox="139.1875 123.41249999999991 982.5000000000001 3003.0375" xmlns="http://www.w3.org/2000/svg" overflow="visible" xmlns:xlink="http://www.w3.org/1999/xlink" width="982.5000000000001px" height="3003.0375px"><g id="Master/Pose/Standing" stroke="none" stroke-width="1" fill="none" fill-rule="evenodd"><g id="Standing" transform="translate(-121.000000, 634.000000) scale(1 1)"><g id="Standing/Doctor Nurse Pose 2" stroke="none" stroke-width="1" fill="none" fill-rule="evenodd"><path d="M1156.7797,2291.995 C1106.3007,2236.362 1031.9097,2216.765 968.0807,2181.879 L969.4777,2178.268 C965.7027,2176.118 961.3207,2174.249 957.1717,2172.352 C956.4317,2171.354 953.5787,2168.884 952.7477,2167.841 C1015.9567,1930.734 993.1417,1717.462 1027.1687,1466.875 C1056.9347,1465.355 1091.8957,1468.216 1120.8957,1457.905 C1161.4567,1350.357 1156.7067,1252.023 1145.6357,1137.702 C1145.1507,1135.101 1145.1827,1134.395 1147.1597,1132.329 C1172.3057,1104.382 1185.9077,1037.175 1187.6517,984.758 C1187.6527,984.759 1187.3837,980.954 1187.3837,980.954 C1190.0347,978.981 1193.1647,976.212 1195.6177,974.029 C1213.7547,934.116 1207.9007,894.766 1198.1657,849.893 L1198.1867,849.884 C1147.4767,626.714 1133.3027,379.605 1047.8707,169.083 C1024.6647,114.427 973.2547,89.319 915.0107,89.229 L911.4267,89.218 C908.5377,85.006 905.2617,80.485 902.1357,76.699 C902.4927,76.243 902.7577,75.713 902.8577,75.09 C904.0377,67.731 897.0357,63.402 891.5597,60.071 C885.5417,56.409 878.8467,53.856 872.2337,51.577 C866.0677,49.453 858.0207,46.775 851.8257,50.301 C849.1597,51.817 847.8707,55.781 844.5147,55.69 C844.3367,55.685 844.1547,55.651 843.9757,55.634 C834.0477,34.87 833.9927,12.323 817.3267,-5.641 C798.5037,-23.931 775.6577,-40.576 747.4757,-39.401 C727.2387,-37.562 683.1487,-36.264 672.8367,-14.256 C662.7987,-3.326 658.3277,10.957 656.0897,27.622 L650.8667,27.148 C647.7167,29.982 641.4197,35.945 638.1267,39.025 L637.7517,38.105 C627.0187,47.611 616.1387,58.615 604.0377,65.943 C598.3907,67.804 603.2437,75.431 602.9047,79.917 C578.8307,85.042 554.9237,90.92 531.8747,99.837 C476.7067,107.472 431.3827,127.341 407.1347,162.833 C331.2207,344.716 325.7897,660.701 356.2447,901.51 C356.4677,903.315 355.9537,906.247 358.0537,907.035 C360.2517,923.141 361.9617,939.62 363.5887,955.506 C367.1477,981.028 373.5607,1006.408 379.3067,1031.107 L381.0627,1027.152 C384.6287,1027.506 391.9407,1027.5 395.5867,1027.47 C384.3667,1153.989 364.9697,1274.059 344.0107,1396.247 C343.4977,1398.552 344.7427,1399.881 346.6437,1399.905 C380.0257,1403.065 416.1497,1408.604 451.6297,1415.775 C415.7397,1606.235 311.2467,1873.521 308.6587,2048.655 C308.0947,2109.607 286.6297,2222.868 350.2387,2238.768 C339.2757,2283.134 314.2087,2320.588 289.7277,2357.535 C271.0517,2389.899 279.5497,2444.112 314.6297,2460.785 C374.7107,2481.215 443.3177,2493.081 503.6337,2479.97 C516.6837,2483.006 529.9207,2479.021 541.4487,2470.475 C602.0777,2416.709 534.2827,2326.491 505.3277,2269.283 C498.5967,2258.859 486.5607,2242.556 498.2067,2229.665 C501.5807,2229.627 507.7177,2227.639 508.9147,2226.088 C505.7247,2221.252 505.9027,2222.357 509.2437,2217.912 C651.0207,2030.865 661.3887,1752.969 714.8247,1525.911 L728.5917,1526.917 C757.8787,1780.392 624.4257,1952.772 756.9917,2210.256 C761.3637,2225.287 774.8277,2224.544 785.6927,2228.559 C708.1447,2256.435 742.8297,2368.56 813.5127,2381.114 C892.5077,2401.303 974.7687,2420.332 1053.2257,2418.524 C1074.3897,2418.555 1095.5707,2417.487 1116.2607,2415.616 C1206.6577,2416.831 1222.8187,2351.693 1156.7797,2291.995" id="👕-Clothes" fill="#8FA7DF"/><path d="M509.2602,1024.1939 C517.8912,1024.3419 528.139311,1015.02321 536.091311,1019.09821 C538.650311,1021.04821 559.8662,1062.5389 574.7202,1075.0389 L575.642379,1075.88695 C590.658274,1089.81813 603.3088,1107.65152 599.8102,1129.4869 C597.4132,1137.9079 579.0342,1132.9099 571.9202,1134.2989 C568.2802,1171.0879 582.4432,1199.7879 534.7362,1205.1429 L528.455327,1206.19441 C504.88133,1210.094 458.7876,1216.84609 444.7372,1203.9159 C438.6142,1197.0169 440.4392,1187.1489 440.0282,1178.6199 C429.8482,1159.7279 429.9592,1137.4849 428.3662,1116.5299 C430.2552,1106.6079 405.9042,1024.2989 417.2622,1030.1599 C445.4132,1022.2249 480.3462,1026.8079 509.2602,1024.1939 Z M1171.5525,999.1957 C1173.0565,997.4857 1175.6685,997.2637 1177.7085,998.2507 C1178.6385,998.1567 1179.5695,998.0827 1180.4985,998.0497 C1182.1615,998.3377 1180.9285,999.9737 1179.9415,1000.3087 C1183.6015,1008.8867 1159.1945,1152.9607 1143.0075,1115.1387 C1142.4895,1086.9687 1137.3065,1059.3847 1133.2455,1031.6117 C1127.1215,1005.2177 1153.1645,1003.4647 1171.5525,999.1957 Z M667.6777,-24.6812 C689.2947,-62.6112 762.9367,-50.4322 796.3927,-36.1572 C833.0747,-21.8532 829.3157,21.1898 837.5747,53.5858 C850.2397,56.5968 862.6667,64.4998 866.2957,77.8348 C870.6927,90.1438 874.7437,102.5848 878.8207,115.0078 L879.072041,115.625444 C881.181058,120.884328 883.527508,128.829262 876.7227,131.1908 C822.4517,169.5668 728.369582,154.9952 673.162582,125.2562 C662.8927,120.805013 663.7987,94.7998 662.8927,85.8688 C662.1457,77.9428 661.2727,70.0688 660.1817,62.2308 C656.2637,56.7698 650.2717,30.2798 659.5537,29.0228 C662.2587,11.1088 659.6097,-8.1742 667.6777,-24.6812 Z" id="✋-Skin" fill="#694d3d"/><path d="M438.903,2235.6777 C454.221,2236.3067 475.284,2227.1887 487.58,2239.1317 C488.114,2238.7527 488.998,2239.0817 489.277,2239.7587 C493.181,2249.2507 497.956,2258.5807 502.46,2267.7877 C520.97,2309.2847 551.495,2345.9587 556.769,2392.5507 C560.859,2429.5007 538.659,2482.2137 496.319,2477.8747 C440.365,2477.3397 383.649,2473.3937 329.782,2456.8857 C315.664,2460.7937 300.494,2446.3947 293.628,2435.2307 C275.937,2406.4587 289.021,2371.1717 303.582,2344.3377 C319.683,2316.6677 332.246,2287.2247 342.89,2256.9707 C340.08,2253.4957 340.681,2246.5437 345.87,2245.7537 C354.654,2245.0637 362.664,2241.8227 371.609,2242.2597 C393.986,2239.5357 416.459,2237.5507 438.903,2235.6777 Z M953.0983,2174.1651 C960.3243,2158.8631 969.7723,2179.3941 975.3963,2185.5991 C1004.1413,2209.0821 1045.5913,2210.0381 1075.0283,2233.4171 L1076.97132,2234.68918 C1088.49829,2242.19534 1101.39943,2250.02971 1109.1573,2261.5061 L1112.11631,2263.5731 C1144.26861,2286.09497 1184.41482,2316.54122 1190.0253,2357.8671 C1191.3563,2359.6131 1192.1813,2361.8341 1192.4213,2364.2011 C1191.1093,2428.2631 1097.8203,2406.8051 1056.4843,2408.6481 L1050.01592,2408.3656 C980.250178,2405.39896 908.91178,2404.65963 843.2583,2377.1611 C833.0213,2380.9721 820.5923,2378.6331 810.5893,2374.4501 L808.84781,2373.76761 C794.276159,2368.11848 778.327454,2363.30114 768.7813,2349.8771 C754.4362,2331.18194 750.566409,2305.60844 752.837601,2282.4637 L753.114003,2279.77589 C754.362143,2267.23596 755.072414,2252.59487 764.5433,2244.0781 C778.5043,2220.1361 810.1623,2226.1071 832.4313,2216.8041 C867.9823,2207.5111 918.4033,2168.6271 953.0983,2174.1651 Z" id="👟-Shoes" fill="#FFF"/><path d="M650.156576,37.0078355 C659.175576,69.7268355 665.2928,103.9239 669.7298,137.5619 C675.2518,179.4219 688.6578,313.1809 692.2448,338.1239 C702.9738,412.7219 710.9008,487.7439 716.4408,562.9459 C719.504948,576.3879 721.165168,590.158163 722.009022,603.940585 L722.1028,605.5309 C722.6988,616.0359 723.3338,627.0509 722.9818,637.9309 C725.8178,657.9029 728.0838,677.9609 729.9018,697.9879 C736.7198,773.0939 738.2208,848.8289 735.9218,924.1999 C734.7728,961.9019 732.8588,999.5879 729.6208,1037.1649 C728.1763,1053.9256 726.52282,1070.66605 724.66036,1087.38261 L723.035115,1101.71421 C721.489324,1115.17015 719.768871,1128.6999 716.5768,1141.8329 C715.8268,1154.9069 715.7138,1168.0639 714.9428,1181.0259 C712.0888,1229.0039 706.6368,1276.8319 698.8748,1324.2339 C694.9798,1348.0159 690.5328,1371.7149 685.7318,1395.3199 C683.702086,1405.30304 681.574657,1415.26488 679.348885,1425.20352 L678.2278,1430.1709 C675.6438,1441.5289 674.1258,1454.6829 668.7948,1465.0389 C666.9488,1468.6239 662.3878,1468.5449 659.8728,1466.2169 C659.8038,1466.3579 659.7398,1466.5019 659.6628,1466.6369 C657.3448,1470.6989 652.6878,1471.3909 648.7878,1469.5609 C629.5678,1460.6399 609.9888,1452.5729 590.1658,1445.1739 C555.2658,1432.1469 519.4638,1421.6629 483.1208,1413.8179 C464.8018,1409.8639 446.3448,1406.5569 427.7948,1403.9679 C409.2578,1401.3809 390.5578,1400.3609 372.0378,1397.7989 C370.6788,1397.6099 369.6048,1397.1039 368.7688,1396.3979 C363.7698,1396.2019 358.9078,1395.0359 355.7118,1391.5209 L353.806244,1391.19979 C353.489022,1391.14568 353.172133,1391.09023 352.8558,1391.0319 C352.2348,1390.9169 352.4648,1390.0499 352.9938,1389.9929 C353.4818,1389.9409 353.9718,1389.8989 354.4618,1389.8519 C353.7218,1388.6949 353.1118,1387.3659 352.6888,1385.7989 C350.6698,1378.3189 354.2908,1370.2289 357.6768,1363.7599 C359.4648,1360.3429 361.5408,1357.0709 363.8278,1353.9629 C364.6488,1349.0419 365.4618,1344.1189 366.2108,1339.1849 C368.1398,1326.4959 370.0338,1313.8009 371.8928,1301.1009 C378.4788,1256.1069 384.5348,1211.0419 390.3248,1165.9349 C394.5818,1132.7689 398.3138,1099.4629 403.7318,1066.4589 C403.3868,1059.1149 402.9448,1051.7759 402.4598,1044.4329 C402.0228,1037.8289 400.3008,1036.7009 397.5228,1031.1119 C394.6048,1030.9279 386.794979,1032.8769 383.932979,1032.3809 C379.084979,1033.5519 379.2748,1023.7249 377.4148,1017.2199 C358.6938,951.7379 351.7088,882.6599 346.7368,814.8679 C337.94164,694.94722 344.466423,574.662923 354.719957,455.078456 L355.0318,451.4549 C360.0068,393.8339 363.5398,335.8219 371.9108,278.5809 C375.5768,253.5119 380.6428,228.3709 389.7038,204.7049 L390.63899,202.274243 C392.68576,196.991224 394.8812,191.625633 397.5228,186.6709 C400.1988,181.6539 403.7018,176.9059 407.0338,172.2989 C414.4188,162.0879 422.8378,153.0789 432.6418,145.3049 C432.7588,145.2109 432.8878,145.1449 433.0198,145.0969 C437.1358,141.1249 441.5608,137.4449 446.2338,134.0449 C477.6798,111.1589 516.5658,104.9199 553.7008,98.3879 C562.9681,96.7571 566.925197,89.235707 576.133853,87.2852 C591.223891,84.1383594 598.927243,82.0052724 599.24391,80.8859391 C599.48691,80.0279391 597.010422,68.1442 597.430422,66.2692 C599.313422,57.8512 607.171309,58.8668319 613.203309,53.7608319 C621.638309,46.6218319 629.832381,41.4571 638.454381,34.5551 C640.403761,32.9957897 643.829558,26.502351 645.530516,27.5362936 C648.430556,33.1799882 649.972576,36.3371689 650.156576,37.0078355 Z M852.328,56.1212 C851.603,52.6802 853.911,48.7722 858.136,50.1382 C881.132,57.5742 899.667,68.0682 913.994,87.4972 C924.727,87.5272 935.486,88.4092 945.989,90.6682 C958.146,93.2812 969.443,96.9292 980.755,102.1032 C990.755,106.6762 1000.419,112.7852 1007.877,121.1082 C1009.946,123.4162 1011.771,125.8802 1013.462,128.4452 C1034.037,142.8262 1047.055,169.7672 1056.407,193.0182 C1066.019,216.9182 1072.4,242.2572 1079.037,267.1482 C1086.519,295.2142 1093.282,323.4842 1099.394,351.8952 C1105.23067,379.030033 1110.44919,406.303123 1115.04706,433.687511 L1118.69094,455.605912 C1121.84293,474.640691 1124.88246,493.831046 1126.764,513.0072 C1130.832,527.4292 1134.699,541.8542 1138.003,556.5182 C1152.323,620.0492 1165.718,683.8912 1175.89,748.2752 C1186.024,812.4132 1193.618,876.9682 1198.683,941.7332 C1198.906,944.5792 1197.562,946.4382 1195.677,947.3202 C1195.449,949.1362 1195.118,950.9372 1194.652,952.7092 C1191.016,966.5452 1181.283,977.9552 1169.797,985.7072 C1156.595,994.6172 1141.917,1000.3952 1127.366,1006.5132 C1131.878,1026.2552 1135.002,1046.3142 1137.356,1066.6412 C1144.74,1130.4242 1146.62,1194.5792 1143.829,1258.7262 C1142.435,1290.7512 1139.745,1322.6982 1135.957,1354.5162 C1134.085,1370.2462 1132.009,1385.9622 1129.67,1401.6252 C1128.6225,1408.64187 1127.51389,1415.6502 1126.34417,1422.64673 L1125.635,1426.8432 C1124.275,1434.8112 1123.45,1442.5632 1119.585,1449.7172 C1116.884,1454.7202 1111.732,1454.7842 1108.151,1452.1722 C1102.037,1454.7022 1093.509,1454.8632 1088.422,1455.5542 C1075.351,1457.3282 1062.24,1459.0522 1049.085,1460.0342 C1036.029,1461.0072 1022.795,1461.5812 1009.723,1460.6502 C1003.193,1460.1852 996.726,1459.3352 990.279,1458.1822 L988.578347,1457.87519 C985.730222,1457.35153 982.829667,1456.74987 980.118,1455.7982 C977.074,1454.7302 974.3,1452.9962 971.26,1451.8972 C970.275,1451.5412 969.973,1450.5992 970.371,1449.6572 C971.1,1447.9302 971.888,1446.3342 972.794,1444.6982 C972.956,1444.4062 973.405,1444.5382 973.406,1444.8682 C973.41,1446.2432 973.351,1447.5762 973.255,1448.9202 C973.63,1448.9212 974.007,1448.9122 974.384,1448.9062 C974.5,1445.0092 974.038,1441.1712 974.409,1437.2602 L975.117741,1429.74005 C975.237,1428.48642 975.357667,1427.2332 975.481,1425.9812 C976.221,1418.4852 977.548,1410.9762 978.724,1403.5392 C981.232,1387.6732 983.304,1371.7382 984.941,1355.7542 C990.717,1299.3492 991.115,1242.5232 991.964,1185.8702 L992.115806,1175.93895 C992.506221,1151.11134 993.006412,1126.28826 994.247,1101.4862 C993.961,1097.5762 993.691,1093.6782 993.412,1089.8082 C991.941,1069.4322 990.91,1049.0142 989.667,1028.6222 C985.299,956.8342 980.701,885.0452 976.966,813.2182 C976.371,801.7582 975.829,790.2942 975.351,778.8272 C968.611,745.6232 965.396,711.8882 962.021,678.1632 C955.38,611.8072 949.341,545.3952 943.806,478.9332 C941.038,445.7032 938.396,412.4602 935.726,379.2192 C934.619,365.4382 933.545,351.6562 932.536,337.8672 C931.713,333.4112 930.887,328.9622 930.02,324.5322 C920.744,277.1602 911.435,229.7942 902.163,182.4202 C897.842,160.3442 875.037361,98.0632283 870.753361,88.2662283 C869.399361,85.1682283 858.487524,68.8918667 853.904,64.3762 L853.658791,64.1297514 C852.102562,62.5333236 849.807103,59.5556872 851.03,57.2522 C851.345,56.6572 851.808,56.2812 852.328,56.1212 Z M537.043774,1010.74726 C523.137774,1014.50726 508.193727,1020.7461 494.066727,1023.5101 C475.179727,1027.2041 456.0328,1023.3409 436.8578,1024.8659 C427.5838,1025.6039 409.6138,1029.3719 410.1078,1031.1119 C410.2268,1031.5319 410.3318,1031.9579 410.4428,1032.3809 C410.7398,1032.3749 411.0528,1032.5769 411.0528,1032.9379 L411.0408,1034.7859 C413.9858,1047.5179 414.0548,1061.4959 414.7388,1074.3739 L414.7888,1075.5229 L416.271898,1088.69787 C418.849169,1111.38517 421.683665,1134.02985 426.9168,1156.2049 C431.0828,1173.8619 436.1918,1191.7609 443.7278,1208.2459 C444.7788,1210.5459 445.8938,1212.8299 447.0738,1215.0799 L451.974689,1215.15746 L454.4268,1215.1849 C464.1278,1215.2539 473.8078,1215.6499 483.5118,1215.4529 C502.4208,1215.0679 521.3448,1213.5579 540.0498,1210.6689 C549.0578,1209.2789 558.0208,1207.5919 566.9248,1205.6219 C568.267467,1194.70257 569.620356,1183.78457 570.98317,1172.8676 L573.0348,1156.4929 C574.3578,1145.9729 576.6378,1137.4699 587.0878,1133.3409 C591.7588,1131.4939 596.5878,1130.7539 601.4658,1130.6169 L601.7078,1128.2999 C603.0068,1115.3019 602.3968,1103.3099 595.7678,1091.9099 C591.090925,1083.8669 584.739628,1077.1224 578.263439,1070.58443 L570.508849,1062.80271 C557.866655,1050.05131 545.809737,1036.69238 543.5718,1017.8419 C540.3278,1014.8269 538.733774,1014.83326 537.043774,1010.74726 Z M623.9838,1178.9979 C625.758544,1178.1872 625.044226,1176.35856 624.443482,1177.93821 L624.4008,1178.0569 C624.2928,1178.3719 624.1468,1178.6859 623.9838,1178.9979 Z" id="👕-Clothes" fill="#FFF"/><path d="M671.23789,123.938343 L680.101997,195.335383 L703.393842,422.236637 L727.429587,634.960007 L736.92638,928.967894 L736.92638,972.762945 C750.861227,972.762945 762.10661,972.762945 770.66253,972.762945 C779.21845,972.762945 818.137543,978.259574 887.419808,989.252832 L985.681419,972.762945 L955.060935,610.497233 L928.008341,347.379831 C905.069154,207.241412 891.539643,135.496982 887.419808,132.146541 C881.240055,127.120879 866.177777,154.076012 807.623059,154.076012 C768.58658,154.076012 723.124857,144.030122 671.23789,123.938343 Z" id="👕-Clothes" fill="#9FD8E5"/><path d="M662.4916,-19.7549 C662.8896,-20.8139 664.1656,-20.7849 664.5706,-19.7549 C667.5976,-12.0609 666.0686,-0.9739 665.0396,7.0691 C664.0166,15.0559462 659.938493,33.3227561 659.225098,34.470618 L659.1046,34.6491 C658.185436,35.9057405 657.414782,36.6784852 656.460641,37.1736784 C661.535128,61.6700121 666.075563,86.2614814 670.176757,110.953782 C670.886217,114.61192 671.572766,118.27347 672.23789,121.938343 C674.880092,123.267373 677.770461,124.016019 680.6388,125.1346 C685.1958,126.9116 689.6578,128.9776 694.1728,130.8626 C703.1648,134.6126 712.1598,137.9126 721.4698,140.7366 C739.8798,146.3166 758.7698,149.7046 777.9628,150.5066 C797.0898,151.3066 816.2478,149.8766 834.9918,145.8336 C843.8988,143.9126 852.8868,141.6126 861.4288,138.3546 C865.0458,136.9766 868.6518,135.2476 871.7258,132.8256 C874.6848,130.4936 876.7038,127.3386 879.7348,125.0986 C879.860802,125.005534 879.990285,124.92351 880.122545,124.852039 C878.404028,119.780701 876.617573,114.728712 874.761117,109.698141 C872.041561,103.696536 869.461486,97.6180487 866.6475,91.7065 C863.896595,85.9258826 861.098044,80.1669397 858.269534,74.4231292 C857.995875,74.3937452 857.738253,74.3326483 857.507,74.2377 C846.68,69.7837 838.062,61.1047 833.471,50.0707 C830.92,43.9397 829.329,37.2867 828.982,30.6227 L828.77972,27.063604 C828.51364,21.96754 828.4562,15.7653 830.937,12.0117 C831.097,11.7687 831.425,11.7597 831.584,12.0117 C834.316,16.3407 833.873,22.9587 834.99,27.9557 L835.388281,29.7191361 C836.53344,34.7226086 837.846632,39.7685947 839.994,44.4087 C842.65707,50.1677245 846.246723,55.5676115 850.925107,59.6536841 L849.2262,56.2632407 L847.0095,51.8545 C846.2805,50.4085 846.5425,48.1865 848.1445,47.4115 C853.896955,44.6292033 859.449424,44.7549052 864.645277,47.4721616 C869.689323,47.3713838 874.702663,48.1803144 879.6814,50.2072 C889.9124,54.3712 898.2684,61.4102 905.5304,69.7712 C908.922382,73.6760345 912.07982,77.7864566 915.045512,82.0507229 C974.005577,82.2527628 1028.58552,106.754683 1054.1194,165.8873 C1087.3204,234.2563 1103.3994,309.7813 1118.2764,384.1343 C1147.6034,537.3963 1175.2004,691.0103 1204.2654,844.3293 C1204.7704,844.4293 1205.2764,844.5133 1205.7814,844.6183 C1210.9554,845.6943 1210.0804,852.5213 1206.1384,854.2313 L1208.0014,864.0793 L1208.42131,866.183508 C1215.24024,900.679578 1219.98522,941.30928 1202.7284,972.5213 C1203.5714,974.2313 1203.4884,976.3423 1201.6914,978.0593 C1199.4184,980.2303 1197.0604,982.2853 1194.6384,984.2433 C1195.0574,990.1853 1194.5294,996.0553 1193.0844,1001.7933 C1193.2484,1007.0253 1192.2374,1012.6993 1191.9614,1017.0683 C1187.98503,1057.48474 1178.36611,1104.46793 1152.5883,1136.86917 C1156.72455,1172.93031 1159.6027,1209.11997 1160.151,1245.4526 C1160.705,1282.1286 1158.866,1318.7866 1153.931,1355.1276 C1149.09,1390.7766 1141.926,1428.0346 1127.253,1460.9006 C1126.55507,1462.46375 1125.54682,1463.51186 1124.38617,1464.12804 C1123.31709,1465.90571 1121.6959,1467.25972 1119.6401,1467.5543 C1091.19047,1471.63034 1062.27285,1473.96116 1033.38974,1474.05044 C1023.2482,1563.51215 1016.68773,1653.47549 1011.23677,1743.25225 L1010.8668,1749.3731 C1002.3748,1888.8331 999.7138,2030.9021 960.6488,2165.7921 L961.2088,2166.3451 L964.010672,2167.60281 C967.74184,2169.2871 971.4396,2171.0327 974.9268,2173.2231 C977.1868,2174.6431 977.4758,2177.0641 976.7008,2179.0511 C991.7908,2189.0711 1009.3438,2195.4881 1026.0608,2201.7491 C1076.2898,2220.1281 1122.7888,2248.9511 1161.4778,2286.6691 C1231.0998,2351.2041 1216.1058,2422.5841 1116.2768,2422.7921 C1024.2208,2431.3931 931.1058,2420.5711 842.2018,2395.2341 C837.3368,2393.8641 832.1068,2392.8241 827.6748,2390.2311 C822.1938,2390.1071 816.6388,2389.1771 811.9978,2388.1181 C769.4548,2378.2751 733.9998,2338.8191 734.6868,2292.9701 C734.9768,2269.4731 744.4758,2241.1191 766.2598,2230.2601 C758.2198,2227.8741 753.8998,2221.0311 750.7608,2213.5521 C747.7538,2207.5761 744.8508,2201.5441 742.0568,2195.4581 C724.3128,2156.9901 711.2968,2116.3601 702.4718,2074.8061 C667.4408,1937.0401 710.4618,1799.9141 726.3908,1662.3331 C726.7728,1645.3231 726.9158,1628.3061 726.5628,1611.2631 C726.1908,1593.2091 725.2428,1575.1591 723.9738,1557.1481 C723.449,1549.6857 722.77892,1542.2361 722.185256,1534.77984 L721.7578,1529.1861 C721.7198,1528.6681 721.6758,1528.1451 721.6278,1527.6171 C665.5888,1762.4171 662.0468,2022.8451 514.8218,2222.2421 C519.8408,2230.2141 509.1478,2235.4261 502.0818,2236.3851 C495.9448,2244.9681 507.1958,2258.5471 511.3248,2265.5861 C518.0418,2277.0371 524.3628,2288.7651 530.5288,2300.5371 L534.779642,2308.40049 C562.268885,2359.34406 598.8056,2431.15085 545.7728,2476.1191 C534.0678,2485.0651 518.5168,2490.3191 503.8948,2487.3321 C487.4608,2491.9721 470.3338,2493.3501 453.3038,2492.5781 C419.8878,2491.8381 386.5698,2487.2611 353.9118,2480.0801 L348.102257,2478.76722 C335.678194,2475.93452 323.121151,2472.78999 311.6098,2467.2661 C272.1768,2447.6141 263.1738,2391.2121 283.5678,2354.1341 C290.4038,2341.0991 299.8838,2329.8151 307.7438,2317.4591 C322.2458,2294.6681 333.7088,2269.4221 341.5228,2243.3891 C341.1578,2243.2711 340.7958,2243.1461 340.4368,2243.0151 C338.8628,2243.5981 336.9868,2243.5361 335.0248,2242.4811 C282.9238,2210.2871 300.3788,2102.6351 301.6518,2048.2761 C312.5778,1907.0621 346.2828,1768.6401 388.0778,1633.9611 C414.028827,1564.97148 430.15803,1493.57203 443.456641,1421.45413 C411.210419,1415.10824 378.709864,1410.17738 345.9944,1407.0524 C339.5844,1406.4404 336.0744,1401.5364 337.1044,1395.0884 C340.651257,1372.8824 344.349461,1350.70285 348.074954,1328.52771 L351.303151,1309.32206 C366.50257,1218.66791 380.655936,1128.02368 386.7374,1036.1424 C386.771707,1035.62417 386.836524,1035.12677 386.929279,1034.65021 C386.432959,1034.64523 385.937009,1034.63152 385.4413,1034.6101 C383.1553,1039.7581 374.4653,1040.7551 372.7593,1033.8171 C366.8713,1009.9701 361.6963,985.9331 357.1913,961.7741 L355.943315,949.627885 C354.690709,937.482371 353.397179,925.342166 351.819173,913.236137 L351.519785,910.990798 C350.403397,910.140167 349.720583,908.654866 349.609861,907.080185 C349.142887,906.94797 348.626061,906.95335 348.1203,907.0771 C318.4273,703.7211 333.5413,496.6141 361.1483,293.8591 C371.6053,180.8791 404.6853,112.5051 522.1093,94.4031 C546.694226,89.4810483 571.710504,86.463988 595.801098,79.4628971 L595.6968,78.6772 C595.1818,74.7042 593.4848,68.8082 594.8198,64.8332 C595.9428,61.4862 600.7258,59.9262 603.3558,58.0422 C607.6528,54.9652 611.7968,51.6742 615.8248,48.2372 C624.0528,41.2202 631.7988,33.6652 640.0278,26.6582 C640.265786,26.4558072 640.643562,26.5865724 640.746072,26.8268208 C642.876949,24.8237196 645.029879,22.8445825 647.2066,20.8919 C648.944859,19.3334 651.93459,19.5274314 653.040079,21.6427228 C654.852924,16.3623564 656.383497,10.991717 657.7026,5.5291 C658.7206,1.3171 659.6716,-2.8819 660.3386,-7.1699 C660.9846,-11.3279 661.0146,-15.8279 662.4916,-19.7549 Z M497.5438,2237.2731 C471.0658,2243.2201 443.8408,2241.2141 416.9728,2240.3161 C408.5698,2256.6011 403.2518,2274.5491 399.1598,2292.3791 C395.1008,2319.6411 379.5188,2311.3411 388.5648,2288.4501 C394.2178,2270.6651 403.9078,2254.7451 415.1638,2240.2591 C411.4418,2240.1411 407.7118,2240.0531 403.9798,2240.0091 C397.7388,2241.0991 391.4198,2241.7241 385.1278,2242.5101 C377.0898,2243.5121 369.0268,2244.7891 360.9348,2245.2541 C357.9958,2245.4221 354.8428,2245.4611 351.6738,2245.2371 C349.3448,2245.8621 347.0258,2246.5391 344.7248,2247.3101 C344.2718,2289.6931 322.7728,2326.0201 300.4338,2360.1651 C282.3658,2391.9701 292.2368,2443.3201 330.4018,2453.1651 C383.2708,2470.8091 439.1578,2471.6751 494.0498,2474.9481 C495.3318,2469.3901 501.6558,2467.3111 506.7198,2467.9401 C520.8788,2470.4241 535.4568,2462.6931 543.7398,2451.0501 C577.3278,2397.0531 519.9608,2329.4981 503.6948,2277.5201 L503.159242,2276.23201 C498.672222,2265.60961 489.62284,2247.57294 497.5438,2237.2731 Z M944.3928,2180.7601 C939.0308,2181.8781 933.6868,2183.0661 928.3608,2184.3171 L927.5848,2184.5621 C926.7418,2186.7251 925.2998,2188.5751 923.3778,2189.6091 C930.727713,2196.44345 937.879085,2203.90087 944.106414,2211.87809 L944.9498,2212.9691 C951.5648,2221.6121 959.4778,2229.1831 962.7168,2239.9691 C963.7808,2243.5071 959.7698,2246.3341 956.7958,2244.6361 C947.0518,2239.0711 941.3528,2228.8371 935.3668,2219.5881 C929.5138,2210.5451 924.8758,2200.5141 921.4598,2190.3151 C893.5838,2191.4751 866.7708,2213.5911 841.3828,2224.9841 C827.2398,2249.5591 824.3638,2278.2631 825.0778,2306.2181 C814.5808,2327.0141 800.5108,2260.0571 835.0438,2228.0471 L833.827554,2228.55713 C815.137272,2236.2965 794.572502,2240.25529 774.8708,2233.0421 C775.2358,2233.7911 775.2398,2236.4321 773.7648,2235.3861 C769.8088,2230.5041 760.6908,2249.3771 759.5818,2251.8511 C735.0078,2302.4691 765.3628,2358.8171 817.9508,2370.7461 C821.3098,2362.1751 834.2918,2364.0021 830.1688,2373.5751 L830.279763,2373.76888 C830.3008,2373.80377 830.323133,2373.8401 830.3468,2373.8781 C835.4238,2375.3771 843.4448,2375.4601 845.3698,2381.1771 C917.1948,2400.8891 991.9128,2408.1741 1066.1398,2407.5721 C1098.7038,2404.7291 1171.2958,2412.6081 1186.1948,2376.7821 C1197.7358,2333.5781 1149.9618,2296.6301 1121.4198,2272.3061 C1102.9088,2257.5221 1082.8928,2244.5481 1061.9718,2233.6581 C1043.4878,2224.0371 1022.8848,2216.4011 1004.0838,2206.2671 C1003.9228,2206.3291 1003.7518,2206.3791 1003.5658,2206.4111 C989.8298,2208.8051 977.4178,2197.0461 966.7198,2189.9091 C961.2468,2186.2571 955.4128,2182.9921 949.1968,2180.8551 C948.6168,2181.1521 948.0328,2181.3761 947.4478,2181.4691 C948.3458,2182.4221 946.2238,2182.5651 947.0108,2181.4991 C946.0308,2181.3741 945.1688,2181.1141 944.3928,2180.7601 Z M1054.5497,2333.0182 C1041.1747,2334.0012 1038.1327,2304.2172 1045.5667,2312.4182 C1046.4369,2315.55035 1047.94336,2318.80344 1049.99263,2321.34323 L1050.48023,2321.9271 C1052.95818,2324.77319 1061.35406,2330.88762 1054.5497,2333.0182 Z M438.7617,2252.4249 C439.0287,2251.9279 439.8287,2252.1459 439.8107,2252.7149 C439.5987,2259.5609 439.1077,2265.5749 440.7797,2272.3339 C442.3837,2278.8219 445.4017,2284.4559 449.0207,2289.9799 C451.6537,2293.9959 445.4837,2297.4739 442.7887,2293.7149 C435.0127,2282.8709 432.2127,2264.6209 438.7617,2252.4249 Z M891.9781,2199.2801 C892.1631,2198.4711 893.4391,2198.4401 893.6051,2199.2811 C897.9701,2213.6701 899.2531,2228.8661 902.6401,2243.5311 C903.2191,2251.8851 917.0881,2279.2111 904.2271,2281.1821 C892.2941,2281.3701 891.5661,2252.4741 889.6361,2243.4131 L889.464971,2241.84092 C887.950898,2227.66654 887.200064,2212.84567 891.9781,2199.2801 Z M401.2016,2241.5965 C401.8056,2241.5965 401.8056,2242.5575 401.2016,2242.5575 C400.5976,2242.5575 400.5976,2241.5965 401.2016,2241.5965 Z M741.200741,972.762945 L741.1268,975.78694 C738.851418,1067.05198 733.948997,1158.31567 725.0314,1249.1294 C720.7054,1293.1914 715.5264,1337.2924 707.5424,1380.8334 L706.326274,1387.43352 C701.570061,1413.04799 696.041956,1439.631 684.6224,1462.9424 L683.981424,1464.23319 C680.546799,1471.05199 675.73116,1478.97314 668.9124,1482.3844 C663.9374,1484.8744 659.1744,1482.1514 654.3414,1480.4724 C649.9324,1478.9414 645.5184,1477.4224 641.1004,1475.9184 C631.5394,1472.6644 621.9594,1469.4694 612.3544,1466.3544 C593.7714,1460.3284 575.1044,1454.5694 556.3454,1449.1434 C523.250969,1439.57258 489.826362,1431.04802 456.11694,1424.01953 C454.550324,1434.29391 452.934542,1444.56045 451.2588,1454.8161 C440.0698,1523.7551 416.4138,1589.0141 396.2218,1655.5011 C348.6028,1819.2881 307.9858,1989.8321 316.1888,2161.8851 C317.2708,2175.1211 319.5488,2188.3021 324.0648,2200.7901 C328.2048,2212.2401 335.4918,2222.5081 343.0378,2231.8391 C344.4978,2233.6421 344.9458,2235.6991 344.6698,2237.5711 C344.8448,2238.0871 344.9348,2238.6351 344.9768,2239.2001 C348.0638,2239.8581 351.2318,2240.1681 354.4558,2240.2361 C399.2448,2222.2951 450.3478,2237.2001 496.3278,2223.3811 C496.7068,2218.5961 498.4218,2213.3181 500.3668,2208.9231 C541.8058,2151.4021 572.8898,2086.5711 596.0788,2019.2511 C644.1498,1880.6271 660.4328,1733.6581 689.7178,1590.3041 C719.2258,1447.7511 763.2738,1306.4401 837.2918,1181.2331 C837.8358,1180.3051 839.0598,1181.1181 838.6678,1182.0571 L834.921443,1191.27019 C794.584381,1290.59847 755.66963,1390.98046 729.6358,1495.3641 C784.9858,1717.5301 644.6438,1919.3001 748.3678,2154.9011 C752.7738,2165.8751 757.5408,2176.7091 762.6148,2187.3741 C765.9198,2196.7311 776.9638,2210.3751 776.1518,2219.4991 C815.4708,2227.6351 848.2708,2199.2011 881.0038,2181.8931 L882.016268,2181.44805 C893.206567,2176.45791 913.20463,2165.45155 924.0308,2171.5771 C924.2258,2171.7061 924.3898,2171.8571 924.5718,2171.9971 C925.5388,2171.7891 926.5068,2171.5941 927.4748,2171.3991 C930.5578,2170.5051 933.6438,2169.6231 936.7388,2168.7711 C937.4818,2168.5661 938.2308,2168.3461 938.9828,2168.1221 C939.0898,2161.1871 941.2588,2153.0571 943.2028,2147.5491 C1000.2788,1936.5311 982.9288,1714.2541 1012.4028,1498.7781 C1013.32237,1490.45168 1014.29146,1482.12808 1015.30287,1473.80813 C1000.28142,1473.3563 985.295859,1472.26789 970.4191,1470.4733 C965.8791,1469.9253 960.2281,1466.3763 960.9291,1460.7453 C962.3231,1449.5543 963.6321,1438.3543 964.8401,1427.1413 C974.8591,1334.1513 978.4831,1240.5573 978.2611,1147.0333 C978.132016,1092.52702 976.573144,1038.06156 973.97593,983.642202 C958.768897,986.812914 943.369966,988.986187 927.9025,990.2775 C895.3265,992.9955 862.6095,991.7095 830.1235,988.4195 C813.6735,986.7535 797.3315,984.4595 781.0085,981.8025 L778.138437,981.33012 C766.173606,979.336745 754.145045,977.00004 742.58559,973.223154 L741.200741,972.762945 Z M461.7211,2078.2069 C462.3391,2077.0639 464.1581,2077.8489 463.7781,2079.0959 C450.6671,2121.5309 439.4411,2164.5549 429.7111,2207.9279 C424.0401,2237.5459 405.4731,2228.5979 413.7921,2202.4239 C424.4321,2159.1299 440.7281,2117.3109 461.7211,2078.2069 Z M794.3418,2091.1169 C794.2878,2090.0449 795.7968,2089.9349 796.0918,2090.8739 C804.4518,2117.7669 815.7318,2144.0329 831.5678,2167.2079 C836.5038,2174.3799 843.4088,2181.0289 845.8378,2189.6459 C846.9798,2193.6969 842.6778,2196.3409 839.3648,2194.7479 C830.991855,2190.72048 825.721919,2180.92854 821.015693,2173.12342 L820.7548,2172.6919 C805.7518,2148.0719 795.8478,2120.2209 794.3418,2091.1169 Z M513.6791,2148.5302 C514.7891,2147.1062 516.7961,2148.9332 516.0341,2150.3942 L515.685847,2151.09912 C512.160721,2158.32366 491.38586,2202.23272 488.5481,2184.8692 C494.0291,2171.2392 504.7741,2159.9582 513.6791,2148.5302 Z M957.2708,2173.7451 C957.1058,2173.9001 956.9418,2174.0581 956.7728,2174.2081 C958.3408,2174.7501 959.8798,2175.3801 961.3908,2176.0741 C960.0278,2175.3231 958.6398,2174.5521 957.2708,2173.7451 Z M647.2066,30.9255718 L645.235659,32.3448331 C634.029692,41.7776517 622.628898,50.9688244 611.311176,60.2607494 C610.076184,61.4009051 608.815839,62.5106131 607.5238,63.5802 C606.5458,64.3902 604.870112,66.1882008 602.496735,68.9742023 C603.676497,73.3342255 604.416387,77.9778134 605.526011,82.407281 L605.8708,83.7292 C607.7928,90.8022 609.3388,97.9472 610.9418,105.1032 C614.8468,122.5252 616.9998,140.2972 617.0488,158.2042 C617.0868,172.2162 615.2898,186.1992 613.9558,200.1262 L612.325352,217.127608 C611.51288,225.6286 610.7102,234.1306 609.9428,242.6362 C608.6618,256.8452 607.4078,271.0652 606.5338,285.3072 L606.498666,285.982675 C606.356214,289.494392 607.135162,289.098168 610.960601,290.163484 L611.1938,290.2292 C614.1628,291.0772 617.1638,291.8042 620.1868,292.4122 C626.4488,293.6702 632.7598,294.2902 639.1328,294.4912 C643.6348,294.6342 646.0718,301.4352 641.5698,303.7152 C633.0423,308.033533 624.538411,312.40395 616.07318,316.850177 L610.161408,319.965647 C605.948972,322.151505 601.437487,324.309513 600.3678,329.4892 C599.4348,334.0042 600.6078,338.9762 601.2058,343.4642 C603.8678,363.4492 605.2578,383.5792 607.3528,403.6302 C609.2448,421.7402 611.6878,439.8772 616.3668,457.4792 C621.3548,476.2412 629.0118,494.2702 634.8048,512.7972 C644.6508,544.283291 653.579693,576.135555 662.399348,607.968954 L668.2718,629.1842 C679.1528,668.4612 688.9738,708.1302 695.3288,748.4682 C698.4328,768.1742 700.7168,788.0172 701.9388,807.9412 L702.175318,811.882704 C703.277366,830.744811 703.900561,850.018809 700.7008,868.6322 C699.9138,873.2152 693.3238,871.7932 693.1508,867.5852 C692.1868,844.1162 693.3938,820.7192 691.5308,797.2392 C689.6588,773.6592 686.2428,750.2442 681.8178,727.0312 C674.258773,687.382551 663.801969,648.390896 652.707746,609.650033 L651.7818,606.4222 C640.621057,567.577686 630.496468,528.316068 617.169158,490.169171 L615.9848,486.8062 C609.7948,469.3682 604.5688,452.3052 601.6018,433.9412 C599.037229,418.066057 597.470371,402.049853 595.990628,386.034908 L595.2538,378.0282 C594.4088,368.8692 593.5488,359.7092 592.4528,350.5772 C591.4768,342.4552 589.0238,333.4582 591.4318,325.3852 C594.0418,316.6342 602.1948,313.0442 609.5068,309.1962 C612.508702,307.616269 615.514806,306.045185 618.524891,304.48236 C619.13545,304.165361 619.494217,302.321529 618.771861,302.183567 C618.39697,302.111968 617.203524,301.866663 615.191522,301.447655 C609.633508,300.293858 600.925582,299.071582 597.8988,293.7022 C596.4468,291.1252 596.7088,288.1432 596.8778,285.3072 C597.1208,281.2382 597.4248,277.1712 597.7108,273.1042 C598.3288,264.2972 599.0088,255.4942 599.7338,246.6942 C600.9588,231.8382 602.3018,216.9922 603.6298,202.1442 C604.9348,187.5542 606.7768,172.8712 606.7538,158.2042 C606.7228,139.0282 603.8988,120.6432 599.7738,102.0692 C598.313672,95.4982021 597.135837,88.9465491 596.189352,82.3026516 C513.839509,122.422551 413.611763,105.155088 386.8483,227.4481 C349.770122,447.329736 331.743012,675.811557 361.769957,897.851774 C388.12128,887.810304 415.943551,882.383574 444.0863,881.6639 C450.5343,881.4989 450.5093,891.7509 444.0863,891.9149 C416.360615,892.623692 389.096053,898.174701 363.210838,908.204858 C368.985632,948.873214 376.395578,989.316163 385.6143,1029.4421 C387.586445,1029.01659 389.547713,1028.53936 391.504756,1028.04062 C393.29954,1026.9603 395.401083,1026.44286 397.449163,1026.4894 C402.886193,1025.06771 408.342998,1023.71659 413.9623,1023.0861 C413.7563,1022.1481 415.2023,1021.9021 415.1873,1022.9011 C459.9913,1016.1501 508.6013,1024.0381 549.1793,999.3551 C540.7643,954.9481 531.3273,910.7121 520.9803,866.7021 C475.0993,697.8531 574.0053,533.7861 555.0113,364.7231 C554.8993,363.8501 556.2913,363.6981 556.4893,364.5181 C594.4533,536.6521 487.1293,708.0221 541.5613,879.7131 C546.5193,901.1071 551.8183,922.4241 556.2143,943.9511 L556.427019,944.895481 C559.020511,956.719153 570.95348,1020.49158 554.5663,1014.8811 C551.4063,1016.9611 547.8603,1018.5491 544.3313,1019.9571 C549.464905,1040.1614 566.544767,1053.92807 579.589596,1068.44154 L580.0483,1068.9541 L582.4073,1071.3981 C605.9773,1089.9931 631.5953,1156.3841 577.2543,1140.0521 C570.1533,1148.3191 575.3133,1162.0081 575.9523,1171.7641 C578.6583,1194.5881 568.1633,1212.6491 544.9683,1215.5641 C523.8083,1218.4291 502.2803,1218.2991 481.0153,1220.1241 L480.9683,1220.6051 C480.1613,1220.7591 479.3563,1220.9061 478.5513,1221.0651 L478.7033,1220.2711 L473.593821,1220.66624 C461.018418,1221.57682 448.0915,1221.54926 440.8843,1208.8711 C423.544702,1177.1748 419.297443,1137.52877 417.34141,1098.39175 L417.0157,1095.7721 C415.4997,1083.6091 414.0637,1071.4431 412.7157,1059.2601 C412.2522,1055.07885 411.843262,1050.89535 411.42645,1046.71171 L410.926115,1041.76951 C410.590931,1038.58937 410.12615,1035.20219 408.302304,1032.9057 C407.575788,1032.95728 406.849777,1033.01831 406.123682,1033.08538 C406.330472,1034.00752 406.40773,1035.02653 406.3314,1036.1424 C404.3664,1064.8884 401.7674,1093.5824 398.5154,1122.2054 C388.498309,1210.39551 372.107823,1297.53709 357.409834,1384.97728 L360.228763,1389.69968 C376.823039,1391.62587 393.37188,1393.96961 409.856883,1396.71009 L413.3884,1397.3034 C496.891,1411.4815 578.559286,1435.56004 658.600112,1463.49777 L665.822585,1461.45147 C665.952067,1461.25551 666.0804,1461.05873 666.2064,1460.8604 C667.1324,1459.4024 667.9824,1457.8934 668.7914,1456.3644 C669.5994,1454.8364 670.34468,1453.27832 671.0682,1451.7091 L672.469194,1448.63122 C672.74675,1448.0007 672.7084,1448.00074 673.5064,1445.9224 C677.4654,1435.6064 680.4834,1424.9144 683.1664,1414.1854 C690.8284,1383.5444 695.7734,1352.1814 700.0574,1320.8834 C711.8334,1234.8254 717.6994,1147.8324 721.8244,1061.0784 C726.3294,966.3344 728.3934,871.4634 726.9994,776.6124 C726.4074,736.3974 725.2694,696.1814 722.7464,656.0404 C718.6192,590.3552 710.875147,524.992311 702.637115,459.733839 L700.8654,445.7514 C696.3364,410.1154 691.5604,374.5104 688.0914,338.7444 C684.7294,304.0744 682.1704,269.3314 679.1694,234.6284 C677.498755,215.30844 675.67435,196.028007 673.551835,176.803143 C670.201011,157.986835 666.654798,139.205534 663.5636,120.3319 C659.019667,92.5899 654.012298,64.9124956 648.721159,37.3048944 L647.2066,30.9255718 Z M897.1734,75.1802 L896.217041,74.0516226 C886.126912,62.2878503 871.962524,50.3056802 856.143,51.3841255 C855.773894,51.4092881 855.531691,52.2345462 855.416392,53.8598997 C857.804204,58.2045916 860.139862,62.5745604 862.429902,66.9692054 C862.718696,67.3545698 862.947285,67.7859598 863.100638,68.2596777 C866.118145,74.079137 869.056922,79.9416842 871.932126,85.8459165 L874.326382,90.7845201 C880.450177,103.34661 887.10735,115.98275 890.1825,129.7055 C890.235507,129.942442 890.255021,130.167686 890.245804,130.379514 C914.466351,194.527481 924.23823,264.724181 931.8171,332.3813 C941.58405,419.5761 950.068547,506.971255 958.750422,594.293262 L960.1231,608.0803 C969.5891,703.0043 978.4741,797.9973 985.0101,893.1883 C991.5681,988.7083 996.0711,1084.4813 996.0601,1180.2543 C996.049578,1269.87752 991.706845,1359.59772 981.358605,1448.61151 L982.011485,1452.29269 C1025.7908,1456.74668 1069.41817,1456.93232 1113.17459,1450.95501 L1114.55925,1450.7616 C1116.56571,1443.28747 1118.73872,1435.89705 1120.884,1428.4476 C1140.942,1358.7806 1145.322,1285.7326 1142.054,1213.4856 C1138.79486,1141.42427 1128.62435,1070.08107 1117.44922,998.937684 L1116.347,991.9406 C1104.98524,919.996681 1094.6731,848.059921 1086.81653,775.637688 L1086.1156,769.109947 C1075.09617,780.305733 1061.79148,788.77345 1047.0934,794.192 C1041.08245,796.407652 1038.48018,786.736978 1044.2424,784.381962 L1044.4354,784.307 C1060.165,778.507598 1073.84593,768.595449 1084.70603,755.626825 C1077.776,688.777028 1071.56911,621.842425 1065.55553,554.897958 C1064.01587,540.862456 1062.96495,526.746908 1061.7112,512.7166 C1060.62849,500.596174 1059.60682,488.473597 1058.6289,476.34841 C1053.42783,415.45827 1048.72826,354.53904 1045.09496,293.519791 C1044.9419,290.94924 1050.01439,290.040082 1050.43728,291.982624 C1052.21181,300.133935 1053.02559,308.510657 1053.9672,316.8026 C1055.1552,327.2546 1056.0312,337.7846 1056.8752,348.2716 C1058.60092,369.705661 1060.2242,391.149646 1061.8318,412.59468 C1067.54293,459.995206 1072.8215,507.450049 1078.075,554.9116 C1086.902,634.6676 1094.445,714.5726 1103.455,794.3066 C1111.1512,862.408788 1121.88357,929.946126 1132.53563,997.580087 C1153.15108,989.967594 1171.66157,977.595773 1186.8794,961.5313 C1199.6234,936.7283 1197.9934,902.0703 1192.2734,875.2983 C1190.9024,867.5713 1189.5164,859.8473 1188.1334,852.1223 C1177.4964,850.9093 1166.7844,850.6963 1156.0484,851.4783 C1149.6164,851.9473 1149.6654,841.6923 1156.0484,841.2273 C1166.1494,840.4913 1176.2354,840.6543 1186.2614,841.6413 C1170.9764,756.5743 1154.9994,671.6353 1139.3894,586.6293 C1118.0914,474.8543 1102.0564,361.6023 1070.4394,252.2213 L1068.82829,246.705717 C1051.28411,186.945092 1027.56805,117.61797 963.4074,98.4013 C949.25425,93.7990115 934.557956,90.9791046 919.706363,89.1132054 C928.139311,102.554721 935.010684,117.16239 941.5274,131.4762 C952.825789,156.290533 965.306045,180.603577 977.32629,205.069891 L979.4424,209.3892 C992.131189,235.369236 1010.89926,277.78658 992.384011,304.361436 C992.025404,304.876143 992.035523,307.227913 992.572072,307.454141 C1002.87651,311.798848 1011.38404,320.693248 1016.2619,331.030155 L1016.4734,331.4842 C1024.77186,349.531101 1023.90061,370.071365 1023.79997,389.571265 L1023.75721,404.966692 C1023.5419,480.330518 1023.01034,555.695029 1019.7754,630.9982 C1018.0624,670.8772 1015.6234,710.7272 1012.1114,750.4842 L1011.67408,755.407099 C1008.29926,793.164894 1004.36686,831.260242 996.3044,868.2682 C995.4684,872.1082 989.2684,871.2742 989.5834,867.3362 C993.0004,824.6462 998.5234,782.1692 1001.9154,739.4622 C1007.9734,663.1722 1010.0364,586.6652 1011.0834,510.1532 C1011.54918,476.122089 1011.74157,442.088607 1011.8762,408.054863 L1011.9244,395.2922 C1011.9874,377.6142 1013.5184,358.7802 1007.9394,341.7602 C1003.5714,328.4362 992.4214,316.0382 977.8544,316.3792 C971.9504,316.5172 970.3484,308.4642 974.9624,305.4332 C990.9314,294.9442 990.2174,273.7532 986.2924,256.9372 C981.6227,236.93246 971.79181,218.894619 962.876067,200.634465 L962.3314,199.5162 C951.0504,176.2972 939.416392,153.2282 928.2874,129.9392 L926.244827,125.641413 C917.920251,108.055327 909.673023,90.1104075 897.1734,75.1802 Z M1033.9555,1421.813 C1034.6205,1421.813 1034.6195,1422.87 1033.9555,1422.87 C1033.2915,1422.87 1033.2925,1421.813 1033.9555,1421.813 Z M534.7353,1023.5101 C496.5803,1035.5071 456.0623,1031.3661 416.7333,1032.6411 L416.906423,1033.63621 C418.476539,1036.0984 419.564771,1038.92412 419.9787,1041.2831 C422.3107,1054.5731 423.7017,1068.1651 425.2297,1081.5731 C427.897514,1104.97927 431.081322,1128.25661 432.159882,1151.74913 C434.374686,1162.74393 437.161884,1173.60847 440.8193,1184.2741 L441.296501,1185.62483 C449.023695,1207.35648 453.61574,1212.95236 477.5003,1208.9961 C496.4763,1207.5771 515.4663,1206.3391 534.4373,1204.8571 L537.038468,1204.64302 C545.271395,1203.92692 554.636623,1202.57487 560.1463,1195.8621 C572.1873,1179.4691 558.2353,1157.6811 564.8133,1139.8541 C574.4093,1118.1891 584.4703,1137.2241 596.7983,1130.5331 C604.6043,1125.1151 595.8363,1107.8361 592.7493,1101.8951 C580.0973,1080.2731 558.6123,1065.5611 544.9923,1044.4281 L544.452879,1043.65055 C540.710656,1038.23478 535.893788,1030.7547 534.7353,1023.5101 Z M1175.7694,996.5833 C1162.90223,1003.26414 1148.8403,1007.4084 1134.28239,1008.67624 L1136.573,1023.2856 C1141.51014,1054.85837 1146.34627,1086.51759 1150.34725,1118.27385 C1169.70269,1085.28155 1177.48793,1045.10447 1179.5344,1006.8643 C1178.9374,1004.5923 1178.2704,1002.3523 1177.4314,1000.2103 C1176.6094,1000.7623 1175.7784,1001.2983 1174.9404,1001.8173 L1175.15188,1000.34845 L1175.5564,997.4083 L1176.2064,997.4403 C1176.0634,997.1533 1175.9214,996.8653 1175.7694,996.5833 Z M1184.0064,979.6443 L1183.9054,979.1283 L1183.0424,979.2243 C1181.4484,980.6083 1179.8194,981.9463 1178.1734,983.2603 L1178.3784,983.4413 C1180.2924,982.2413 1182.1694,980.9753 1184.0064,979.6443 Z M673.162582,127.120879 L673.50014,129.042938 C684.989982,195.11006 689.855776,262.203635 697.1024,328.9104 C706.1684,412.3684 720.0834,495.2014 729.2004,578.6664 C741.4654,690.9434 743.7384,803.8504 742.2464,916.7374 C742.021988,933.705976 741.717077,950.677852 741.322739,967.650141 C756.977183,967.203566 772.681055,969.318247 788.2245,970.9655 L793.769944,971.5476 C853.562051,977.756749 914.124609,981.721818 973.220379,968.375193 C971.409401,933.033543 969.175922,897.712368 966.6271,862.4123 C959.7981,767.8353 950.9111,673.4213 941.9531,579.0373 C933.3841,488.7493 927.4121,398.1243 917.7451,307.9583 C911.455948,249.296009 901.433415,191.38313 883.713104,135.772058 C878.228369,145.038283 863.578064,149.513876 853.142578,152.262265 L848.1508,153.5556 C815.8828,161.9926 782.0658,163.2146 749.2748,157.3896 C732.7558,154.4546 716.6288,149.7476 701.2758,142.8116 C693.3888,139.2486 685.9338,134.7786 678.5138,130.3026 C676.99259,129.385405 675.011223,128.356919 673.162582,127.120879 Z M528.8592,774.4688 C522.9752,771.8158 528.0702,762.9858 533.9062,765.6168 C569.8522,781.8198 608.7672,790.3688 648.0102,790.9608 C654.4502,791.0578 654.4472,801.3098 648.0102,801.2128 C606.9002,800.5928 566.4802,791.4268 528.8592,774.4688 Z" id="🖍-Ink" fill="#000"/></g></g><g id="Head" transform="translate(405.000000, 189.000000) scale(0.9978902953586498 1)"><g id="Head/Bun" stroke="none" stroke-width="1" fill="none" fill-rule="evenodd"><path d="M120.4319,26.5199191 C183.446324,23.0799421 239.27554,5.37473001 283.6318,44.9997826 C331.469886,9.27495986 359.379886,-1.784301 367.3618,11.822 C375.384449,25.4977403 364.258564,43.8564114 367.2418,60.7319165 C386.69384,93.892526 385.594059,150.020553 386.69384,163.174008 C389.465854,196.327487 406.926226,321.084154 406.926226,350.709536 C406.926226,365.83145 394.458487,405.436158 386.69384,427.476308 C369.41148,476.532731 336.422265,501.533909 282.321276,501.533909 C228.220287,501.533909 139.916772,456.316062 111.596364,416.1693 C109.114385,412.650868 93.0642939,422.915625 76.2765664,405.109924 C58.089672,385.820213 48.0005996,349.028234 48.0005996,327.096436 C48.0005996,299.265802 30.0141676,279.965538 32.1062727,244.341459 C36.7785376,164.78277 53.0035244,30.2008552 120.4319,26.5199191 Z" id="✋-Skin" fill="#694d3d"/><path d="M367.424845,11.6292482 C375.447494,25.3049885 364.32161,43.6636597 367.304845,60.5391648 C374.811248,73.3356071 379.257212,89.5522033 381.950135,105.399625 L367.2418,113.206092 L361.798942,114.004301 C273.550457,127.015146 217.227007,138.724434 192.828592,149.132165 C168.181212,159.646096 138.269217,196.573244 103.092606,259.913607 L102.025036,261.841097 L95.0546827,309.113 L63.0994206,318.913893 L48.0579198,326.043239 C47.6938973,298.672247 30.0988412,279.404499 32.1693178,244.148708 C36.8415827,164.590018 53.0665695,30.0081034 120.494945,26.3271673 C183.509369,22.8871903 239.338585,5.18197822 283.694845,44.8070308 C331.532931,9.08220807 359.442931,-1.97705278 367.424845,11.6292482 Z" id="bandana" fill="#9FD8E5"/><path d="M113.3918,-65.978 C114.2118,-66.028 115.0418,-65.988 115.8718,-65.907 C116.7818,-65.867 117.6918,-65.778 118.6018,-65.597 C123.2318,-64.708 127.3618,-62.258 130.5618,-58.808 C130.6518,-58.718 130.7218,-58.617 130.8018,-58.528 C132.3018,-57.398 133.6918,-56.117 134.9418,-54.758 C135.1618,-54.968 135.3718,-55.177 135.6018,-55.387 C136.2618,-55.968 136.9518,-56.518 137.6718,-57.037 C140.684843,-59.6205652 144.219399,-61.4987164 148.021673,-62.5673103 L148.5418,-62.708 C148.6418,-62.738 148.7418,-62.758 148.8418,-62.778 C151.5418,-63.677 154.3818,-64.137 157.2418,-64.128 C160.6618,-64.238 164.0918,-63.677 167.2918,-62.358 C171.0818,-60.787 174.3818,-58.308 177.1518,-55.327 C178.9718,-53.847 180.5618,-52.218 182.2418,-50.427 C185.7118,-46.718 188.4518,-42.378 190.1818,-37.597 C190.4218,-36.927 190.6318,-36.238 190.8218,-35.548 C195.0518,-36.037 199.3018,-36.387 203.5518,-36.558 C208.3218,-36.847 213.0918,-36.948 217.8718,-36.787 C231.0418,-36.358 243.9218,-34.037 256.3918,-29.787 C258.8918,-29.048 261.3218,-28.108 263.6618,-26.948 C267.3318,-25.488 270.8018,-23.628 274.0718,-21.378 L276.8574,-19.726 C278.2566,-18.8944 279.6558,-18.052 281.0118,-17.188 C284.2418,-15.117 287.3018,-12.798 290.2018,-10.298 C293.2618,-7.827 296.1518,-5.137 298.9018,-2.318 C299.6488,-1.555 300.3698,-0.782 301.0808,-0.00399999999 C307.4198,3.417 313.0508,7.797 318.3028,13.021 C322.4678,10.625 326.7808,8.453 331.2318,6.522 C335.8218,4.532 341.6518,2.482 346.4618,1.133 C350.7818,-0.077 355.0518,-0.907 359.3818,-1.518 C361.3518,-1.858 363.3318,-2.128 365.3218,-2.358 L365.2418,-2.327 L365.2418,-2.327 C366.6418,-2.478 368.0318,-2.608 369.4418,-2.728 L369.4018,-2.738 L369.4018,-2.738 C370.0018,-2.787 370.6118,-2.838 371.2118,-2.878 L372.6718,-2.997 L372.6718,-2.997 C373.1118,-3.037 373.7518,-2.008 373.7918,-1.648 L373.8418,-1.278 L373.8418,-1.278 C374.1718,-0.907 374.4718,-0.497 374.6818,-0.247 C374.9418,-0.268 375.2018,-0.287 375.4618,-0.298 C376.2418,-0.367 377.1418,1.022 377.6018,1.552 L378.017676,2.04067091 C378.491504,2.61040237 378.964877,3.26661538 379.0418,3.982 C379.5518,8.133 380.0318,12.292 380.4718,16.452 C380.6418,19.602 380.4718,22.722 379.9518,25.812 C379.5618,28.812 379.1618,31.812 378.7618,34.802 C378.1218,36.903 377.4918,39.003 376.8618,41.102 C376.6118,41.903 376.3318,42.692 376.0618,43.482 C374.4628,48.758 372.5878,53.894 370.3548,58.871 C371.9838,60.673 373.5028,62.541 374.9158,64.47 C375.2538,64.817 375.5938,65.162 375.9118,65.522 C376.0018,65.383 376.1318,65.253 376.2718,65.182 C376.7518,64.972 377.1018,65.222 377.4018,65.633 C380.5518,68.642 382.8418,72.153 384.2618,76.162 L385.146244,78.2528148 C385.292911,78.6024444 385.438467,78.9523333 385.5818,79.302 C386.7118,82.343 387.5818,85.463 388.3018,88.622 C388.9458,91.108 389.4078,93.628 389.7058,96.175 C391.8658,103.428 393.5738,110.848 395.1848,118.168 C395.4388,119.32 395.3188,120.348 394.9498,121.224 L395.8918,122.142 L395.8918,122.142 L397.501198,123.744801 C400.205133,126.440611 402.963467,129.2745 404.9718,132.482 C407.0518,135.812 408.5818,139.372 410.2818,142.903 L410.64805,143.653 L410.64805,143.653 L411.396644,145.157066 C412.206019,146.79925 412.5943,147.706625 413.3118,149.692 C414.5018,153.003 415.1418,156.332 415.4418,159.843 C415.8818,164.952 415.8218,170.522 413.5818,175.272 C413.5718,175.312 413.5518,175.343 413.5318,175.372 C412.5118,179.963 409.9918,184.222 406.1618,186.942 C405.3418,187.713 404.4618,188.403 403.5218,188.952 C401.2658,190.2768 399.19412,190.395226 396.731682,189.78238 L396.4218,189.702 C396.1118,189.622 395.8318,189.552 395.5618,189.492 C395.9618,189.822 396.1618,190.213 395.5618,190.492 C394.9818,190.772 394.4618,190.932 393.9718,190.992 C394.1818,191.262 394.2018,191.552 393.7618,191.792 C392.8018,192.302 392.0218,192.463 391.2218,192.322 L391.390029,193.712207 C392.701942,204.232368 393.875473,206.312857 394.9018,217.613 C395.5818,229.182 396.6618,240.722 398.1518,252.213 L398.66536,256.38832 C400.310303,269.621887 402.159895,282.952476 404.9918,295.972 C406.4218,301.662 407.6518,307.392 408.6918,313.162 C410.1618,317.552 411.1918,322.042 411.7618,326.622 C412.5918,331.282 413.1618,335.982 413.4918,340.722 C414.6418,343.753 415.2018,346.832 415.1718,349.972 C415.3218,354.192 415.1818,358.403 414.7318,362.593 C414.4818,366.952 413.8818,371.272 412.9318,375.552 C412.0818,381.423 410.5318,387.093 408.3118,392.593 C406.5318,398.732 404.3518,404.753 401.8718,410.642 C398.0218,419.762 393.3718,428.232 388.0818,436.582 C383.1218,444.412 377.8018,451.952 371.7218,458.963 C363.8618,468.022 354.9018,476.322 345.0818,483.322 C339.4818,487.463 333.5718,491.182 327.3918,494.363 C319.8318,498.262 312.1518,501.772 303.9618,504.142 C298.8518,505.622 293.6518,506.642 288.3918,507.423 C278.0618,508.952 267.3618,508.722 256.9718,506.932 C250.2718,506.032 243.6818,504.472 237.4518,502.242 C232.3318,500.403 227.4518,498.292 222.5718,495.912 C220.0618,494.702 217.6418,493.302 215.3218,491.732 C211.4218,489.202 207.7718,486.343 204.3718,483.182 C203.2618,482.232 202.1818,481.262 201.1218,480.242 C200.6118,479.792 200.8918,479.122 201.4818,478.963 L201.6618,478.942 L201.6618,478.942 C201.4318,478.732 201.1918,478.522 200.9618,478.302 C200.9118,478.262 200.8718,478.213 200.8318,478.162 C200.7218,478.062 200.6018,477.963 200.5018,477.863 C200.1118,477.522 200.5018,476.762 200.8418,476.582 C200.9718,476.512 201.1418,476.503 201.3318,476.522 C201.2918,476.482 201.2618,476.452 201.2218,476.423 C201.1818,476.392 201.1718,476.312 201.1818,476.232 L201.0318,476.113 L201.0318,476.113 C200.5218,475.662 200.7818,475.003 201.3818,474.832 C201.675133,474.743111 202.158096,474.788543 202.662129,474.898063 L202.8518,474.942 L202.5118,474.622 C201.9118,474.102 202.1018,473.522 202.8418,473.343 C203.3938,473.375 203.9394,473.45116 204.4786,473.582744 L204.8818,473.692 C205.0818,473.742 205.2718,473.802 205.4718,473.863 C205.1318,473.552 204.7918,473.253 204.4618,472.942 C204.1318,472.653 204.4818,471.822 204.7818,471.653 C205.1918,471.423 205.9918,471.742 206.3618,472.012 C207.2718,472.113 208.4718,472.512 208.9118,472.892 C210.1218,474.052 211.3718,475.162 212.6418,476.242 C213.4118,476.482 214.1418,476.802 214.7018,477.282 C216.1418,478.662 217.6418,479.963 219.1718,481.222 L220.334763,482.023481 C220.529578,482.155333 220.725133,482.285333 220.9218,482.412 C223.1218,483.702 225.3218,484.982 227.5118,486.272 C235.5418,488.992 243.5718,491.713 251.5918,494.423 L252.6518,494.742 L252.6518,494.742 L260.4418,495.702 L260.4418,495.702 C265.5618,496.242 270.6918,496.213 275.8118,495.622 C279.6518,495.673 283.4618,495.292 287.2118,494.512 C293.5818,493.432 299.8318,491.843 305.9118,489.622 C312.9118,487.072 319.5818,483.713 326.0918,480.093 C328.4318,478.782 330.7318,477.392 332.9918,475.923 C333.7218,475.403 334.4518,474.872 335.1818,474.332 C339.9918,470.722 344.5918,466.872 349.0218,462.802 C351.1018,460.892 353.1018,458.903 355.0318,456.843 C355.3118,456.542 355.5818,456.253 355.8518,455.952 C357.7018,453.932 359.4918,451.843 361.2018,449.682 L362.8318,447.843 L362.8318,447.843 C369.4118,439.653 375.2618,430.843 380.5218,421.772 C385.7418,412.782 390.0418,403.322 393.4618,393.532 C394.5618,390.042 395.5218,386.503 396.3218,382.923 C397.8018,378.622 398.7718,374.213 399.2218,369.713 C399.3718,368.832 399.4918,367.952 399.6118,367.072 L399.680689,365.684815 C399.690689,365.453222 399.698467,365.222 399.7018,364.992 C399.9018,363.593 400.0718,362.192 400.2018,360.792 C400.2818,359.383 400.3318,357.972 400.3418,356.562 L400.2318,347.912 L400.2318,347.912 C400.2018,347.642 400.1718,347.363 400.1518,347.082 L399.9318,345.173 C399.4518,341.232 399.0818,337.282 398.6018,333.343 C398.6018,333.322 398.6018,333.292 398.5918,333.262 C398.4118,331.792 398.2218,330.312 398.0018,328.832 C397.8918,327.952 397.7518,327.072 397.6218,326.192 L397.3718,324.653 L397.3718,324.653 C396.90805,321.9755 396.344769,319.320203 395.661859,316.688449 L395.3618,315.562 L393.6218,306.812 L391.6618,298.202 C390.3918,292.432 389.3318,286.622 388.4918,280.762 C386.9718,271.423 385.6718,262.072 384.5418,252.682 C384.4818,252.232 384.4218,251.772 384.3718,251.322 C383.2218,242.613 382.3918,233.872 381.8518,225.102 C381.1218,216.463 380.7018,207.802 380.5918,199.133 C380.5818,198.742 380.8418,198.423 381.1518,198.242 L381.124055,196.575193 C381.087139,195.100597 381.060638,196.86955 381.047893,195.188455 L381.028866,190.564654 C381.030007,190.179299 381.033736,189.911085 381.0418,189.892 C375.698642,190.261474 372.105623,189.958715 366.94669,189.686896 L366.0718,189.642 C361.3418,189.423 356.6418,188.903 351.9718,188.122 C351.9518,188.363 351.7918,188.532 351.5218,188.582 C351.0418,188.602 350.5918,188.602 350.1318,188.613 L350.3018,189.262 L350.3018,189.262 C350.3118,189.593 350.1618,189.802 349.8418,189.892 L348.5078,189.95192 C346.727,190.0268 344.9398,190.062 343.1718,189.822 C341.5818,189.613 340.0318,189.242 338.4918,188.802 C337.5418,188.642 336.5718,188.423 335.5818,188.142 C333.0418,187.412 330.5218,186.432 327.9718,185.653 C325.3718,185.102 322.7318,184.923 319.9718,185.582 C317.0518,186.272 314.5818,187.522 311.5218,186.762 C310.9118,186.613 310.3218,186.383 309.7318,186.142 L309.185874,186.103926 C309.092911,186.095778 308.998467,186.085667 308.9018,186.072 C305.7118,185.613 302.8718,183.593 299.8318,182.512 C298.770262,182.253538 297.717244,182.318864 296.688477,182.748089 L296.4318,182.863 L295.4218,183.613 C295.015133,184.092333 294.612911,184.576556 294.215133,185.062407 L293.6218,185.792 C292.5318,187.142 291.3718,188.352 289.9618,189.232 C288.2618,190.802 286.2418,191.722 283.8318,191.782 C282.4618,191.822 281.1018,191.532 279.7818,191.113 C274.8018,192.653 269.4718,192.963 264.5018,191.463 C262.5318,191.162 260.6018,190.633 258.7518,189.802 C257.8818,189.412 257.0118,188.952 256.1718,188.442 C252.6618,189.923 249.3418,191.892 245.9518,193.593 L245.188252,193.976381 C241.724428,195.701872 237.891455,197.384379 233.9718,197.133 C229.0318,196.812 224.1818,196.153 219.3418,195.322 C219.3018,195.322 219.2518,195.312 219.2118,195.302 L218.54555,195.191125 L218.54555,195.191125 L216.124393,194.766296 L216.124393,194.766296 L214.1718,194.403 L214.1718,194.403 L213.173988,194.785279 C205.158664,197.81793 196.3762,200.1836 188.3218,198.062 C184.8118,197.633 181.5218,196.452 178.5518,194.442 C178.4518,194.372 178.3518,194.302 178.2518,194.222 C177.7818,193.982 177.3418,193.713 176.9518,193.423 L176.86805,193.3575 L176.86805,193.3575 L176.7918,193.292 L176.7518,193.272 C172.3618,191.253 169.8418,186.952 170.2818,182.133 C170.0118,180.602 170.0218,179.102 170.3218,177.503 C168.8918,179.192 167.4318,180.863 165.9518,182.522 C160.538229,189.040571 155.236749,195.689342 150.327591,202.610828 L149.2018,204.213 C146.5018,208.022 143.9918,211.963 141.6718,216.022 C139.3218,220.032 136.9118,224.003 134.4218,227.923 C131.1843,231.500875 128.053988,235.1645 125.037562,238.917895 L123.7518,240.532 L119.4118,246.242 C116.3418,249.883 113.7918,253.863 111.7818,258.182 C110.1318,261.253 108.6118,264.383 107.2418,267.593 C106.8018,268.562 106.3818,269.542 105.9718,270.522 C104.5618,274.352 103.3718,278.253 102.4418,282.282 C101.6948,285.198 101.1584,288.1545 100.83989,291.152229 L100.7418,292.153 C100.6218,293.332 100.5318,294.512 100.4818,295.692 C100.7718,295.863 101.0118,296.032 101.1918,296.202 L101.9218,296.463 L101.9218,296.463 L102.512051,296.637877 C103.432192,296.92357 105.02111,297.513724 104.6418,298.242 L102.7118,301.923 L102.7118,301.923 C102.9118,302.133 103.0018,302.352 102.8718,302.593 C101.5818,305.062 100.2818,307.532 98.9818,310.003 C98.9418,310.093 98.8718,310.162 98.8018,310.213 C99.9118,310.722 100.9918,311.282 102.0218,311.892 C104.0318,313.093 105.5118,314.482 106.8818,316.102 C108.3218,316.963 109.6818,317.903 110.9618,318.982 C112.5418,320.642 113.9218,322.463 115.0918,324.432 C116.1718,326.292 117.0518,328.232 117.7318,330.262 C118.0318,331.332 118.1718,332.442 118.1618,333.572 C116.9518,342.113 107.1818,336.262 106.9918,335.512 C105.6518,330.352 104.1118,327.093 100.6518,323.253 L100.5618,323.192 L100.5618,323.192 C98.5618,322.312 96.5818,321.442 94.5118,320.762 C94.2018,320.822 93.8818,320.863 93.5618,320.912 C93.9218,321.423 93.7418,321.923 93.0118,322.012 C89.8618,322.633 86.6818,322.802 83.4818,322.532 L78.6218,321.843 L78.6218,321.843 C76.6058,322.6161 74.6789,323.60871 72.86297,324.790941 L72.2618,325.192 L72.1518,325.272 C67.4618,329.042 63.8418,334.052 61.3618,339.512 C61.1418,339.998667 60.9306889,340.489778 60.7284667,340.985333 L60.4318,341.732 L60.4118,341.772 C57.1718,354.503 60.0618,368.482 65.9818,380.032 C69.2118,385.202 72.5818,390.272 76.1018,395.242 L79.5218,399.713 L79.5218,399.713 C81.5418,401.613 83.5218,403.562 85.4518,405.562 C85.7518,405.863 86.0718,406.162 86.3918,406.452 C87.4118,407.122 88.4518,407.713 89.5118,408.213 C89.9218,408.352 90.3418,408.482 90.7618,408.593 C92.8018,409.572 94.9418,410.093 97.1918,410.153 C100.163675,410.349875 103.047659,410.000949 105.835513,409.11611 L106.3918,408.932 L106.8018,408.782 C108.3218,407.812 109.7318,406.602 111.0718,405.182 C111.3718,404.872 111.9318,404.872 112.5718,405.042 C112.9218,404.682 113.2718,404.302 113.6018,403.892 C113.8318,403.642 114.1918,403.633 114.4718,403.822 C115.4218,403.713 117.9918,405.173 117.3218,405.942 C117.2118,406.122 117.0718,406.282 116.9518,406.452 C117.4018,406.682 117.8518,406.942 118.2518,407.213 C120.3518,407.795361 123.453729,409.891013 123.201716,410.521607 L123.1718,410.572 C122.6858,411.4909 122.054,412.26238 121.2764,412.874047 L121.0118,413.072 L120.4218,413.482 C121.2518,414.003 121.9518,414.602 121.6018,415.022 C121.4418,415.332 121.2718,415.633 121.0718,415.903 C122.7718,418.003 124.4618,420.122 126.1418,422.242 C127.8218,425.883 129.9018,429.282 132.3818,432.432 C134.4518,435.852 136.9418,438.923 139.8518,441.662 C140.0918,441.903 140.3418,442.133 140.5818,442.363 C142.72555,443.94675 144.968831,445.430203 147.304945,446.855564 L148.3118,447.463 C148.8418,447.782 149.7318,448.182 149.3118,448.952 C149.2618,449.052 149.2018,449.133 149.1318,449.192 C150.6018,450.153 152.1218,451.062 153.6918,451.903 L153.840624,451.994567 C154.43412,452.373486 155.2382,453.0608 154.3918,453.622 C153.6718,454.102 151.7618,452.802 150.8618,452.202 C150.6918,452.202 150.4918,452.153 150.2918,452.093 C150.5918,452.252333 150.887356,452.425444 151.187356,452.594556 L151.6418,452.843 C151.9918,453.052 153.7118,454.192 152.5118,454.673 C151.9218,454.722 151.3818,454.572 150.8818,454.232 C150.2918,453.942 149.7118,453.633 149.1418,453.312 C149.3418,453.622 149.3418,453.932 148.8418,454.133 C148.6718,454.142 148.5018,454.133 148.3318,454.113 C149.5118,454.863 150.7218,455.562 151.9718,456.222 L152.173831,456.348617 C152.702113,456.690906 153.5443,457.342125 152.9318,457.903 C152.2418,458.522 150.3418,457.202 149.8518,456.903 L148.3918,456.032 L148.3918,456.032 C148.2818,456.082 148.1618,456.102 148.0318,456.113 C148.4718,456.383 148.8818,456.673 149.3318,456.932 L149.944004,457.265427 C150.710991,457.689407 151.794393,458.385704 151.4018,459.082 C151.009207,459.770889 149.842952,459.203811 149.089846,458.757385 L148.279578,458.255407 C148.244022,458.233556 148.208467,458.212333 148.1718,458.192 L148.140689,458.312222 C148.134022,458.332111 148.125133,458.352 148.1118,458.372 C147.7368,459.0245 146.793675,458.597 146.14305,458.220547 L145.6218,457.903 C144.735133,457.369 143.857356,456.839889 142.985504,456.306778 L141.6818,455.503 L141.6618,455.503 C137.1518,452.792 132.9818,450.093 129.0518,446.613 C126.7018,444.532 124.5118,442.332 122.4318,439.982 C118.2518,435.272 115.1418,429.883 112.1418,424.383 C112.0918,424.292 112.1618,424.062 112.2818,423.812 C111.9518,423.133 111.6318,422.442 111.3118,421.732 C108.2318,422.593 104.7918,422.843 101.6218,422.633 C99.9218,422.522 98.2418,422.222 96.5718,421.772 C91.2418,421.032 86.1018,418.602 81.6618,415.692 C81.3818,415.512 81.1318,415.312 80.8718,415.133 C79.0418,414.102 77.3018,412.903 75.6518,411.532 C72.4318,408.872 69.3618,405.912 66.5718,402.822 C64.5518,400.423 62.6418,397.932 60.8518,395.352 C59.0318,392.802 57.1918,390.253 55.3518,387.702 C50.2418,379.702 46.9718,370.492 45.7018,361.082 C45.0818,357.613 44.7618,354.102 44.8318,350.602 C44.8818,348.072 45.1618,345.512 45.6518,342.963 C45.3618,342.682 45.0718,342.403 44.7818,342.113 C44.6218,342.392 44.4618,342.593 44.3618,342.492 L42.0698466,340.19719 C40.4440449,338.558122 39.3532286,337.352 37.4818,334.702 C34.5018,330.472 32.2818,325.822 30.6318,320.923 C29.4418,317.423 28.6518,313.442 28.3418,309.593 C28.2418,308.952 28.1418,308.302 28.0618,307.642 C27.4218,302.432 28.0118,297.442 28.8018,292.302 C28.8518,291.963 29.0218,291.753 29.2518,291.642 C29.3098,291.235 29.3788,290.817 29.4468,290.4 C22.8228,283.388 18.0558,274.937 18.4448,264.731 C18.5668,261.515 19.2268,258.345 20.4868,255.385 L20.6398,255.051 L20.6398,255.051 C15.1108,254.201 10.7248,250.317 7.4298,245.503 C7.1378,245.272 6.8548,245.039 6.5828,244.807 C0.6908,239.775 -3.3942,232.65 -6.1912,225.124 C-8.1942,220.754 -9.5212,216.084 -10.0842,211.24 C-10.1242,210.894 -10.1482,210.551 -10.1792,210.207 C-11.5472,202.548 -11.8952,194.812 -11.2632,187.191 C-12.6362,182.474 -13.7532,177.674 -14.5182,172.762 C-14.8782,170.423 -15.1282,168.082 -15.3182,165.742 L-15.3382,165.613 L-15.3682,165.192 L-15.4526444,164.14237 C-15.4659778,163.968667 -15.4782,163.795333 -15.4882,163.622 C-17.1782,142.202 -12.3882,121.122 -4.4682,101.282 C-3.7782,99.49775 -3.0657,97.718 -2.3307,95.9524531 L-1.5512,94.108 L-1.5512,94.108 C6.3988,81.288 18.3368,70.919 28.4478,59.968 C31.9368,56.19 26.2938,50.518 22.7918,54.311 C16.0738,61.587 8.8668,68.556 2.3598,76.035 C1.2108,76.119 0.0598,76.15 -1.0882,76.093 C-3.0882,75.992 -5.0282,75.673 -6.9082,75.162 C-11.5982,74.472 -15.8682,72.582 -19.7482,69.802 C-24.9382,67.383 -29.3682,62.822 -29.8082,56.872 C-29.8582,56.272 -29.8482,55.682 -29.8082,55.093 C-30.2882,52.182 -29.8582,49.133 -28.6382,46.322 C-28.4282,45.552 -28.1582,44.792 -27.8182,44.042 C-26.8282,41.812 -25.1982,39.673 -23.2082,38.222 C-23.1582,38.192 -23.1182,38.173 -23.0782,38.142 C-22.8682,37.923 -22.6682,37.702 -22.4382,37.503 C-22.0982,37.192 -21.7382,36.903 -21.3582,36.633 C-22.7082,34.412 -23.9282,32.133 -24.9682,29.702 C-26.0982,27.062 -26.6782,24.383 -26.9982,21.552 C-27.1282,20.432 -27.1782,19.322 -27.1982,18.213 C-27.2582,17.702 -27.2982,17.182 -27.3382,16.662 C-27.5882,12.702 -27.1282,8.593 -25.6482,4.892 C-25.5382,4.613 -25.3982,4.332 -25.2682,4.042 C-24.9882,3.202 -24.6782,2.363 -24.2982,1.542 C-22.8182,-1.608 -20.7182,-4.278 -18.1282,-6.468 C-16.7282,-7.878 -15.1582,-9.128 -13.4482,-10.188 C-12.4382,-10.818 -11.2882,-11.378 -10.0782,-11.838 C-7.9182,-12.978 -5.1482,-14.018 -2.8982,-14.097 C-2.6282,-14.108 -2.3882,-14.077 -2.1282,-14.077 C-1.9182,-19.818 -1.1782,-26.068 1.0918,-31.268 C2.4118,-35.037 4.3918,-38.387 7.3718,-40.798 C9.10013333,-42.6018889 11.2298556,-44.0668272 13.8873298,-45.0243306 L14.3618,-45.188 L14.5418,-45.238 C16.9318,-46.398 19.5118,-46.858 22.1618,-46.847 C25.2518,-47.008 28.4018,-46.427 31.0918,-45.008 C31.6518,-44.708 32.2518,-44.338 32.8218,-43.938 C33.2518,-44.798 33.7318,-45.668 34.2818,-46.537 C36.2118,-49.628 38.5418,-52.318 41.2418,-54.768 C41.5618,-55.058 41.9118,-55.318 42.2518,-55.597 C43.5618,-56.787 44.9518,-57.887 46.3918,-58.887 C49.5018,-61.048 52.9118,-62.657 56.4918,-63.698 C60.6249818,-65.2252727 64.9859529,-65.9343489 69.3485806,-65.7851561 L70.2518,-65.747 L70.2518,-65.747 C70.4518,-65.728 70.6518,-65.718 70.8418,-65.708 C75.1718,-65.427 79.4418,-64.367 83.5218,-62.768 C87.7518,-61.097 91.3318,-58.568 94.6618,-55.668 C95.4418,-56.747 96.3318,-57.768 97.4218,-58.728 C97.7318,-58.997 98.0618,-59.238 98.3718,-59.488 C98.6118,-59.728 98.8618,-59.958 99.1218,-60.188 C100.3118,-61.238 101.5718,-62.148 102.9518,-62.958 C104.5018,-63.867 106.1718,-64.497 107.9018,-64.887 C109.6618,-65.488 111.5118,-65.858 113.3918,-65.978 Z M92.8419,346.272158 C93.0189492,346.262364 102.280653,349.735463 106.895113,351.980969 L107.1219,352.0922 C112.4419,354.7322 115.0019,356.6322 119.7819,360.0222 C120.1019,360.2522 120.4319,360.6022 120.4319,360.9422 C120.4319,365.879621 119.232153,371.916807 115.0819,369.2422 C114.4819,368.855533 113.877456,368.477756 113.268567,368.105904 L112.3519,367.5522 L112.3219,367.5622 C112.3319,367.5622 112.3419,367.5522 112.3519,367.5422 C103.3119,362.0322 93.7619,357.7122 83.6819,354.6222 C82.9919,354.3722 88.1018,346.652 89.5118,347.082 C88.7018,346.762 92.7071864,346.279684 92.8419,346.272158 Z M187.8248,128.187 C181.8138,128.83 175.8028,129.463 169.7918,130.082 C165.9618,130.522 162.1218,130.912 158.2818,131.242 C152.5118,131.673 146.7418,131.742 140.9918,130.952 C138.9518,130.673 136.9518,130.272 134.9718,129.782 C133.6218,130.772 132.2218,131.702 130.7918,132.593 L114.9118,144.742 L114.9118,144.742 C104.2618,153.113 93.8418,161.982 84.4618,171.772 C68.0798,188.876 54.7368,208.886 46.3478,231.051 C45.5868,231.5 44.9988,232.283 44.8028,233.484 C43.3208,242.569 38.9868,250.855 37.4208,259.903 C35.8788,268.815 37.9298,276.391 43.5278,283.455 C44.7228,284.964 47.1708,284.884 48.6728,283.865 C49.0218,284.551 50.5338,284.522 51.0648,281.492 C53.5538,278.797 55.6828,275.972 57.1248,272.474 C58.1868,269.898 56.4018,268.112 54.2358,267.761 C55.1358,264.521 56.1508,261.31 57.2918,258.133 C60.6718,248.692 64.9718,239.673 70.3818,231.213 C75.1418,223.772 80.6518,217.292 86.5718,210.792 C86.6418,210.702 86.7618,210.673 86.8918,210.653 L88.1218,209.292 L88.1218,209.292 C88.2918,209.102 88.6418,209.122 89.0318,209.222 C89.4018,208.832 89.7618,208.432 90.1418,208.042 C90.5118,207.642 90.9218,207.762 91.1518,208.082 C91.7818,207.942 92.9318,208.622 93.2818,208.843 C93.8818,209.242 94.0718,209.692 93.5618,210.262 C93.4718,210.363 93.3818,210.463 93.2918,210.552 C93.9818,210.843 94.6618,211.232 95.1918,211.613 C97.0418,212.022 99.6418,213.742 99.1918,214.253 C98.2418,215.242 97.3218,216.253 96.4118,217.282 C97.2118,217.843 97.7318,218.392 97.5218,218.633 C93.6218,222.742 90.0218,227.093 86.7218,231.702 C84.2118,235.142 81.9418,238.722 79.9118,242.452 C76.8918,247.732 74.3318,253.162 72.0618,258.742 C71.7418,259.593 71.4318,260.442 71.1318,261.292 C67.8118,270.582 65.3318,280.222 64.2818,290.042 L64.2379185,290.704409 C64.0423333,294.241867 63.9658,303.713333 63.6018,305.972 C65.8118,307.062 68.1118,307.992 70.5018,308.753 C70.9518,308.883 71.4118,309.003 71.8718,309.113 C72.1318,309.003 72.4018,308.912 72.6718,308.832 C74.8718,307.942 77.1718,307.302 79.5218,306.992 C81.10555,306.782875 82.6816438,306.710031 84.2567805,306.755381 L84.9318,306.782 C85.6318,306.802 86.3218,306.852 87.0218,306.923 C86.9818,306.522 86.9618,306.133 86.9318,305.732 C86.7318,305.602 86.5818,305.423 86.5718,305.182 C86.1018,300.682 86.0918,296.182 86.5418,291.682 C86.8418,289.332 87.1918,286.992 87.5718,284.653 C87.9618,282.732 88.4118,280.843 88.9018,278.952 C90.2018,273.653 91.9318,268.482 94.0318,263.423 C100.0118,248.992 108.5818,235.982 117.2018,223.042 C123.4918,213.593 129.4418,203.932 135.9518,194.642 C141.4918,186.732 147.3118,178.942 153.5218,171.542 C159.7218,164.153 166.2718,157.042 173.3418,150.463 C174.4818,149.412 175.6318,148.392 176.8018,147.383 C183.5018,141.383 190.7818,136.452 198.3618,131.613 C198.6518,131.423 199.1718,131.633 199.6018,131.992 L200.824763,131.240148 C201.029578,131.115333 201.235133,130.992 201.4418,130.872 C201.6318,130.753 201.8418,130.952 201.9518,131.122 C202.4718,130.852 202.9918,130.593 203.5118,130.332 C203.8908,130.026 204.2818,129.736 204.6638,129.434 C199.0428,129.151 193.4298,128.731 187.8248,128.187 Z M258.3218,61.522 C253.7818,60.613 249.2218,60.482 244.6418,61.162 C242.7228,61.443 240.8128,61.781 238.9188,62.19 C243.2198,65.94 246.6788,70.739 248.9238,76.262 C251.3498,82.232 241.6728,84.805 239.2808,78.921 C236.9738,73.245 232.6068,68.891 227.3318,66.281 C226.1918,66.918 225.0868,67.608 224.0318,68.372 C222.6518,69.492 221.3518,70.702 220.1318,72.032 C217.4718,74.923 215.0318,78.782 213.4318,82.602 C212.8118,84.682 212.3518,86.822 212.0618,89.022 C212.0018,89.522 211.9418,90.032 211.8918,90.542 C210.9058,100.891 213.8648,110.96 218.9558,119.87 L219.1558,119.873 L219.1558,119.873 C223.6998,117.409 228.4568,115.333 233.3518,113.642 C237.2718,111.003 241.3418,108.562 245.5318,106.352 C254.439207,101.652741 263.847356,98.0300741 273.541936,95.5527574 L274.6618,95.272 C276.945133,94.6886667 279.2493,94.1747778 281.562726,93.725125 L282.9518,93.463 L282.9718,93.463 L282.8218,91.972 L282.8218,91.972 C282.0418,86.122 279.7518,80.692 276.7918,75.673 C274.5718,71.883 271.2218,68.003 267.5018,64.903 L267.4818,64.892 C265.792911,63.932 264.017109,63.1379259 262.189509,62.4816845 L261.5018,62.242 L258.3218,61.522 Z M136.4218,52.633 C126.9818,51.742 117.5418,51.832 108.1018,52.602 C101.9318,53.213 95.8018,54.062 89.7018,55.142 C85.5718,55.852 81.5218,56.852 77.5418,58.093 L79.8182815,62.6966528 C83.6229111,70.3636667 87.5201333,77.9803333 92.1118,85.222 C94.4818,88.952 97.0518,92.503 99.8518,95.912 C101.7418,98.352 103.8218,100.613 106.1018,102.692 C106.7018,103.423 107.3418,104.113 107.9918,104.782 C110.0718,106.562 112.3118,108.122 114.7618,109.412 C116.726244,110.843111 118.777602,112.093284 120.915874,113.189207 L121.7218,113.593 L129.2218,116.472 C129.6218,116.585333 130.026244,116.698667 130.43217,116.80637 L131.0418,116.963 L132.1818,117.202 L133.037356,116.737556 C133.180689,116.660889 133.325133,116.585333 133.4718,116.512 C133.7118,116.383 133.8818,116.633 133.9318,116.812 C133.9518,116.883 133.9218,116.982 133.8718,117.082 L134.9648,116.491 L134.9648,116.491 C136.8438,117.254 138.8378,117.864 140.9768,118.266 C141.9448,118.447 142.9148,118.586 143.8858,118.705 L144.015874,118.791889 C144.037578,118.807111 144.059467,118.823667 144.0818,118.843 L145.1438,118.843 L145.1438,118.843 C152.6198,119.564 160.2018,118.611 167.6658,117.27 C178.2278,116.208 188.7878,115.037 199.3418,113.942 C199.5418,113.923 199.6218,114.012 199.6218,114.153 L200.2718,114.093 L200.2718,114.093 C201.2118,113.992 202.3118,115.562 201.6018,116.133 C202.1718,116.472 202.7218,116.963 203.1318,117.343 L203.3718,117.322 C201.9218,114.482 200.8018,111.512 200.0018,108.423 L198.9818,103.242 L198.9818,103.242 C198.7018,101.312 198.5418,99.253 198.5118,97.222 C198.4418,96.292 198.3918,95.423 198.3918,94.662 C198.3918,93.942 198.4018,93.222 198.4318,92.503 C196.4418,91.682 194.4218,90.963 192.3618,90.352 C186.5118,89.633 180.6718,88.912 174.8218,88.202 C171.3118,88.332 167.8018,88.582 164.3018,88.972 C160.3318,89.322 156.3718,89.772 152.4218,90.312 C152.0518,90.352 151.3918,89.852 150.9918,89.272 L149.3018,89.503 L149.3018,89.503 C148.4218,89.613 147.5018,87.852 148.6618,87.492 C149.0818,87.3253333 149.5018,87.1675556 149.9218,87.0157037 L150.5518,86.792 L150.1918,86.832 C150.0718,86.843 149.9218,86.812 149.7518,86.753 C148.8218,86.872 147.8918,86.992 146.9718,87.102 C145.805014,87.2476071 146.070193,85.7092615 146.88863,85.3472386 L147.2818,85.202 C146.5906,84.77096 145.982344,83.5915808 146.83722,83.2059572 L146.9518,83.162 C147.3518,83.003 147.7418,82.872 148.1418,82.722 C148.1118,82.593 148.1118,82.472 148.1518,82.363 L146.5018,82.572 L146.5018,82.572 C146.351212,82.5917647 147.06872,81.5388097 147.412103,81.3306599 L147.4718,81.302 L148.2618,81.062 C148.3818,80.722 149.0218,79.972 149.2418,79.903 C152.1418,78.992 154.8418,78.173 157.6618,77.542 C157.8018,77.372 157.9618,77.242 158.1418,77.202 C159.9018,76.782 161.6818,76.452 163.4618,76.173 C163.5818,75.992 163.7018,75.863 163.8418,75.852 C168.2518,75.292 172.6718,75.162 177.1118,75.463 C177.9618,75.542 178.8118,75.633 179.6618,75.742 C181.2918,75.923 182.9218,76.153 184.5418,76.463 C188.599657,77.1594286 192.562667,78.218 196.422824,79.6459202 L197.3118,79.982 C198.2818,80.343 199.2418,80.722 200.1918,81.133 C200.6718,79.423 201.2718,77.742 201.9818,76.093 C202.0918,75.772 202.2118,75.463 202.3418,75.153 L201.3718,74.572 L201.3718,74.572 C201.1618,74.972 200.7318,75.282 200.4518,75.113 C193.5018,70.423 186.1518,66.512 178.4018,63.392 C174.0618,61.472 169.6218,59.843 165.0718,58.482 C162.8018,57.753 160.5118,57.093 158.2118,56.463 C157.0618,56.222 155.9118,55.982 154.7418,55.782 C148.7318,54.162 142.6218,53.113 136.4218,52.633 Z M365.4348,68.506 C364.5908,69.964 363.7128,71.408 362.7818,72.832 C358.2608,79.751 352.8408,86.244 346.6948,91.905 C348.2978,91.901 349.8968,91.962 351.4758,92.11 C354.1988,92.367 356.8658,92.819 359.4658,93.452 C359.6768,93.283 359.9128,93.198 360.1018,93.332 L360.7798,93.801 L360.7798,93.801 C366.3568,95.306 371.5928,97.672 376.3358,100.842 L376.250763,100.216 C376.236244,100.111667 376.220467,100.007333 376.2018,99.903 C376.2818,98.673 376.3018,97.442 376.2618,96.222 C375.2818,89.012 372.8318,82.372 370.0318,75.653 C369.9788,75.523 370.0168,75.354 370.0978,75.182 C368.6848,72.874 367.1378,70.642 365.4348,68.506 Z M366.7218,11.822 C364.6318,12.202 362.5618,12.692 360.5018,13.302 C356.6318,13.883 352.8818,14.903 349.2618,16.352 C344.2718,18.122 339.4318,20.182 334.6118,22.363 C325.2518,26.602 316.4718,31.963 308.4818,38.423 C307.9718,38.812 307.4818,39.213 306.9918,39.613 C305.2018,41.162 303.4618,42.782 301.8118,44.492 C300.0818,46.372 298.3418,48.253 296.6118,50.142 C294.4918,52.363 292.0518,54.372 290.1318,56.772 C289.7418,57.262 289.4018,57.802 289.0918,58.343 L290.2218,58.732 L290.2218,58.732 C291.1718,59.052 291.0118,60.832 290.0718,60.572 C289.7518,60.482 289.4518,60.372 289.1518,60.253 C289.2818,60.423 289.3718,60.593 289.3918,60.742 C289.4518,61.222 289.0818,61.883 288.4918,61.713 C288.2218,61.642 287.9518,61.542 287.6818,61.432 C287.6018,61.742 287.5418,62.052 287.5418,62.352 C287.5918,62.372 287.6418,62.392 287.7018,62.403 C288.3618,62.633 289.6018,63.662 289.7818,64.363 C289.9218,64.903 289.4618,65.482 288.8718,65.322 C288.4318,65.202 288.0018,65.022 287.5818,64.822 C287.8618,65.093 288.0818,65.383 288.1018,65.633 C288.1418,66.093 287.7418,66.742 287.1918,66.593 C286.1718,66.312 285.3518,65.883 284.6718,65.343 C284.4918,65.582 284.2318,65.772 284.0218,65.713 L283.6318,65.593 L283.6318,65.593 C283.738467,65.6923333 283.836244,65.797 283.931059,65.8998889 L284.0718,66.052 C286.8318,69.032 289.2418,72.332 291.1718,75.883 C291.2618,75.782 291.3718,75.692 291.5118,75.582 C292.4118,74.822 293.3418,74.082 294.2718,73.363 L294.55305,73.117125 L294.55305,73.117125 L294.8418,72.872 L292.7518,73.562 L292.798039,73.5078542 C292.945721,73.3188178 293.405605,72.6882901 293.619872,72.4782198 L293.6718,72.432 C296.5418,69.863 299.6718,67.682 303.0518,65.903 C305.2418,64.482 307.5418,63.282 309.9518,62.292 C315.7018,59.622 321.5618,57.593 327.5818,55.713 C328.4818,55.423 329.3818,55.113 330.2818,54.832 C330.5418,54.742 330.5918,54.852 330.5518,55.032 L331.0218,54.892 L331.0218,54.892 C331.8618,54.622 333.2918,56.102 332.7218,56.792 C333.0658,57.072 333.4034,57.384 333.69876,57.6768 L333.9118,57.892 L334.1518,57.822 C334.8662,57.6016 336.07156,58.715456 336.837251,59.5042387 L337.4018,60.102 C337.8318,60.562 338.6718,61.512 337.6418,61.883 L336.3518,62.322 L336.3518,62.322 C336.3918,62.582 336.2818,62.802 335.8818,62.952 C335.4318,63.102 334.9918,63.262 334.5518,63.423 C334.818467,63.6556667 335.080689,63.8976667 335.338467,64.1427778 L335.7218,64.512 C336.174393,64.9742222 337.248275,65.992823 336.300304,66.4426813 L336.1818,66.492 L334.9518,66.932 C335.1118,67.292 335.0718,67.633 334.5318,67.832 C327.3518,70.272 320.3418,73.133 313.4918,76.383 C308.3618,79.222 302.9418,81.343 297.2318,82.732 C296.7618,82.883 295.7418,82.173 295.3218,81.463 L294.469207,81.7138889 C294.327356,81.7553333 294.185133,81.7953333 294.0418,81.832 L293.9018,81.863 L293.9018,81.863 C294.9718,84.713 295.7618,87.802 296.2018,90.792 C296.2518,91.062 296.2918,91.343 296.3218,91.613 C297.4418,91.522 298.5518,91.442 299.6718,91.383 C307.4218,90.972 315.2618,91.222 323.0318,92.142 C326.1718,90.272 329.1918,88.222 332.0818,86.003 C332.9618,85.322 333.8318,84.622 334.6918,83.912 C339.8518,79.432 344.5218,74.403 348.6618,68.972 C352.4918,63.942 355.8218,58.542 358.6218,52.883 C361.1018,47.572 363.1518,42.052 364.7018,36.352 C366.1218,31.142 366.6118,26.072 366.9718,20.682 C367.0918,19.802 367.1718,18.923 367.2418,18.042 L367.233652,17.664963 L367.233652,17.664963 L367.2218,17.482 C367.1218,15.593 366.9318,13.702 366.7218,11.822 Z M293.4518,78.792 C293.2218,78.872 292.9818,78.952 292.7418,79.022 C292.8818,79.332 293.0118,79.633 293.1418,79.942 L293.1568,79.935875 L293.1568,79.935875 L294.1018,79.192 L294.1018,79.192 C293.9018,79.102 293.6718,78.963 293.4518,78.792 Z M365.3218,-2.3577 C367.1218,-3.0277 368.4818,-3.1577 369.4018,-2.7377 C368.0418,-2.6377 366.6818,-2.5077 365.3218,-2.3577 Z" id="🖍-Ink" fill="#000"/></g></g><g id="Facial Hair" transform="translate(527.000000, 518.000000) scale(1 1)" fill="#000"><g id="Facial Hair/None" stroke="none" stroke-width="1" fill="none" fill-rule="evenodd" fill-opacity="0"/></g><g id="Face" transform="translate(563.000000, 366.000000) scale(1 1)" fill="#000"><g id="Face/Smile" stroke="none" stroke-width="1" fill="none" fill-rule="evenodd"><path d="M146.586567,240.926554 C139.864291,238.184203 133.866322,233.609781 129.481228,227.766254 C127.956691,225.734803 127.561405,223.589624 127.881219,221.627583 C128.240828,219.421406 129.546036,217.4219 131.326046,216.080693 C133.111571,214.735331 135.345035,214.071832 137.504329,214.410065 C139.380629,214.703969 141.248396,215.731287 142.726594,217.861908 L143.035427,218.287981 C145.642441,221.814933 149.039621,224.708755 152.91047,226.573991 C156.641339,228.371775 160.813939,229.21087 165.131898,228.722919 C173.355732,227.793938 179.024012,223.346401 185.048774,217.30672 C185.795561,216.544195 186.542826,215.757766 187.293714,214.958678 C187.767915,214.234308 188.425986,213.768756 189.156624,213.524488 C189.967867,213.253272 190.885573,213.268617 191.726122,213.56195 C192.536835,213.844871 193.261572,214.380994 193.747527,215.094538 C194.209389,215.772704 194.47125,216.610486 194.386283,217.574143 C193.834826,223.833283 190.562474,229.419299 185.914235,233.805502 C180.751772,238.67694 173.908551,242.047034 167.465957,243.229031 C160.36811,244.531047 153.135593,243.598228 146.586567,240.926554 L146.586567,240.926554 Z M170.814304,144.367155 C178.365682,148.9572 189.871664,159.660291 181.748119,171.039573 C172.185929,181.073062 158.418535,169.568982 151.634201,164.366134 C145.343449,160.333898 138.275437,170.704507 144.112,175.412823 C193.135736,211.708059 213.030606,145.567387 174.633685,138.970386 C170.406047,138.243425 168.835891,142.947174 170.814304,144.367155 Z M82.9633,102.1464 C83.7976284,91.7901242 99.5703,89.4384 101.1393,99.6864 C102.5443,108.8664 100.8903,117.2994 96.7553,125.5644 C92.8043,133.4604 82.8737826,129.776544 82.1227826,122.586544 C81.1160984,112.948648 82.4443,108.588596 82.9633,102.1464 Z M203.027,97.5615 C205.226,94.6815 208.401,92.7155 212.205,93.8265 C224.09,97.2995 220.587,114.1725 216.413,122.3855 C214.145,126.8455 206.814,127.9765 203.501,124.0495 C198.101,117.6455 195.515,104.8565 202.38,98.5485 C202.566,98.2225 202.773,97.8935 203.027,97.5615 Z M96.5879,56.8305 L98.465271,56.501905 C104.27307,55.49746 111.4944,54.5323 115.6029,59.2015 C117.7819,61.6775 118.5319,66.2795 115.6029,68.6495 C110.4509,72.8195 104.7549,71.2035 98.5809,71.5565 C93.4929,71.8485 88.6029,72.6905 83.7019,74.0915 C72.9499,77.1645 64.1889,82.7745 55.0059,88.9345 C53.8009,89.7425 52.5709,88.2015 53.1459,87.0745 C58.4469,76.6915 68.7199,68.1625 79.0099,62.9635 C84.5019,60.1885 90.5119,57.8865 96.5879,56.8305 Z M192.192876,52.1793876 L193.629806,52.4734684 C209.267042,55.742077 229.583473,62.2713911 236.988459,77.6308459 C237.270623,79.8027272 236.97249,80.2682047 236.730054,80.5723213 L236.649336,80.6735209 C236.449568,80.9332186 236.290169,81.2912104 235.348782,81.5868073 C235.087547,81.5245653 234.823712,81.4586426 234.557082,81.3887687 C231.162766,80.499243 228.477205,79.2737961 225.877298,78.0022488 L223.058339,76.6134493 C219.787784,75.0098309 216.488352,73.4645766 212.991711,72.3238115 C205.52958,69.8898666 197.854137,68.1753043 190.059777,67.259767 C188.37041,67.0615005 186.743655,66.4913394 185.460262,65.5141761 C184.242065,64.5866523 183.311441,63.3024737 182.887128,61.5955207 C182.33722,59.3864508 182.495251,57.7140037 183.680513,55.7210991 C184.571756,54.2244705 185.846982,53.1871113 187.311265,52.5914244 C188.804038,51.9841473 190.503545,51.840982 192.192876,52.1793876 Z" id="🖍-Ink" fill="#000"/></g></g><g id="Mask" transform="translate(428.000000, 479.000000) scale(1 1)" fill="#000"><g id="Mask/Medical Mask" stroke="none" stroke-width="1" fill="none" fill-rule="evenodd"><path d="M393.2574,70.3562 C391.3724,46.4732 361.2574,36.3562 346.2574,33.3562 C296.3094,21.6142 253.8154,51.7402 194.2574,52.3562 C188.2464,52.4502 171.0564,51.4362 163.0624,49.3252 C122.5034,40.1092 81.9864,30.3062 42.1904,18.2192 C36.3394,19.5892 34.6084,27.2262 38.6254,31.5772 C76.7414,45.0942 135.0544,57.1982 165.8484,58.5762 C165.2574,98.3562 144.2574,138.3562 115.2574,160.3562 C161.3804,211.3612 268.9494,228.1352 332.2554,201.3622 C363.3964,192.0162 396.2574,108.3562 393.2574,70.3562" id="🎨-Color" fill="#FFF"/><path d="M38.9721,19.4231 C37.2571,19.3561 38.2571,14.3561 42.1201,15.0691 C91.9641,26.7261 154.0641,48.9301 205.2971,48.7671 C242.9861,47.5331 276.7571,26.5431 314.6541,26.4161 C340.1291,26.9041 372.6131,30.5271 390.4411,50.9691 C413.9561,125.5471 361.0031,226.9831 277.6861,227.5701 L261.916329,226.429119 C208.162751,222.468898 149.27444,216.13275 114.6271,170.5281 L114.3571,170.7601 L114.3571,170.7601 C109.1761,167.2841 109.4651,159.7771 113.8681,155.9161 L113.9991,156.1221 L113.9991,156.1221 C114.0831,155.9861 114.1761,155.8561 114.2661,155.7231 L114.2101,155.5481 L114.2101,155.5481 C115.9041,153.7701 117.8301,152.1071 119.5811,150.6181 L119.5901,150.6471 L119.5901,150.6471 C145.6061,128.9721 162.5931,96.1971 163.5711,62.2581 C154.9581,64.6241 10.2521,34.6241 36.0831,27.3031 C54.5591,33.5491 73.1441,39.1901 92.1041,43.6801 C92.4221,43.5011 92.8781,43.5481 93.0531,43.9011 C116.2471,49.6091 139.9091,52.8711 163.6021,55.5121 C163.5771,54.3801 163.5341,53.2481 163.4761,52.1141 C121.3481,43.9131 80.0481,31.7371 38.9721,19.4231 Z M380.0951,49.6901 C293.6861,6.0391 250.7941,70.5281 167.2251,52.7721 C175.9681,91.7781 154.3791,133.8291 125.0561,159.3151 C167.6621,196.1911 186.1021,201.7751 241.9921,207.7601 L249.293502,208.629503 C260.271331,209.929588 271.352191,211.142282 282.3641,211.3321 C339.4841,207.1751 382.6451,147.7471 389.1041,93.9021 L389.139106,92.4146641 C389.428627,78.7495503 388.80096,64.2848719 382.7471,51.7661 C381.6321,51.3781 380.6631,50.6791 380.0951,49.6901 Z M259.7989,83.9558 C262.7849,83.2838 265.8319,86.5418 263.9809,89.3948 C257.9999,98.6198 243.3729,102.1938 233.1429,103.6438 C221.2959,105.3228 209.8119,103.9988 198.5579,99.9578 C197.9549,99.7408 197.9979,98.6748 198.7199,98.7608 C209.4059,100.0328 220.4219,99.1018 230.8049,96.2738 C241.3329,94.2228 249.8339,87.2208 259.7989,83.9558 Z M340.987868,77.3109 C340.9383,75.5579 349.5563,80.6299 350.9193,81.3129 C361.4453,87.6329 373.6293,88.0959 385.2383,90.5769 C387.9443,91.6149 387.9403,95.0549 385.2373,96.0929 C370.7483,99.9459 348.7593,89.8339 340.987868,77.3109 Z" id="🖍-Ink" fill="#000"/></g></g><g id="Accessories" transform="translate(451.000000, 421.000000) scale(1 1)" fill="#000"><g id="Accessories/None" stroke="none" stroke-width="1" fill="none" fill-rule="evenodd" fill-opacity="0"/></g></g></svg>